<svg xmlns="http://www.w3.org/2000/svg" width="106" height="106" viewBox="0 0 106 106">
  <g id="Grupo_60203" data-name="Grupo 60203" transform="translate(-747 -6491)">
    <g id="ios" transform="translate(747.48 6491.48)">
      <circle id="Elipse_4109" data-name="Elipse 4109" cx="53" cy="53" r="53" transform="translate(-0.48 -0.48)" fill="#7714b7"/>
      <g id="Grupo_60160" data-name="Grupo 60160" transform="translate(21.918 46.256)">
        <path id="Trazado_122071" data-name="Trazado 122071" d="M113.949,185.005a3.268,3.268,0,0,1-3.512,3.253,3.277,3.277,0,1,1,.043-6.55A3.265,3.265,0,0,1,113.949,185.005Zm-6.722,26.761V190.829h6.509v20.937Z" transform="translate(-107.055 -181.709)" fill="#e8eaf6"/>
        <path id="Trazado_122072" data-name="Trazado 122072" d="M185.757,199.855c0,9.463-5.738,15.2-14.173,15.2-8.562,0-13.571-6.465-13.571-14.685,0-8.649,5.523-15.114,14.044-15.114C180.918,185.256,185.757,191.892,185.757,199.855Zm-20.852.386c0,5.652,2.654,9.633,7.022,9.633,4.41,0,6.935-4.2,6.935-9.805,0-5.181-2.483-9.633-6.978-9.633C167.475,190.436,164.905,194.632,164.905,200.241Z" transform="translate(-147.543 -184.527)" fill="#e8eaf6"/>
        <path id="Trazado_122073" data-name="Trazado 122073" d="M309.788,207.858a16.639,16.639,0,0,0,7.236,1.8c3,0,4.582-1.242,4.582-3.125,0-1.8-1.37-2.826-4.838-4.068-4.8-1.67-7.921-4.325-7.921-8.521,0-4.923,4.11-8.691,10.917-8.691a17.711,17.711,0,0,1,7.365,1.455l-1.455,5.267a13.713,13.713,0,0,0-6.037-1.371c-2.826,0-4.2,1.285-4.2,2.783,0,1.842,1.627,2.654,5.352,4.068,5.1,1.886,7.495,4.541,7.495,8.607,0,4.84-3.725,8.948-11.646,8.948a18.917,18.917,0,0,1-8.178-1.754Z" transform="translate(-267.081 -184.523)" fill="#e8eaf6"/>
      </g>
      <g id="Grupo_60161" data-name="Grupo 60161" transform="translate(21.918 46.256)">
        <path id="Trazado_122074" data-name="Trazado 122074" d="M110.438,188.263a3.277,3.277,0,1,1,.043-6.55,3.282,3.282,0,1,1-.043,6.55Z" transform="translate(-107.055 -181.712)" fill="#fff"/>
        <path id="Trazado_122075" data-name="Trazado 122075" d="M110.48,181.709a3.277,3.277,0,1,0-.043,6.55,3.282,3.282,0,1,0,.043-6.55Z" transform="translate(-107.054 -181.709)" fill="#fff"/>
        <rect id="Rectángulo_5949" data-name="Rectángulo 5949" width="6.509" height="8.057" transform="translate(0.172 9.12)" fill="#fff"/>
        <path id="Trazado_122076" data-name="Trazado 122076" d="M172.052,185.256c-8.52,0-14.044,6.465-14.044,15.114,0,.451.02.9.051,1.335h6.913c-.042-.475-.071-.958-.071-1.462,0-5.609,2.571-9.805,6.98-9.805,4.5,0,6.978,4.452,6.978,9.633,0,.561-.032,1.1-.082,1.634h6.9c.052-.6.081-1.214.081-1.85C185.753,191.892,180.914,185.256,172.052,185.256Z" transform="translate(-147.539 -184.527)" fill="#fff"/>
        <path id="Trazado_122077" data-name="Trazado 122077" d="M322.281,197.462c-3.725-1.414-5.352-2.226-5.352-4.068,0-1.5,1.37-2.783,4.2-2.783a13.737,13.737,0,0,1,6.037,1.37l1.456-5.267a17.7,17.7,0,0,0-7.365-1.455c-6.806,0-10.917,3.767-10.917,8.691,0,3.608,2.315,6.075,6.012,7.757h12.17C327.325,199.941,325.271,198.567,322.281,197.462Z" transform="translate(-268.57 -184.53)" fill="#fff"/>
      </g>
    </g>
    <g id="Grupo_60202" data-name="Grupo 60202" transform="translate(0 -7)">
      <path id="Trazado_122205" data-name="Trazado 122205" d="M259.9,148.111a5.193,5.193,0,0,0,.67,9.335c-.231.479-.438.967-.694,1.429a14.114,14.114,0,0,1-2.807,3.8,2.987,2.987,0,0,1-3.594.551,5.225,5.225,0,0,0-4.874-.023,3.144,3.144,0,0,1-3.906-.675,14.218,14.218,0,0,1-3.96-7.872,9.168,9.168,0,0,1,.225-4.433,6.068,6.068,0,0,1,4.656-4.316,6.977,6.977,0,0,1,2.368.1,8.635,8.635,0,0,1,1.571.506,4.262,4.262,0,0,0,2.87-.025,11.682,11.682,0,0,1,2.726-.668,5.615,5.615,0,0,1,4.748,2.285" transform="translate(549.429 6370.385)" fill="#fff"/>
      <path id="Trazado_122206" data-name="Trazado 122206" d="M274.513,131.964c-.562-2.15,1.725-5.434,4.638-5.505.672,2.425-2.013,5.634-4.638,5.505" transform="translate(525.211 6384.226)" fill="#fff"/>
    </g>
  </g>
</svg>
