<svg xmlns="http://www.w3.org/2000/svg" xmlns:xlink="http://www.w3.org/1999/xlink" width="62" height="62" viewBox="0 0 62 62">
  <defs>
    <clipPath id="clip-path">
      <path id="Trazado_119439" data-name="Trazado 119439" d="M31,0A31,31,0,1,1,0,31,31,31,0,0,1,31,0Z" transform="translate(-5872 -10579)" fill="#e4d0f1"/>
    </clipPath>
  </defs>
  <g id="Enmascarar_grupo_49" data-name="Enmascarar grupo 49" transform="translate(5872 10579)" clip-path="url(#clip-path)">
    <g id="tarjeta-de-credito" transform="translate(-5872 -10579)">
      <circle id="Elipse_4065" data-name="Elipse 4065" cx="31" cy="31" r="31" fill="#e4d0f1"/>
      <path id="Trazado_119448" data-name="Trazado 119448" d="M62,31q0-1.158-.085-2.295L50.833,17.623l-4.588,6.947L31,9.324,11.054,44.25,28.72,61.916Q29.849,62,31,62A31,31,0,0,0,62,31Z" fill="#c69ee0"/>
      <path id="Trazado_119449" data-name="Trazado 119449" d="M48.871,45.221H13.129a2.706,2.706,0,0,1-2.706-2.706V19.485a2.706,2.706,0,0,1,2.706-2.706H48.871a2.706,2.706,0,0,1,2.706,2.706v23.03A2.706,2.706,0,0,1,48.871,45.221Z" fill="#ff6838"/>
      <path id="Trazado_119450" data-name="Trazado 119450" d="M48.871,16.779H31V45.221H48.871a2.706,2.706,0,0,0,2.706-2.706V19.485A2.706,2.706,0,0,0,48.871,16.779Z" fill="#ae4e32"/>
      <rect id="Rect치ngulo_5194" data-name="Rect치ngulo 5194" width="41.154" height="7.831" transform="translate(10.424 21.918)" fill="#333"/>
      <rect id="Rect치ngulo_5195" data-name="Rect치ngulo 5195" width="20.58" height="7.831" transform="translate(30.998 21.918)" fill="#1a1a1a"/>
      <g id="Grupo_58411" data-name="Grupo 58411">
        <path id="Trazado_119451" data-name="Trazado 119451" d="M31,35.351l-1.6-1.168-1.6,1.168-1.6-1.168-1.6,1.168-1.6-1.168-1.6,1.168-1.6-1.168-1.6,1.168-1.6-1.168-1.6,1.168h0V9.324l1.6,1.168,1.6-1.168,1.6,1.168,1.6-1.168,1.6,1.168,1.6-1.168,1.6,1.168,1.6-1.168,1.6,1.168L31,9.324Z" fill="#fff"/>
        <path id="Trazado_119452" data-name="Trazado 119452" d="M15.016,35.351Z" fill="#fff"/>
      </g>
      <path id="Trazado_119453" data-name="Trazado 119453" d="M23.009,34.182l1.6,1.168,1.6-1.168,1.6,1.168,1.6-1.168L31,35.351h0V9.324l-1.6,1.168L27.8,9.324l-1.6,1.168-1.6-1.168-1.6,1.168Z" fill="#e0e0e0"/>
      <path id="Trazado_119454" data-name="Trazado 119454" d="M27.46,23.359A3.274,3.274,0,0,0,26.346,22.3a5.8,5.8,0,0,0-1.414-.578q-.351-.1-.731-.189V18.5a2.1,2.1,0,0,1,1.176.752l.717.785,1.534-1.652-.622-.666a4.664,4.664,0,0,0-1.711-1.191,5.222,5.222,0,0,0-1.095-.289V14.692H21.948v1.582a4.661,4.661,0,0,0-2.081.878,3.409,3.409,0,0,0-1.3,2.807,3.151,3.151,0,0,0,.36,1.558,2.871,2.871,0,0,0,1.015,1.045,5.179,5.179,0,0,0,1.313.557c.216.061.446.121.689.18v3.058a3.968,3.968,0,0,1-.558-.177,3.42,3.42,0,0,1-1.243-.926l-.643-.718-1.728,1.5.715.743a6.391,6.391,0,0,0,1.917,1.392,5.614,5.614,0,0,0,1.539.444v1.372H24.2V28.632a6.27,6.27,0,0,0,.786-.148,4.581,4.581,0,0,0,1.482-.659,3.33,3.33,0,0,0,1.054-1.182,3.42,3.42,0,0,0,.378-1.618A3.041,3.041,0,0,0,27.46,23.359Zm-3.26.457.128.036a3.529,3.529,0,0,1,.843.346,1.067,1.067,0,0,1,.374.35,1,1,0,0,1,.1.506,1.023,1.023,0,0,1-.48.988,2.734,2.734,0,0,1-.969.358V23.817ZM21.233,18.88a1.667,1.667,0,0,1,.716-.339v2.443l-.121-.035a2.812,2.812,0,0,1-.71-.3.582.582,0,0,1-.218-.221,1.113,1.113,0,0,1-.077-.487A1.3,1.3,0,0,1,21.233,18.88Z" fill="#35ccff"/>
      <path id="Trazado_119455" data-name="Trazado 119455" d="M27.46,23.359A3.274,3.274,0,0,0,26.346,22.3a5.79,5.79,0,0,0-1.414-.578c-.234-.064-.479-.127-.731-.189V18.5a2.488,2.488,0,0,1,.271.083,2.44,2.44,0,0,1,.905.669l.717.785,1.534-1.652-.622-.666a4.664,4.664,0,0,0-1.711-1.191A5.222,5.222,0,0,0,24.2,16.24V14.692H23.008V29.984H24.2V28.632a6.27,6.27,0,0,0,.786-.148,4.581,4.581,0,0,0,1.482-.659,3.33,3.33,0,0,0,1.054-1.182,3.42,3.42,0,0,0,.378-1.618A3.041,3.041,0,0,0,27.46,23.359Zm-2.291,2.683a2.734,2.734,0,0,1-.969.358V23.817l.128.036a3.533,3.533,0,0,1,.843.346,1.068,1.068,0,0,1,.374.349,1,1,0,0,1,.1.506A1.024,1.024,0,0,1,25.169,26.042Z" fill="#00baff"/>
    </g>
  </g>
</svg>
