<svg xmlns="http://www.w3.org/2000/svg" xmlns:xlink="http://www.w3.org/1999/xlink" width="810.773" height="508.208" viewBox="0 0 810.773 508.208">
  <defs>
    <linearGradient id="linear-gradient" x1="0.5" x2="0.5" y2="0.704" gradientUnits="objectBoundingBox">
      <stop offset="0" stop-color="#f3f9ff"/>
      <stop offset="1" stop-color="#fff"/>
    </linearGradient>
    <clipPath id="clip-path">
      <path id="Unión_12" data-name="Unión 12" d="M.006,0H810.778V508.213H.006Z" transform="translate(1295.778 1304.213) rotate(180)" fill="url(#linear-gradient)"/>
    </clipPath>
    <clipPath id="clip-path-2">
      <rect id="Rectángulo_5196" data-name="Rectángulo 5196" width="505" height="449.2" fill="none"/>
    </clipPath>
  </defs>
  <g id="Grupo_60208" data-name="Grupo 60208" transform="translate(-485 -796)">
    <g id="Grupo_58597" data-name="Grupo 58597">
      <path id="Unión_9" data-name="Unión 9" d="M.006,0H810.778V508.213H.006Z" transform="translate(1295.778 1304.213) rotate(180)" fill="url(#linear-gradient)"/>
      <g id="Enmascarar_grupo_53" data-name="Enmascarar grupo 53" clip-path="url(#clip-path)">
        <g id="Grupo_58595" data-name="Grupo 58595" transform="translate(679.409 166.503)">
          <g id="Grupo_58592" data-name="Grupo 58592" transform="translate(480.772 653.842)">
            <g id="Grupo_53798" data-name="Grupo 53798" transform="translate(0 0)">
              <path id="Trazado_103987" data-name="Trazado 103987" d="M873.345,568.755a12.771,12.771,0,0,1-9.071-3.744L724.644,425.38a12.862,12.862,0,0,1,0-18.142L864.238,267.644a12.862,12.862,0,0,1,18.142,0l139.594,139.595a12.862,12.862,0,0,1,0,18.142L882.38,564.975A12.514,12.514,0,0,1,873.345,568.755Zm0-297.367a5.2,5.2,0,0,0-3.744,1.548L729.971,412.53a5.255,5.255,0,0,0-1.548,3.744,5.194,5.194,0,0,0,1.548,3.744L869.566,559.612a5.255,5.255,0,0,0,3.744,1.548,5.2,5.2,0,0,0,3.744-1.548l139.595-139.595a5.255,5.255,0,0,0,1.548-3.744,5.194,5.194,0,0,0-1.548-3.744L877.089,272.935A5.255,5.255,0,0,0,873.345,271.387Z" transform="translate(-720.9 -263.9)" fill="#f3f9ff"/>
            </g>
          </g>
          <g id="Grupo_58593" data-name="Grupo 58593" transform="translate(363.1 649.99)">
            <g id="Grupo_53800" data-name="Grupo 53800" transform="translate(0 0)">
              <path id="Trazado_103988" data-name="Trazado 103988" d="M495.8,456.8a12.771,12.771,0,0,1-9.071-3.744l-88.983-88.983a12.862,12.862,0,0,1,0-18.142l88.983-88.983a12.862,12.862,0,0,1,18.142,0l88.983,88.983a12.862,12.862,0,0,1,0,18.142l-88.983,88.983A12.771,12.771,0,0,1,495.8,456.8Zm0-196.109a5.2,5.2,0,0,0-3.744,1.548l-88.983,88.983a5.255,5.255,0,0,0-1.548,3.744,5.2,5.2,0,0,0,1.548,3.744l88.983,88.983a5.255,5.255,0,0,0,3.744,1.548,5.2,5.2,0,0,0,3.744-1.548l88.984-88.983a5.255,5.255,0,0,0,1.548-3.744,5.2,5.2,0,0,0-1.548-3.744l-88.948-88.983A5.277,5.277,0,0,0,495.8,260.687Z" transform="translate(-394 -253.2)" fill="#f3f9ff"/>
            </g>
          </g>
          <g id="Grupo_58594" data-name="Grupo 58594" transform="translate(447.404 499.201)">
            <g id="Grupo_53802" data-name="Grupo 53802" transform="translate(0 0)">
              <path id="Trazado_103989" data-name="Trazado 103989" d="M623.305-79.722a11.651,11.651,0,0,1-8.276-3.415l-81.214-81.181a11.651,11.651,0,0,1-3.415-8.276,11.651,11.651,0,0,1,3.415-8.276L615-262.085a11.651,11.651,0,0,1,8.276-3.415,11.651,11.651,0,0,1,8.276,3.415L712.763-180.9a11.651,11.651,0,0,1,3.415,8.276,11.651,11.651,0,0,1-3.415,8.276L631.581-83.137A11.708,11.708,0,0,1,623.305-79.722Zm0-178.914a4.739,4.739,0,0,0-3.415,1.412l-81.214,81.181a4.8,4.8,0,0,0-1.412,3.415,4.739,4.739,0,0,0,1.412,3.415L619.857-88a4.794,4.794,0,0,0,3.415,1.412A4.739,4.739,0,0,0,626.688-88l81.181-81.181a4.794,4.794,0,0,0,1.412-3.415,4.739,4.739,0,0,0-1.412-3.415l-81.149-81.214A4.794,4.794,0,0,0,623.305-258.636Z" transform="translate(-530.4 265.5)" fill="#f3f9ff"/>
            </g>
          </g>
        </g>
        <g id="Grupo_58596" data-name="Grupo 58596" transform="translate(337.509 665.703)">
          <g id="Grupo_58592-2" data-name="Grupo 58592" transform="translate(0 154.641)">
            <g id="Grupo_53798-2" data-name="Grupo 53798" transform="translate(0 0)">
              <path id="Trazado_103987-2" data-name="Trazado 103987" d="M873.273,568.755a12.771,12.771,0,0,0,9.071-3.744l139.631-139.631a12.862,12.862,0,0,0,0-18.142L882.38,267.644a12.862,12.862,0,0,0-18.142,0L724.644,407.238a12.862,12.862,0,0,0,0,18.142L864.238,564.975A12.514,12.514,0,0,0,873.273,568.755Zm0-297.368a5.2,5.2,0,0,1,3.744,1.548L1016.647,412.53a5.255,5.255,0,0,1,1.548,3.744,5.194,5.194,0,0,1-1.548,3.744L877.053,559.612a5.255,5.255,0,0,1-3.744,1.548,5.2,5.2,0,0,1-3.744-1.548L729.971,420.017a5.255,5.255,0,0,1-1.548-3.744,5.194,5.194,0,0,1,1.548-3.744L869.53,272.935A5.255,5.255,0,0,1,873.273,271.387Z" transform="translate(-720.9 -263.9)" fill="#f3f9ff"/>
            </g>
          </g>
          <g id="Grupo_58593-2" data-name="Grupo 58593" transform="translate(218.895 150.79)">
            <g id="Grupo_53800-2" data-name="Grupo 53800" transform="translate(0 0)">
              <path id="Trazado_103988-2" data-name="Trazado 103988" d="M495.8,456.8a12.771,12.771,0,0,0,9.071-3.744l88.983-88.983a12.862,12.862,0,0,0,0-18.142l-88.983-88.984a12.862,12.862,0,0,0-18.142,0l-88.983,88.984a12.862,12.862,0,0,0,0,18.142l88.983,88.984A12.771,12.771,0,0,0,495.8,456.8Zm0-196.109a5.2,5.2,0,0,1,3.744,1.548l88.983,88.984a5.255,5.255,0,0,1,1.548,3.744,5.2,5.2,0,0,1-1.548,3.744l-88.983,88.984a5.255,5.255,0,0,1-3.744,1.548,5.2,5.2,0,0,1-3.744-1.548l-88.983-88.984a5.255,5.255,0,0,1-1.548-3.744,5.2,5.2,0,0,1,1.548-3.744l88.948-88.984A5.277,5.277,0,0,1,495.8,260.687Z" transform="translate(-394 -253.2)" fill="#f3f9ff"/>
            </g>
          </g>
          <g id="Grupo_58594-2" data-name="Grupo 58594" transform="translate(152.409 0)">
            <g id="Grupo_53802-2" data-name="Grupo 53802" transform="translate(0 0)">
              <path id="Trazado_103989-2" data-name="Trazado 103989" d="M623.273-79.722a11.651,11.651,0,0,0,8.276-3.415l81.214-81.182a11.651,11.651,0,0,0,3.415-8.276,11.651,11.651,0,0,0-3.415-8.276l-81.181-81.214a11.651,11.651,0,0,0-8.276-3.415,11.651,11.651,0,0,0-8.276,3.415L533.815-180.9a11.651,11.651,0,0,0-3.415,8.276,11.651,11.651,0,0,0,3.415,8.276L615-83.137A11.708,11.708,0,0,0,623.273-79.722Zm0-178.915a4.739,4.739,0,0,1,3.415,1.412L707.9-176.043a4.8,4.8,0,0,1,1.412,3.415,4.739,4.739,0,0,1-1.412,3.415L626.721-88a4.794,4.794,0,0,1-3.415,1.412A4.739,4.739,0,0,1,619.89-88l-81.181-81.181a4.794,4.794,0,0,1-1.412-3.415,4.739,4.739,0,0,1,1.412-3.415l81.149-81.214A4.794,4.794,0,0,1,623.273-258.636Z" transform="translate(-530.4 265.5)" fill="#f3f9ff"/>
            </g>
          </g>
        </g>
      </g>
    </g>
    <g id="Grupo_60207" data-name="Grupo 60207">
      <g id="Grupo_58463" data-name="Grupo 58463" transform="translate(647 825)">
        <g id="Grupo_58454" data-name="Grupo 58454">
          <g id="Grupo_58453" data-name="Grupo 58453" clip-path="url(#clip-path-2)">
            <path id="Trazado_119490" data-name="Trazado 119490" d="M232.344,215.218h178.4c16.383,0,24.587-19.807,13-31.391l-178.4-178.4c-11.584-11.584-31.391-3.379-31.391,13v178.4a18.389,18.389,0,0,0,18.389,18.389" transform="translate(50.113 0)" fill="#661bb1"/>
            <path id="Trazado_119491" data-name="Trazado 119491" d="M231.5,209.926a13.957,13.957,0,0,1-13.942-13.941V17.582A13.893,13.893,0,0,1,231.633,3.6a13.512,13.512,0,0,1,9.726,4.12l178.4,178.4a13.94,13.94,0,0,1-9.858,23.8Z" transform="translate(50.957 0.844)" fill="#d6c3ee"/>
            <path id="Trazado_119492" data-name="Trazado 119492" d="M217.663,215.218H39.259c-16.383,0-24.587-19.807-13-31.391l178.4-178.4c11.584-11.584,31.391-3.379,31.391,13v178.4a18.389,18.389,0,0,1-18.389,18.389" transform="translate(4.88 0)" fill="#77d1d4"/>
            <path id="Trazado_119493" data-name="Trazado 119493" d="M216.816,209.926a13.956,13.956,0,0,0,13.941-13.941V17.582A13.892,13.892,0,0,0,216.684,3.6a13.51,13.51,0,0,0-9.726,4.12l-178.4,178.4a13.941,13.941,0,0,0,9.858,23.8Z" transform="translate(5.727 0.844)" fill="#b6edee"/>
            <path id="Trazado_119494" data-name="Trazado 119494" d="M217.663,189.579H39.259c-16.383,0-24.587,19.807-13,31.391l178.4,178.4c11.584,11.583,31.391,3.379,31.391-13v-178.4a18.389,18.389,0,0,0-18.389-18.389" transform="translate(4.88 44.403)" fill="#661bb1"/>
            <path id="Trazado_119495" data-name="Trazado 119495" d="M216.816,193.182a13.956,13.956,0,0,1,13.941,13.941v178.4A13.892,13.892,0,0,1,216.684,399.5a13.51,13.51,0,0,1-9.726-4.12l-178.4-178.4a13.941,13.941,0,0,1,9.858-23.8Z" transform="translate(5.727 45.247)" fill="#d6c3ee"/>
            <path id="Trazado_119496" data-name="Trazado 119496" d="M232.344,189.579h178.4c16.383,0,24.587,19.807,13,31.391l-178.4,178.4c-11.584,11.583-31.391,3.379-31.391-13v-178.4a18.389,18.389,0,0,1,18.389-18.389" transform="translate(50.113 44.403)" fill="#77d1d4"/>
            <path id="Trazado_119497" data-name="Trazado 119497" d="M231.5,193.182a13.957,13.957,0,0,0-13.942,13.941v178.4A13.893,13.893,0,0,0,231.633,399.5a13.512,13.512,0,0,0,9.726-4.12l178.4-178.4a13.94,13.94,0,0,0-9.858-23.8Z" transform="translate(50.957 45.247)" fill="#b6edee"/>
            <path id="Trazado_119498" data-name="Trazado 119498" d="M454.043,135.313H217.56v-80.9H430.71a23.333,23.333,0,0,1,23.333,23.333Z" transform="translate(50.957 12.745)" fill="#efe7f7"/>
          </g>
        </g>
        <text id="Estrategias_de" data-name="Estrategias de" transform="translate(349.647 103.12)" font-size="19" font-family="Roboto-Regular, Roboto"><tspan x="0" y="0">Est</tspan><tspan y="0" letter-spacing="-0.019em">r</tspan><tspan y="0">ategias de</tspan></text>
        <text id="comunicación" transform="translate(350.298 124.102)" font-size="19" font-family="Roboto-Regular, Roboto"><tspan x="0" y="0">comunicación</tspan></text>
        <g id="Grupo_58456" data-name="Grupo 58456">
          <g id="Grupo_58455" data-name="Grupo 58455" clip-path="url(#clip-path-2)">
            <path id="Trazado_119499" data-name="Trazado 119499" d="M236.483,135.313H0V75.2A20.786,20.786,0,0,1,20.786,54.416h215.7Z" transform="translate(0 12.745)" fill="#d7f5f6"/>
          </g>
        </g>
        <text id="Objetivos_y" data-name="Objetivos y" transform="translate(46.463 103.12)" font-size="19" font-family="Roboto-Regular, Roboto"><tspan x="0" y="0">Objeti</tspan><tspan y="0" letter-spacing="-0.007em">v</tspan><tspan y="0">os y</tspan></text>
        <text id="metas" transform="translate(68.263 124.102)" font-size="19" font-family="Roboto-Regular, Roboto"><tspan x="0" y="0">metas</tspan></text>
        <path id="Trazado_119500" data-name="Trazado 119500" d="M0,243.994H236.483v80.9H23.333A23.333,23.333,0,0,1,0,301.558Z" transform="translate(0 57.148)" fill="#efe7f7"/>
        <path id="Trazado_119501" data-name="Trazado 119501" d="M217.559,243.994H454.042v60.111a20.786,20.786,0,0,1-20.786,20.786h-215.7Z" transform="translate(50.957 57.148)" fill="#efe7f7"/>
        <rect id="Rectángulo_5198" data-name="Rectángulo 5198" width="505" height="449.2" fill="none"/>
        <text id="Experiencias_para" data-name="Experiencias para" transform="translate(19.463 337.102)" font-size="19" font-family="Roboto-Regular, Roboto"><tspan x="0" y="0">Experiencias para</tspan></text>
        <text id="El_consumidor" data-name="El consumidor" transform="translate(39.263 358.084)" font-size="19" font-family="Roboto-Regular, Roboto"><tspan x="0" y="0">El consumidor</tspan></text>
        <g id="Grupo_58459" data-name="Grupo 58459" clip-path="url(#clip-path-2)">
          <path id="Trazado_119502" data-name="Trazado 119502" d="M354.748,213.372A126.372,126.372,0,1,0,228.375,339.745,126.372,126.372,0,0,0,354.748,213.372" transform="translate(23.891 20.377)" fill="#eaeaea"/>
          <path id="Trazado_119503" data-name="Trazado 119503" d="M346.456,212.049a119.4,119.4,0,1,0-119.4,119.4,119.4,119.4,0,0,0,119.4-119.4" transform="translate(25.35 21.7)" fill="#fff"/>
          <text id="Persuadir_o" data-name="Persuadir o" transform="translate(204 252.879)" font-size="19" font-family="Roboto-Medium, Roboto" font-weight="500"><tspan x="0" y="0" letter-spacing="-0.006em">P</tspan><tspan y="0">ersuadir o</tspan></text>
          <text id="convencer" transform="translate(208 272.623)" font-size="19" font-family="Roboto-Medium, Roboto" font-weight="500"><tspan x="0" y="0">con</tspan><tspan y="0" letter-spacing="-0.006em">v</tspan><tspan y="0">encer</tspan></text>
          <text id="al_público" data-name="al público" transform="translate(211 292.367)" font-size="19" font-family="Roboto-Medium, Roboto" font-weight="500"><tspan x="0" y="0">al público</tspan></text>
        </g>
        <text id="Creatividad" transform="translate(363.432 337.101)" font-size="19" font-family="Roboto-Regular, Roboto"><tspan x="0" y="0">C</tspan><tspan y="0" letter-spacing="-0.009em">r</tspan><tspan y="0">eatividad</tspan></text>
        <text id="para_las_ventas" data-name="para las ventas" transform="translate(345.724 358.083)" font-size="19" font-family="Roboto-Regular, Roboto"><tspan x="0" y="0">pa</tspan><tspan y="0" letter-spacing="-0.019em">r</tspan><tspan y="0">a las </tspan><tspan y="0" letter-spacing="-0.006em">v</tspan><tspan y="0">entas</tspan></text>
        <g id="Grupo_58462" data-name="Grupo 58462">
          <g id="Grupo_58461" data-name="Grupo 58461" clip-path="url(#clip-path-2)">
            <path id="Trazado_119504" data-name="Trazado 119504" d="M240.623,111.07l9.822,6.71-1.686-8.956-8.67,1.633" transform="translate(56.234 25.489)"/>
            <path id="Trazado_119505" data-name="Trazado 119505" d="M170.926,111.07l-9.822,6.71,1.686-8.956,8.67,1.633" transform="translate(37.734 25.489)"/>
            <path id="Trazado_119506" data-name="Trazado 119506" d="M170.926,268.96l-9.822-6.71,1.686,8.955,8.67-1.633" transform="translate(37.734 61.424)"/>
            <path id="Trazado_119507" data-name="Trazado 119507" d="M240.623,268.96l9.822-6.71-1.686,8.955-8.67-1.633" transform="translate(56.234 61.424)"/>
          </g>
        </g>
      </g>
    </g>
  </g>
</svg>
