<svg xmlns="http://www.w3.org/2000/svg" xmlns:xlink="http://www.w3.org/1999/xlink" width="62" height="62" viewBox="0 0 62 62">
  <defs>
    <clipPath id="clip-path">
      <path id="Trazado_119441" data-name="Trazado 119441" d="M31,0A31,31,0,1,1,0,31,31,31,0,0,1,31,0Z" transform="translate(-5872 -10153)" fill="#e4d0f1"/>
    </clipPath>
  </defs>
  <g id="Enmascarar_grupo_52" data-name="Enmascarar grupo 52" transform="translate(5872 10153)" clip-path="url(#clip-path)">
    <g id="caja" transform="translate(-5872 -10153)">
      <circle id="Elipse_4070" data-name="Elipse 4070" cx="31" cy="31" r="31" fill="#e4d0f1"/>
      <path id="Trazado_119480" data-name="Trazado 119480" d="M62,31.363,45.238,14.606,31.375,28.469l-1.047-1.047L10.356,47.394,24.215,61.253A31.017,31.017,0,0,0,62,31.363Z" fill="#c69ee0"/>
      <path id="Trazado_119481" data-name="Trazado 119481" d="M18.6,14.606V32.194l-.547.75.547.931v7.371h13.32L35.476,22.16l-6.292-7.554Z" fill="#e8a354"/>
      <path id="Trazado_119482" data-name="Trazado 119482" d="M45.238,14.606H34.652l-2.734,7.753V41.247h13.32Z" fill="#e6973e"/>
      <path id="Trazado_119483" data-name="Trazado 119483" d="M29.184,14.606v9.505l2.734-1.753,1.174-4.09-1.174-3.663Z" fill="#f7e46f"/>
      <path id="Trazado_119484" data-name="Trazado 119484" d="M34.652,14.606H31.918v7.753l2.734,1.753Z" fill="#f5db48"/>
      <path id="Trazado_119485" data-name="Trazado 119485" d="M26.156,40.306v-.968h5.762l1.4-2.914-1.4-2.549H18.6l-1.951,5.919L18.6,45.713h13.32l1.4-2.621-1.4-2.785Z" fill="#ffbda9"/>
      <path id="Trazado_119486" data-name="Trazado 119486" d="M43.243,45.707l7.8-10.255a3.335,3.335,0,0,0,0-3.823,1.73,1.73,0,0,0-2.907,0l-6.6,8.677H31.918v5.407H43.244v-.006Z" fill="#f9a58d"/>
      <path id="Trazado_119487" data-name="Trazado 119487" d="M36.951,39.338a2.077,2.077,0,0,0,2.077-2.077V35.953a2.077,2.077,0,0,0-2.077-2.077H31.918v5.463Z" fill="#f9a58d"/>
      <path id="Trazado_119488" data-name="Trazado 119488" d="M10.356,32.194H18.6v15.2H10.356Z" fill="#ff633d"/>
    </g>
  </g>
</svg>
