<svg xmlns="http://www.w3.org/2000/svg" width="94" height="51.089" viewBox="0 0 94 51.089">
  <g id="Grupo_58774" data-name="Grupo 58774" transform="translate(-618 -5274.911)">
    <path id="Rectángulo_5326" data-name="Rectángulo 5326" d="M14,0H83A11,11,0,0,1,94,11V21a0,0,0,0,1,0,0H0a0,0,0,0,1,0,0V14A14,14,0,0,1,14,0Z" transform="translate(618 5305)" fill="#fff"/>
    <g id="negocios-en-linea" transform="translate(636 5274.911)">
      <g id="Grupo_58651" data-name="Grupo 58651" transform="translate(4.007 0)">
        <g id="Grupo_58643" data-name="Grupo 58643">
          <path id="Trazado_119637" data-name="Trazado 119637" d="M102.094,114.059H48V84.007A4.007,4.007,0,0,1,52.007,80h46.08a4.007,4.007,0,0,1,4.007,4.007Z" transform="translate(-48 -80)" fill="#463c4b"/>
        </g>
        <g id="Grupo_58644" data-name="Grupo 58644">
          <path id="Trazado_119638" data-name="Trazado 119638" d="M98.087,114.059H48V84.007A4.007,4.007,0,0,1,52.007,80H94.08a4.007,4.007,0,0,1,4.007,4.007Z" transform="translate(-48 -80)" fill="#555a6e"/>
        </g>
        <g id="Grupo_58645" data-name="Grupo 58645" transform="translate(0 34.059)">
          <path id="Trazado_119639" data-name="Trazado 119639" d="M52.007,360.014h46.08a4.007,4.007,0,0,0,4.007-4.007V352H48v4.007A4.007,4.007,0,0,0,52.007,360.014Z" transform="translate(-48 -352)" fill="#a5c3dc"/>
        </g>
        <g id="Grupo_58646" data-name="Grupo 58646" transform="translate(0 34.059)">
          <path id="Trazado_119640" data-name="Trazado 119640" d="M94.08,360.014H52.007A4.007,4.007,0,0,1,48,356.007V352H98.087v4.007A4.007,4.007,0,0,1,94.08,360.014Z" transform="translate(-48 -352)" fill="#d7e6f0"/>
        </g>
        <g id="Grupo_58647" data-name="Grupo 58647" transform="translate(21.037 42.073)">
          <path id="Trazado_119641" data-name="Trazado 119641" d="M216,416h9.016v4.007H216Z" transform="translate(-216 -416)" fill="#a5c3dc"/>
        </g>
        <g id="Grupo_58648" data-name="Grupo 58648" transform="translate(21.037 44.077)">
          <path id="Trazado_119642" data-name="Trazado 119642" d="M216,432h6.01v2H216Z" transform="translate(-216 -432)" fill="#d7e6f0"/>
        </g>
        <g id="Grupo_58649" data-name="Grupo 58649" transform="translate(15.026 46.08)">
          <path id="Trazado_119643" data-name="Trazado 119643" d="M188.035,451.005H168v-1a2,2,0,0,1,2-2h16.028a2,2,0,0,1,2,2Z" transform="translate(-168 -448)" fill="#d7e6f0"/>
        </g>
        <g id="Grupo_58650" data-name="Grupo 58650" transform="translate(29.05 46.08)">
          <path id="Trazado_119644" data-name="Trazado 119644" d="M286.01,451.005H280v-1a2,2,0,0,1,2-2h2a2,2,0,0,1,2,2Z" transform="translate(-280 -448)" fill="#a5c3dc"/>
        </g>
      </g>
      <g id="Grupo_58652" data-name="Grupo 58652" transform="translate(4.007 4.007)">
        <path id="Trazado_119645" data-name="Trazado 119645" d="M48,112v6.01a5.009,5.009,0,0,0,10.017,0,5.009,5.009,0,0,0,10.017,0,5.009,5.009,0,0,0,10.017,0,5.009,5.009,0,0,0,10.017,0,5.009,5.009,0,0,0,10.017,0V112Z" transform="translate(-48 -112)" fill="#463c4b"/>
      </g>
      <g id="Grupo_58653" data-name="Grupo 58653" transform="translate(40.07 8.014)">
        <path id="Trazado_119646" data-name="Trazado 119646" d="M341.009,149.009A5.009,5.009,0,0,0,346.017,144H336A5.009,5.009,0,0,0,341.009,149.009Z" transform="translate(-336 -144)" fill="#2387c3"/>
      </g>
      <g id="Grupo_58654" data-name="Grupo 58654" transform="translate(40.07 4.007)">
        <path id="Trazado_119647" data-name="Trazado 119647" d="M346.017,116.007H336A4.007,4.007,0,0,1,340.007,112h10.017A4.007,4.007,0,0,0,346.017,116.007Z" transform="translate(-336 -112)" fill="#5ad7ff"/>
      </g>
      <g id="Grupo_58655" data-name="Grupo 58655" transform="translate(30.052 8.014)">
        <path id="Trazado_119648" data-name="Trazado 119648" d="M261.009,149.009A5.009,5.009,0,0,0,266.017,144H256A5.009,5.009,0,0,0,261.009,149.009Z" transform="translate(-256 -144)" fill="#9b5faa"/>
      </g>
      <g id="Grupo_58656" data-name="Grupo 58656" transform="translate(30.052 4.007)">
        <path id="Trazado_119649" data-name="Trazado 119649" d="M266.017,116.007H256A4.007,4.007,0,0,1,260.007,112h10.017A4.007,4.007,0,0,0,266.017,116.007Z" transform="translate(-256 -112)" fill="#ab6ed6"/>
      </g>
      <g id="Grupo_58657" data-name="Grupo 58657" transform="translate(20.035 8.014)">
        <path id="Trazado_119650" data-name="Trazado 119650" d="M181.009,149.009A5.009,5.009,0,0,0,186.017,144H176A5.009,5.009,0,0,0,181.009,149.009Z" transform="translate(-176 -144)" fill="#2387c3"/>
      </g>
      <g id="Grupo_58658" data-name="Grupo 58658" transform="translate(20.035 4.007)">
        <path id="Trazado_119651" data-name="Trazado 119651" d="M186.017,116.007H176A4.007,4.007,0,0,1,180.007,112h10.017A4.007,4.007,0,0,0,186.017,116.007Z" transform="translate(-176 -112)" fill="#5ad7ff"/>
      </g>
      <g id="Grupo_58659" data-name="Grupo 58659" transform="translate(10.017 8.014)">
        <path id="Trazado_119652" data-name="Trazado 119652" d="M101.009,149.009A5.009,5.009,0,0,0,106.017,144H96A5.009,5.009,0,0,0,101.009,149.009Z" transform="translate(-96 -144)" fill="#9b5faa"/>
      </g>
      <g id="Grupo_58660" data-name="Grupo 58660" transform="translate(10.017 4.007)">
        <path id="Trazado_119653" data-name="Trazado 119653" d="M106.017,116.007H96A4.007,4.007,0,0,1,100.007,112h10.017A4.007,4.007,0,0,0,106.017,116.007Z" transform="translate(-96 -112)" fill="#ab6ed6"/>
      </g>
      <g id="Grupo_58661" data-name="Grupo 58661" transform="translate(0 8.014)">
        <path id="Trazado_119654" data-name="Trazado 119654" d="M21.009,149.009A5.009,5.009,0,0,0,26.017,144H16A5.009,5.009,0,0,0,21.009,149.009Z" transform="translate(-16 -144)" fill="#2387c3"/>
      </g>
      <g id="Grupo_58662" data-name="Grupo 58662" transform="translate(0 4.007)">
        <path id="Trazado_119655" data-name="Trazado 119655" d="M26.017,116.007H16A4.007,4.007,0,0,1,20.007,112H30.024A4.007,4.007,0,0,0,26.017,116.007Z" transform="translate(-16 -112)" fill="#5ad7ff"/>
      </g>
      <g id="Grupo_58666" data-name="Grupo 58666" transform="translate(15.026 14.898)">
        <g id="Grupo_58663" data-name="Grupo 58663" transform="translate(0 0.128)">
          <path id="Trazado_119656" data-name="Trazado 119656" d="M152.028,224.042h-4.007a12.021,12.021,0,0,1,0-24.042h4.007a12.021,12.021,0,0,1,0,24.042Z" transform="translate(-136 -200)" fill="#2387c3"/>
        </g>
        <g id="Grupo_58664" data-name="Grupo 58664" transform="translate(0.38 0)">
          <ellipse id="Elipse_4072" data-name="Elipse 4072" cx="11.783" cy="12.176" rx="11.783" ry="12.176" fill="#5ad7ff"/>
        </g>
        <g id="Grupo_58665" data-name="Grupo 58665" transform="translate(2.737 3.143)">
          <circle id="Elipse_4073" data-name="Elipse 4073" cx="9.034" cy="9.034" r="9.034" transform="translate(0 0)" fill="#2387c3"/>
        </g>
        <path id="Trazado_119657" data-name="Trazado 119657" d="M207.012,239.012a1,1,0,0,0,1-1v-.677a3.335,3.335,0,0,0-3.005-3.314V233a1,1,0,1,0-2,0v1.018a3.33,3.33,0,0,0-.728,6.474l2.826.942a1.327,1.327,0,0,1-.419,2.586H203.33A1.328,1.328,0,0,1,202,242.694v-.676a1,1,0,0,0-2,0v.677a3.335,3.335,0,0,0,3.005,3.314v1.018a1,1,0,1,0,2,0v-1.018a3.33,3.33,0,0,0,.728-6.474l-2.826-.942a1.327,1.327,0,0,1,.419-2.586h1.353a1.328,1.328,0,0,1,1.327,1.327v.676a1,1,0,0,0,1,1Z" transform="translate(-191.986 -227.865)" fill="#d7e6f0"/>
      </g>
    </g>
  </g>
</svg>
