<svg xmlns="http://www.w3.org/2000/svg" xmlns:xlink="http://www.w3.org/1999/xlink" width="1030" height="409.338" viewBox="0 0 1030 409.338">
  <defs>
    <clipPath id="clip-path">
      <rect id="Rectángulo_5322" data-name="Rectángulo 5322" width="189" height="110.734" fill="#7714b7"/>
    </clipPath>
  </defs>
  <g id="Grupo_58641" data-name="Grupo 58641" transform="translate(-285 -4670.329)">
    <g id="Grupo_58639" data-name="Grupo 58639" transform="translate(0 -5.502)">
      <path id="Trazado_119635" data-name="Trazado 119635" d="M215.65,306.3a45.7,45.7,0,0,0-5.792.371,48.663,48.663,0,0,0,.3-5.288A53.283,53.283,0,0,0,106.1,285.2c-1.622-.142-3.147-.214-4.623-.214a56.544,56.544,0,0,0,0,113.088H215.65a45.888,45.888,0,0,0,0-91.776" transform="translate(360.564 4456.684)" fill="#d2e1f1" opacity="0.35"/>
      <path id="Trazado_119636" data-name="Trazado 119636" d="M215.65,306.3a45.7,45.7,0,0,0-5.792.371,48.663,48.663,0,0,0,.3-5.288A53.283,53.283,0,0,0,106.1,285.2c-1.622-.142-3.147-.214-4.623-.214a56.544,56.544,0,0,0,0,113.088H215.65a45.888,45.888,0,0,0,0-91.776" transform="translate(765.065 4658.684)" fill="#d2e1f1" opacity="0.35"/>
      <g id="Grupo_58638" data-name="Grupo 58638">
        <g id="Grupo_58630" data-name="Grupo 58630" transform="translate(632.996 4764)">
          <path id="Trazado_119583" data-name="Trazado 119583" d="M9.5,0V62.169H264.727l15.629-31.085L264.727,0Z" transform="translate(0)" fill="#ccf6f7"/>
          <path id="Trazado_119584" data-name="Trazado 119584" d="M184.066,0l12.219,31.085L184.066,62.169h7.325l13.034-31.085L191.391,0Z" transform="translate(89.898)" fill="#ccf6f7"/>
          <path id="Trazado_119585" data-name="Trazado 119585" d="M196.9,0l12.219,31.085L196.9,62.169h5.445l13.035-31.085L202.342,0Z" transform="translate(89.128)" fill="#ccf6f7"/>
        </g>
        <g id="Grupo_58632" data-name="Grupo 58632" transform="translate(632.996 4850)">
          <path id="Trazado_119583-2" data-name="Trazado 119583" d="M9.5,0V62.169H264.727l15.629-31.085L264.727,0Z" transform="translate(0)" fill="#ccf6f7"/>
          <path id="Trazado_119584-2" data-name="Trazado 119584" d="M184.066,0l12.219,31.085L184.066,62.169h7.325l13.034-31.085L191.391,0Z" transform="translate(89.898)" fill="#ccf6f7"/>
          <path id="Trazado_119585-2" data-name="Trazado 119585" d="M196.9,0l12.219,31.085L196.9,62.169h5.445l13.035-31.085L202.342,0Z" transform="translate(89.128)" fill="#ccf6f7"/>
        </g>
        <g id="Grupo_58633" data-name="Grupo 58633" transform="translate(632.996 4936)">
          <path id="Trazado_119583-3" data-name="Trazado 119583" d="M9.5,0V62.169H264.727l15.629-31.085L264.727,0Z" transform="translate(0)" fill="#ccf6f7"/>
          <path id="Trazado_119584-3" data-name="Trazado 119584" d="M184.066,0l12.219,31.085L184.066,62.169h7.325l13.034-31.085L191.391,0Z" transform="translate(89.898)" fill="#ccf6f7"/>
          <path id="Trazado_119585-3" data-name="Trazado 119585" d="M196.9,0l12.219,31.085L196.9,62.169h5.445l13.035-31.085L202.342,0Z" transform="translate(89.128)" fill="#ccf6f7"/>
        </g>
        <g id="Grupo_58634" data-name="Grupo 58634" transform="translate(632.996 5023)">
          <path id="Trazado_119583-4" data-name="Trazado 119583" d="M9.5,0V62.169H264.727l15.629-31.085L264.727,0Z" transform="translate(0)" fill="#ccf6f7"/>
          <path id="Trazado_119584-4" data-name="Trazado 119584" d="M184.066,0l12.219,31.085L184.066,62.169h7.325l13.034-31.085L191.391,0Z" transform="translate(89.898)" fill="#ccf6f7"/>
          <path id="Trazado_119585-4" data-name="Trazado 119585" d="M196.9,0l12.219,31.085L196.9,62.169h5.445l13.035-31.085L202.342,0Z" transform="translate(89.128)" fill="#ccf6f7"/>
        </g>
        <g id="Grupo_58631" data-name="Grupo 58631" transform="translate(632.996 4675.831)">
          <path id="Trazado_119583-5" data-name="Trazado 119583" d="M9.5,0V62.169H264.727l15.629-31.085L264.727,0Z" transform="translate(0)" fill="#ccf6f7"/>
          <path id="Trazado_119584-5" data-name="Trazado 119584" d="M184.066,0l12.219,31.085L184.066,62.169h7.325l13.034-31.085L191.391,0Z" transform="translate(89.898)" fill="#ccf6f7"/>
          <path id="Trazado_119585-5" data-name="Trazado 119585" d="M196.9,0l12.219,31.085L196.9,62.169h5.445l13.035-31.085L202.342,0Z" transform="translate(89.128)" fill="#ccf6f7"/>
        </g>
        <g id="Grupo_58635" data-name="Grupo 58635" transform="translate(14.472 56.415)">
          <text id="Consejos_para_omnicanalidad" data-name="Consejos para omnicanalidad" transform="translate(285 4850)" fill="#7714b7" font-size="18" font-family="Roboto-Bold, Roboto" font-weight="700"><tspan x="47.574" y="19">Consejos para </tspan><tspan x="45.816" y="39">omnicanalidad</tspan></text>
        </g>
        <text id="Responder_a_los_clientes" data-name="Responder a los clientes" transform="translate(643.5 4699)" fill="#12263f" font-size="16" font-family="Roboto-Regular, Roboto"><tspan x="-86.832" y="17">Responder a los clientes</tspan></text>
        <text id="Usar_la_misma_información_en_los_canales_" data-name="Usar la misma información en los canales " transform="translate(681.5 4776)" fill="#12263f" font-size="16" font-family="Roboto-Regular, Roboto"><tspan x="-95.918" y="17">Usar la misma información </tspan><tspan x="-50.852" y="37">en los canales </tspan></text>
        <text id="Agregar_preguntas_en_los_canales" data-name="Agregar preguntas en los canales" transform="translate(642.5 4871)" fill="#12263f" font-size="16" font-family="Roboto-Regular, Roboto"><tspan x="-118.848" y="17">Agregar preguntas en los canales</tspan></text>
        <text id="Revisar_la_información_recibida" data-name="Revisar la información recibida" transform="translate(642.5 4958)" fill="#12263f" font-size="16" font-family="Roboto-Regular, Roboto"><tspan x="-109.586" y="17">Revisar la información recibida</tspan></text>
        <text id="No_descuidar_los_otros_canales" data-name="No descuidar los otros canales" transform="translate(642.5 5045)" fill="#12263f" font-size="16" font-family="Roboto-Regular, Roboto"><tspan x="-109.902" y="17">No descuidar los otros canales</tspan></text>
        <path id="Trazado_119586" data-name="Trazado 119586" d="M9.5,0V62.169H264.727l15.629-31.085L264.727,0Z" transform="translate(1324.504 4739.169) rotate(180)" fill="#fde6fc"/>
        <path id="Trazado_119587" data-name="Trazado 119587" d="M9.5,0V62.169H264.727l15.629-31.085L264.727,0Z" transform="translate(1324.504 4826.169) rotate(180)" fill="#fde6fc"/>
        <path id="Trazado_119588" data-name="Trazado 119588" d="M9.5,0V62.169H264.727l15.629-31.085L264.727,0Z" transform="translate(1324.356 4911.169) rotate(180)" fill="#fde6fc"/>
        <path id="Trazado_119589" data-name="Trazado 119589" d="M9.5,0V62.169H264.727l15.629-31.085L264.727,0Z" transform="translate(1324.504 4998.169) rotate(180)" fill="#fde6fc"/>
        <path id="Trazado_119590" data-name="Trazado 119590" d="M9.5,0V62.169H264.727l15.629-31.085L264.727,0Z" transform="translate(1324.504 5085.169) rotate(180)" fill="#fde6fc"/>
        <text id="Publicidad" transform="translate(1061 4786)" fill="#12263f" font-size="16" font-family="Roboto-Regular, Roboto"><tspan x="-37.332" y="17">Publicidad</tspan></text>
        <text id="Conocer_las_opiniones_de_los_clientes" data-name="Conocer las opiniones de los clientes" transform="translate(1090 4861.416)" fill="#12263f" font-size="16" font-family="Roboto-Regular, Roboto"><tspan x="-78.945" y="17">Conocer las opiniones </tspan><tspan x="-51.039" y="37">de los clientes</tspan></text>
        <text id="Las_bases_de_datos_diarios" data-name="Las bases de datos diarios" transform="translate(1061 4958)" fill="#12263f" font-size="16" font-family="Roboto-Regular, Roboto"><tspan x="-95.008" y="17">Las bases de datos diarios</tspan></text>
        <text id="_-_Publicidad_tradicional_-_Tienda_Física" data-name="- Publicidad tradicional 
- Tienda Física" transform="translate(1061 5035)" fill="#12263f" font-size="16" font-family="Roboto-Regular, Roboto"><tspan x="-80.867" y="17">- Publicidad tradicional </tspan><tspan x="-51.246" y="37">- Tienda Física</tspan></text>
        <text id="Preguntas_y_dudas" data-name="Preguntas y dudas" transform="translate(1061 4698.416)" fill="#12263f" font-size="16" font-family="Roboto-Regular, Roboto"><tspan x="-66.051" y="17">Preguntas y dudas</tspan></text>
        <path id="Trazado_119591" data-name="Trazado 119591" d="M-7346.512-6818.916H-7289l20-172.33h35.981" transform="translate(7869 11700)" fill="none" stroke="#89858b" stroke-width="1.5" stroke-dasharray="5"/>
        <path id="Trazado_119592" data-name="Trazado 119592" d="M-7233.019-6645.5H-7269l-20-173.94" transform="translate(7869 11700)" fill="none" stroke="#89858b" stroke-width="1.5" stroke-dasharray="5"/>
        <path id="Trazado_119593" data-name="Trazado 119593" d="M-7233.019-6900.209H-7269l-20,80.644" transform="translate(7869 11700)" fill="none" stroke="#89858b" stroke-width="1.5" stroke-dasharray="5"/>
        <path id="Trazado_119594" data-name="Trazado 119594" d="M-7233.019-6732.47H-7269l-20-87.167h55.981" transform="translate(7869 11700)" fill="none" stroke="#89858b" stroke-width="1.5" stroke-dasharray="5"/>
        <path id="Trazado_119595" data-name="Trazado 119595" d="M-6921.284-6991.5h96.432" transform="translate(7869 11700)" fill="none" stroke="#707070" stroke-width="1"/>
        <path id="Trazado_119596" data-name="Trazado 119596" d="M-6921.284-6991.5h96.432" transform="translate(7869 11787)" fill="none" stroke="#707070" stroke-width="1"/>
        <path id="Trazado_119597" data-name="Trazado 119597" d="M-6921.284-6991.5h96.432" transform="translate(7869 11872)" fill="none" stroke="#707070" stroke-width="1"/>
        <path id="Trazado_119598" data-name="Trazado 119598" d="M-6921.284-6991.5h96.432" transform="translate(7869 11959)" fill="none" stroke="#707070" stroke-width="1"/>
        <path id="Trazado_119599" data-name="Trazado 119599" d="M-6921.284-6991.5h96.432" transform="translate(7869 12046)" fill="none" stroke="#707070" stroke-width="1"/>
        <g id="Grupo_58640" data-name="Grupo 58640" transform="translate(306 4783.523)">
          <g id="Grupo_58636" data-name="Grupo 58636" transform="translate(1 -6)" clip-path="url(#clip-path)">
            <path id="Trazado_119600" data-name="Trazado 119600" d="M1104.676,623.455a16.162,16.162,0,1,1,16.163-16.162,16.181,16.181,0,0,1-16.163,16.162m0-29.156a12.994,12.994,0,1,0,12.994,12.993,13.008,13.008,0,0,0-12.994-12.993" transform="translate(-951.361 -516.648)" fill="#7714b7"/>
            <path id="Trazado_119601" data-name="Trazado 119601" d="M1308.861,170.52a12.851,12.851,0,1,1,12.851-12.852,12.866,12.866,0,0,1-12.851,12.852m0-22.534a9.683,9.683,0,1,0,9.682,9.683,9.694,9.694,0,0,0-9.682-9.683" transform="translate(-1132.713 -126.57)" fill="#7714b7"/>
            <path id="Trazado_119602" data-name="Trazado 119602" d="M14.859,215.572a14.859,14.859,0,1,1,14.859-14.859,14.876,14.876,0,0,1-14.859,14.859m0-26.549a11.69,11.69,0,1,0,11.69,11.69,11.7,11.7,0,0,0-11.69-11.69" transform="translate(0 -162.436)" fill="#7714b7"/>
            <path id="Trazado_119603" data-name="Trazado 119603" d="M204.874,726.922a10.951,10.951,0,1,1,10.951-10.951,10.963,10.963,0,0,1-10.951,10.951m0-18.733a7.782,7.782,0,1,0,7.782,7.782,7.791,7.791,0,0,0-7.782-7.782" transform="translate(-169.489 -616.188)" fill="#7714b7"/>
            <path id="Trazado_119604" data-name="Trazado 119604" d="M346.5,558.737a5.388,5.388,0,1,1,5.388-5.388,5.394,5.394,0,0,1-5.388,5.388m0-7.607a2.219,2.219,0,1,0,2.219,2.219,2.221,2.221,0,0,0-2.219-2.219" transform="translate(-298.13 -478.918)" fill="#7714b7"/>
            <path id="Trazado_119605" data-name="Trazado 119605" d="M30.7,481.514a3.012,3.012,0,1,1-3.012-3.012,3.012,3.012,0,0,1,3.012,3.012" transform="translate(-21.569 -418.212)" fill="#7714b7"/>
            <path id="Trazado_119606" data-name="Trazado 119606" d="M692.179,771.042a3.012,3.012,0,1,1-3.011-3.012,3.012,3.012,0,0,1,3.011,3.012" transform="translate(-599.7 -671.259)" fill="#7714b7"/>
            <path id="Trazado_119607" data-name="Trazado 119607" d="M1302.121,461.869a3.012,3.012,0,1,1-3.011-3.012,3.012,3.012,0,0,1,3.011,3.012" transform="translate(-1132.79 -401.041)" fill="#7714b7"/>
            <path id="Trazado_119608" data-name="Trazado 119608" d="M1107.283,3.012A3.011,3.011,0,1,1,1104.272,0a3.012,3.012,0,0,1,3.011,3.012" transform="translate(-962.501)" fill="#7714b7"/>
            <path id="Trazado_119609" data-name="Trazado 119609" d="M306.521,3.012A3.012,3.012,0,1,1,303.51,0a3.012,3.012,0,0,1,3.011,3.012" transform="translate(-262.635)" fill="#7714b7"/>
            <path id="Trazado_119610" data-name="Trazado 119610" d="M723.151,112.436a3.012,3.012,0,1,1-3.012-3.012,3.012,3.012,0,0,1,3.012,3.012" transform="translate(-626.77 -95.637)" fill="#7714b7"/>
            <path id="Trazado_119611" data-name="Trazado 119611" d="M275.669,615.8a3.012,3.012,0,1,1-3.012-3.011,3.012,3.012,0,0,1,3.012,3.011" transform="translate(-235.671 -535.581)" fill="#7714b7"/>
            <rect id="Rectángulo_5315" data-name="Rectángulo 5315" width="3.169" height="21.52" transform="matrix(0.505, -0.863, 0.863, 0.505, 121.597, 73.386)" fill="#7714b7"/>
            <rect id="Rectángulo_5316" data-name="Rectángulo 5316" width="45.146" height="3.169" transform="translate(121.519 48.476) rotate(-18.292)" fill="#7714b7"/>
            <rect id="Rectángulo_5317" data-name="Rectángulo 5317" width="3.169" height="35.621" transform="matrix(0.287, -0.958, 0.958, 0.287, 27.285, 43.011)" fill="#7714b7"/>
            <rect id="Rectángulo_5318" data-name="Rectángulo 5318" width="10.461" height="3.169" transform="translate(51.299 70.933) rotate(-12.188)" fill="#7714b7"/>
            <rect id="Rectángulo_5319" data-name="Rectángulo 5319" width="28.171" height="3.169" transform="translate(42.798 93.827) rotate(-28.874)" fill="#7714b7"/>
            <path id="Trazado_119613" data-name="Trazado 119613" d="M529.767,109.925A5.388,5.388,0,1,1,524.8,115.7a5.394,5.394,0,0,1,4.968-5.778m.572,7.585a2.219,2.219,0,1,0-2.38-2.046,2.222,2.222,0,0,0,2.38,2.046" transform="translate(-458.662 -96.061)" fill="#7714b7"/>
            <rect id="Rectángulo_5321" data-name="Rectángulo 5321" width="3.169" height="10.066" transform="translate(71.825 23.693) rotate(-29.094)" fill="#7714b7"/>
            <path id="Trazado_119614" data-name="Trazado 119614" d="M914.961,35.633a5.388,5.388,0,1,1-7.477-1.467,5.394,5.394,0,0,1,7.477,1.467m-6.314,4.243a2.219,2.219,0,1,0,.6-3.08,2.221,2.221,0,0,0-.6,3.08" transform="translate(-791.06 -29.062)" fill="#7714b7"/>
            <path id="Trazado_119615" data-name="Trazado 119615" d="M845.912,97.281l-10.83,18.6-2.707-1.647,10.83-18.6Z" transform="translate(-727.496 -83.584)" fill="#7714b7"/>
            <path id="Trazado_119616" data-name="Trazado 119616" d="M887.3,287.678l3.574-.253a33.77,33.77,0,0,0-13.538-21.69l-1.875,3.042a30.2,30.2,0,0,1,11.839,18.9" transform="translate(-765.154 -232.252)" fill="#7714b7"/>
            <path id="Trazado_119617" data-name="Trazado 119617" d="M598.95,218.713a29.991,29.991,0,0,1,17.829,5.851l1.875-3.042a33.649,33.649,0,0,0-39.168-.175l2.3,2.744a29.983,29.983,0,0,1,17.167-5.378" transform="translate(-506.472 -188.039)" fill="#7714b7"/>
            <path id="Trazado_119618" data-name="Trazado 119618" d="M519.184,267.092l-2.3-2.743a33.989,33.989,0,0,0-9.025,9.5l3.089,1.787a30.4,30.4,0,0,1,8.233-8.547" transform="translate(-443.872 -231.041)" fill="#7714b7"/>
            <path id="Trazado_119619" data-name="Trazado 119619" d="M533.308,352.137l-3.574.253a30.157,30.157,0,1,1-55.068-10.827l-3.088-1.787a33.711,33.711,0,1,0,61.73,12.361" transform="translate(-407.587 -296.964)" fill="#7714b7"/>
            <path id="Trazado_119620" data-name="Trazado 119620" d="M248.247,752.694a.33.33,0,0,0-.26-.325L246.8,752.1l.65-1.026a.331.331,0,0,0-.046-.413l-1.538-1.541a.339.339,0,0,0-.414-.046l-1.023.65-.264-1.185a.33.33,0,0,0-.325-.26h-2.175a.33.33,0,0,0-.325.26l-.264,1.185-1.022-.65a.338.338,0,0,0-.415.045l-1.538,1.541a.332.332,0,0,0-.045.413l.65,1.025-1.183.265a.331.331,0,0,0-.26.325v2.179a.33.33,0,0,0,.26.325l1.183.265-.65,1.026a.331.331,0,0,0,.045.413l1.538,1.54a.338.338,0,0,0,.414.046l1.023-.651.264,1.185a.335.335,0,0,0,.325.261h2.175a.33.33,0,0,0,.324-.26l.264-1.185,1.023.651a.339.339,0,0,0,.414-.046l1.537-1.54a.335.335,0,0,0,.046-.414l-.65-1.026,1.183-.265a.331.331,0,0,0,.26-.325Zm-5.5,3.52h0l-.031,0a2.286,2.286,0,0,1,0-4.57l.041,0h.008a2.287,2.287,0,0,1-.014,4.574" transform="translate(-207.373 -654)" fill="#7714b7"/>
            <path id="Trazado_119621" data-name="Trazado 119621" d="M1344.344,193.849c-4.266,0-7.736,2.726-7.736,6.076s3.47,6.076,7.736,6.076c.223,0,.453-.008.685-.025l.608,1.469a.347.347,0,0,0,.264.212.324.324,0,0,0,.062.006.353.353,0,0,0,.262-.117l2.215-2.465a5.889,5.889,0,0,0,3.64-5.156c0-3.35-3.47-6.076-7.736-6.076m-2.9,7.637a.925.925,0,1,1,.925-.925.926.926,0,0,1-.925.925m2.92,0a.925.925,0,1,1,.925-.925.926.926,0,0,1-.925.925m2.785,0a.925.925,0,1,1,.925-.925.926.926,0,0,1-.925.925" transform="translate(-1168.195 -169.424)" fill="#7714b7"/>
            <path id="Trazado_119622" data-name="Trazado 119622" d="M648.38,418.552l10.971-4.424a.724.724,0,0,0,.411-.916l-.154-.428a.21.21,0,0,1,.032-.2c2.2-2.885.7-6.727.7-6.727l-2.21-5.649-.009-.027c-.042-.194-.661-2.883-2.666-2.883a2.526,2.526,0,0,0-2.138.953.215.215,0,0,1-.385-.07c-.138-.58-.6-1.313-2-1.472a2.089,2.089,0,0,0-2.424,1.332.211.211,0,0,1-.386.019c-.5-1.045-1.578-2.256-2.934-1.8a2.448,2.448,0,0,0-1.554,1.365.213.213,0,0,1-.4,0l-2.256-5.8s-1.085-3.482-3.347-2.623-1.04,3.844-1.04,3.844l5.208,13.758a.214.214,0,0,1-.311.259l-2.484-1.5-.026-.018c-.18-.157-2.809-2.393-4.468-.647s.167,3.647.308,3.79l.023.019,12.333,8.957.068.082.207.441a.724.724,0,0,0,.926.364" transform="translate(-553.964 -340.046)" fill="#7714b7"/>
            <path id="Trazado_119623" data-name="Trazado 119623" d="M759.278,598.627l-2.473-5.564a.813.813,0,0,0-1.047-.424l-12.108,4.875a.813.813,0,0,0-.435,1.094l2.516,5.459a.813.813,0,0,0,1.037.416l12.064-4.771a.813.813,0,0,0,.444-1.086" transform="translate(-649.506 -517.915)" fill="#7714b7"/>
            <path id="Trazado_119624" data-name="Trazado 119624" d="M623.692,309.648a1.447,1.447,0,1,0,2.7-1.04l-1.512-3.926a1.447,1.447,0,0,0-2.7,1.04Z" transform="translate(-543.701 -265.482)" fill="#7714b7"/>
            <path id="Trazado_119625" data-name="Trazado 119625" d="M576.881,350.468l3.845,1.707a1.447,1.447,0,0,0,1.174-2.646l-3.845-1.707a1.447,1.447,0,0,0-1.174,2.646" transform="translate(-503.442 -303.887)" fill="#7714b7"/>
            <path id="Trazado_119626" data-name="Trazado 119626" d="M703.548,403.241l-3.845-1.707a1.447,1.447,0,0,0-1.174,2.646l3.845,1.707a1.447,1.447,0,0,0,1.174-2.646" transform="translate(-609.762 -350.831)" fill="#7714b7"/>
            <path id="Trazado_119627" data-name="Trazado 119627" d="M581.248,400.282a1.447,1.447,0,0,0-1.871-.83l-3.926,1.511a1.447,1.447,0,1,0,1.04,2.7l3.926-1.512a1.447,1.447,0,0,0,.831-1.87" transform="translate(-502.133 -349.036)" fill="#7714b7"/>
            <path id="Trazado_119628" data-name="Trazado 119628" d="M698.617,354.8a1.445,1.445,0,0,0,1.871.83l3.926-1.511a1.447,1.447,0,1,0-1.04-2.7l-3.926,1.512a1.447,1.447,0,0,0-.831,1.87" transform="translate(-610.506 -307.052)" fill="#7714b7"/>
            <path id="Trazado_119629" data-name="Trazado 119629" d="M621.243,432.775l1.707-3.845a1.447,1.447,0,0,0-2.646-1.174L618.6,431.6a1.447,1.447,0,1,0,2.646,1.174" transform="translate(-540.545 -373.106)" fill="#7714b7"/>
            <path id="Trazado_119630" data-name="Trazado 119630" d="M673.045,311.86a1.446,1.446,0,0,0,1.91-.736l1.707-3.846a1.447,1.447,0,1,0-2.646-1.174l-1.707,3.846a1.448,1.448,0,0,0,.736,1.91" transform="translate(-587.489 -266.783)" fill="#7714b7"/>
            <path id="Trazado_119631" data-name="Trazado 119631" d="M1184.817,647.635h-7.233a1.53,1.53,0,0,0-1.514,1.546v14.993a1.531,1.531,0,0,0,1.514,1.546h7.233a1.53,1.53,0,0,0,1.514-1.546V649.181a1.53,1.53,0,0,0-1.514-1.546m-2.675,16.819a.369.369,0,0,1-.369.369h-1.145a.369.369,0,0,1-.369-.369v-.631a.369.369,0,0,1,.369-.368h1.145a.369.369,0,0,1,.369.368Zm2.057-2.053h-6a.738.738,0,0,1-.738-.738V650.1a.738.738,0,0,1,.738-.738h6a.738.738,0,0,1,.738.738v11.56a.738.738,0,0,1-.738.738" transform="translate(-1027.886 -566.033)" fill="#7714b7"/>
            <path id="Trazado_119632" data-name="Trazado 119632" d="M59.433,253.012a3.883,3.883,0,0,0-.492.031,4.132,4.132,0,0,0,.026-.449,4.525,4.525,0,0,0-8.837-1.374c-.138-.012-.267-.018-.393-.018a4.8,4.8,0,0,0,0,9.6h9.7a3.9,3.9,0,0,0,0-7.794" transform="translate(-39.273 -216.811)" fill="#7714b7"/>
          </g>
          <g id="Rectángulo_5323" data-name="Rectángulo 5323" transform="translate(-21 114.979)" fill="none" stroke="#7714b7" stroke-width="3">
            <rect width="235" height="59" stroke="none"/>
            <rect x="1.5" y="1.5" width="232" height="56" fill="none"/>
          </g>
        </g>
      </g>
    </g>
    <rect id="Rectángulo_5324" data-name="Rectángulo 5324" width="3.169" height="35.615" transform="translate(412.417 4862.052) rotate(-24.781)" fill="#7714b7"/>
  </g>
</svg>
