<svg xmlns="http://www.w3.org/2000/svg" xmlns:xlink="http://www.w3.org/1999/xlink" width="1328" height="568.219" viewBox="0 0 1328 568.219">
  <defs>
    <linearGradient id="linear-gradient" x1="0.5" x2="0.5" y2="0.704" gradientUnits="objectBoundingBox">
      <stop offset="0" stop-color="#f3f9ff"/>
      <stop offset="1" stop-color="#fff"/>
    </linearGradient>
    <clipPath id="clip-path">
      <path id="Unión_12" data-name="Unión 12" d="M0,0H1328V568.219H0Z" transform="translate(1328 568.219) rotate(180)" fill="url(#linear-gradient)"/>
    </clipPath>
  </defs>
  <g id="Grupo_58780" data-name="Grupo 58780" transform="translate(-485 -796)">
    <g id="Enmascarar_grupo_53" data-name="Enmascarar grupo 53" transform="translate(485 796)" clip-path="url(#clip-path)">
      <g id="Grupo_58595" data-name="Grupo 58595" transform="translate(884 -213.418)">
        <g id="Grupo_58592" data-name="Grupo 58592" transform="translate(192.741 253.293)">
          <g id="Grupo_53798" data-name="Grupo 53798" transform="translate(0 0)">
            <path id="Trazado_103987" data-name="Trazado 103987" d="M970.6,763.235a20.917,20.917,0,0,1-14.858-6.132L727.032,528.4a21.067,21.067,0,0,1,0-29.716L955.68,270.032a21.067,21.067,0,0,1,29.716,0L1214.044,498.68a21.067,21.067,0,0,1,0,29.716L985.4,757.044A20.5,20.5,0,0,1,970.6,763.235Zm0-487.071a8.508,8.508,0,0,0-6.132,2.535L735.758,507.347a8.608,8.608,0,0,0-2.535,6.132,8.508,8.508,0,0,0,2.535,6.132L964.406,748.259a8.608,8.608,0,0,0,6.132,2.535,8.509,8.509,0,0,0,6.132-2.535l228.648-228.648a8.607,8.607,0,0,0,2.535-6.132,8.508,8.508,0,0,0-2.535-6.132L976.729,278.7A8.608,8.608,0,0,0,970.6,276.164Z" transform="translate(-720.9 -263.9)" fill="#f3f9ff"/>
          </g>
        </g>
        <g id="Grupo_58593" data-name="Grupo 58593" transform="translate(0 246.985)">
          <g id="Grupo_53800" data-name="Grupo 53800" transform="translate(0 0)">
            <path id="Trazado_103988" data-name="Trazado 103988" d="M560.74,586.679a20.917,20.917,0,0,1-14.858-6.132L400.132,434.8a21.067,21.067,0,0,1,0-29.716l145.75-145.75a21.067,21.067,0,0,1,29.716,0l145.75,145.75a21.067,21.067,0,0,1,0,29.716L575.6,580.548A20.918,20.918,0,0,1,560.74,586.679Zm0-321.216A8.509,8.509,0,0,0,554.608,268l-145.75,145.75a8.608,8.608,0,0,0-2.535,6.132,8.508,8.508,0,0,0,2.535,6.132l145.75,145.75a8.608,8.608,0,0,0,6.132,2.535,8.509,8.509,0,0,0,6.132-2.535l145.75-145.75a8.608,8.608,0,0,0,2.535-6.132,8.508,8.508,0,0,0-2.535-6.132L566.931,268A8.644,8.644,0,0,0,560.74,265.464Z" transform="translate(-394 -253.2)" fill="#f3f9ff"/>
          </g>
        </g>
        <g id="Grupo_58594" data-name="Grupo 58594" transform="translate(138.085 0)">
          <g id="Grupo_53802" data-name="Grupo 53802">
            <path id="Trazado_103989" data-name="Trazado 103989" d="M682.574,38.794A19.084,19.084,0,0,1,669.019,33.2L535.994-99.771a19.084,19.084,0,0,1-5.594-13.555,19.084,19.084,0,0,1,5.594-13.555L668.965-259.906A19.084,19.084,0,0,1,682.52-265.5a19.084,19.084,0,0,1,13.555,5.594L829.1-126.935a19.084,19.084,0,0,1,5.594,13.555A19.084,19.084,0,0,1,829.1-99.825L696.129,33.2A19.176,19.176,0,0,1,682.574,38.794Zm0-293.052a7.763,7.763,0,0,0-5.594,2.313L543.955-118.974a7.853,7.853,0,0,0-2.313,5.594,7.762,7.762,0,0,0,2.313,5.594L676.926,25.239a7.853,7.853,0,0,0,5.594,2.313,7.762,7.762,0,0,0,5.594-2.313L821.085-107.732a7.854,7.854,0,0,0,2.313-5.594,7.763,7.763,0,0,0-2.313-5.594L688.168-251.945A7.853,7.853,0,0,0,682.574-254.258Z" transform="translate(-530.4 265.5)" fill="#f3f9ff"/>
          </g>
        </g>
      </g>
      <g id="Grupo_58596" data-name="Grupo 58596" transform="translate(-248.017 -213.418)">
        <g id="Grupo_58592-2" data-name="Grupo 58592" transform="translate(0 253.294)">
          <g id="Grupo_53798-2" data-name="Grupo 53798" transform="translate(0 0)">
            <path id="Trazado_103987-2" data-name="Trazado 103987" d="M970.479,763.235a20.918,20.918,0,0,0,14.858-6.132L1214.044,528.4a21.067,21.067,0,0,0,0-29.716L985.4,270.032a21.067,21.067,0,0,0-29.716,0L727.032,498.68a21.067,21.067,0,0,0,0,29.716L955.68,757.045A20.5,20.5,0,0,0,970.479,763.235Zm0-487.072a8.509,8.509,0,0,1,6.132,2.535l228.707,228.648a8.607,8.607,0,0,1,2.535,6.132,8.508,8.508,0,0,1-2.535,6.132L976.67,748.26a8.608,8.608,0,0,1-6.132,2.535,8.509,8.509,0,0,1-6.132-2.535L735.758,519.611a8.608,8.608,0,0,1-2.535-6.132,8.508,8.508,0,0,1,2.535-6.132L964.347,278.7A8.607,8.607,0,0,1,970.479,276.164Z" transform="translate(-720.9 -263.9)" fill="#f3f9ff"/>
          </g>
        </g>
        <g id="Grupo_58593-2" data-name="Grupo 58593" transform="translate(358.537 246.985)">
          <g id="Grupo_53800-2" data-name="Grupo 53800" transform="translate(0 0)">
            <path id="Trazado_103988-2" data-name="Trazado 103988" d="M560.74,586.68a20.918,20.918,0,0,0,14.858-6.132L721.348,434.8a21.067,21.067,0,0,0,0-29.716L575.6,259.332a21.067,21.067,0,0,0-29.716,0l-145.75,145.75a21.067,21.067,0,0,0,0,29.716l145.75,145.75A20.917,20.917,0,0,0,560.74,586.68Zm0-321.216A8.509,8.509,0,0,1,566.872,268l145.75,145.75a8.608,8.608,0,0,1,2.535,6.132,8.508,8.508,0,0,1-2.535,6.132l-145.75,145.75a8.608,8.608,0,0,1-6.132,2.535,8.509,8.509,0,0,1-6.132-2.535l-145.75-145.75a8.608,8.608,0,0,1-2.535-6.132,8.508,8.508,0,0,1,2.535-6.132L554.549,268A8.643,8.643,0,0,1,560.74,265.464Z" transform="translate(-394 -253.2)" fill="#f3f9ff"/>
          </g>
        </g>
        <g id="Grupo_58594-2" data-name="Grupo 58594" transform="translate(249.638 0)">
          <g id="Grupo_53802-2" data-name="Grupo 53802" transform="translate(0 0)">
            <path id="Trazado_103989-2" data-name="Trazado 103989" d="M682.52,38.794A19.083,19.083,0,0,0,696.075,33.2L829.1-99.771a19.084,19.084,0,0,0,5.594-13.555,19.084,19.084,0,0,0-5.594-13.555L696.129-259.906a19.084,19.084,0,0,0-13.555-5.594,19.084,19.084,0,0,0-13.555,5.594L535.994-126.935A19.084,19.084,0,0,0,530.4-113.38a19.084,19.084,0,0,0,5.594,13.555L668.965,33.2A19.176,19.176,0,0,0,682.52,38.794Zm0-293.052a7.762,7.762,0,0,1,5.594,2.313L821.139-118.974a7.853,7.853,0,0,1,2.313,5.594,7.763,7.763,0,0,1-2.313,5.594L688.168,25.239a7.853,7.853,0,0,1-5.594,2.313,7.763,7.763,0,0,1-5.594-2.313L544.009-107.732a7.853,7.853,0,0,1-2.313-5.594,7.763,7.763,0,0,1,2.313-5.594L676.926-251.945A7.853,7.853,0,0,1,682.52-254.258Z" transform="translate(-530.4 265.5)" fill="#f3f9ff"/>
          </g>
        </g>
      </g>
    </g>
  </g>
</svg>
