<svg xmlns="http://www.w3.org/2000/svg" xmlns:xlink="http://www.w3.org/1999/xlink" width="101" height="101" viewBox="0 0 101 101">
  <defs>
    <radialGradient id="radial-gradient" cx="0.687" cy="0.292" r="0.5" gradientUnits="objectBoundingBox">
      <stop offset="0" stop-color="#d492ff"/>
      <stop offset="1" stop-color="#7714b7"/>
    </radialGradient>
  </defs>
  <g id="Grupo_59047" data-name="Grupo 59047" transform="translate(-750 -2901)">
    <circle id="Elipse_1142" data-name="Elipse 1142" cx="50.5" cy="50.5" r="50.5" transform="translate(750 2901)" fill="url(#radial-gradient)"/>
    <g id="Grupo_59036" data-name="Grupo 59036" transform="translate(3.001 1)">
      <path id="Trazado_120268" data-name="Trazado 120268" d="M43.158,51.59a24.917,24.917,0,0,1-11.323,4.23,45.856,45.856,0,0,0,6.176-6.938,11.29,11.29,0,0,1-1.98.2c-.213,0-.42-.02-.629-.034A46.266,46.266,0,0,1,30,54.8V47.346a14.279,14.279,0,0,1-2-1.275v8.623a47.652,47.652,0,0,1-7.088-9.065,49.288,49.288,0,0,1,5.932-.57,12.558,12.558,0,0,1-1.594-1.932,48.728,48.728,0,0,0-5.376.646A30.6,30.6,0,0,1,16.312,32h7.5a13.325,13.325,0,0,1,.875-2H16.235a25.586,25.586,0,0,1,3.083-12A55.484,55.484,0,0,0,28,18.937v6.974a12.614,12.614,0,0,1,2-1.32V18.957a50,50,0,0,0,8.117-.74,34.367,34.367,0,0,1,2.361,5.623,13.047,13.047,0,0,1,2.41,1.15,34.8,34.8,0,0,0-2.705-7.184,46.773,46.773,0,0,0,8.177-2.6A24.877,24.877,0,0,1,53.975,30H47.494a13.456,13.456,0,0,1,.85,2h5.621a24.8,24.8,0,0,1-2.826,10.6l1.47,1.47A26.9,26.9,0,0,0,49.39,13.332c-.022-.024-.04-.052-.064-.074a26.943,26.943,0,0,0-40.633-.023.989.989,0,0,0-.13.15,26.941,26.941,0,0,0,.019,35.269l.043.047.008.009a26.93,26.93,0,0,0,35.953,4.309Zm3.8-37.961a45.047,45.047,0,0,1-7.748,2.361,48.148,48.148,0,0,0-7.523-9.844,24.94,24.94,0,0,1,15.271,7.483ZM30,7.309a47.694,47.694,0,0,1,7.082,9.066A48.093,48.093,0,0,1,30,16.966Zm-2,9.639a53.16,53.16,0,0,1-7.638-.781A41.8,41.8,0,0,1,28,7.2ZM26.179,6.163a42.667,42.667,0,0,0-7.909,9.591,49.583,49.583,0,0,1-7.225-2.124A24.941,24.941,0,0,1,26.179,6.163ZM9.63,15.217a49.659,49.659,0,0,0,7.651,2.356A27.388,27.388,0,0,0,14.237,30H4.025a24.876,24.876,0,0,1,5.6-14.783ZM4.045,32H14.308a32.216,32.216,0,0,0,3.531,12.184A47.277,47.277,0,0,0,9.656,46.79,24.9,24.9,0,0,1,4.045,32Zm7,16.383a45.285,45.285,0,0,1,7.773-2.368,48.818,48.818,0,0,0,7.51,9.841,24.961,24.961,0,0,1-15.283-7.474Z" transform="translate(767.999 2919)" fill="#fff"/>
      <path id="Trazado_120269" data-name="Trazado 120269" d="M60.827,55.113,49.517,43.8a1.012,1.012,0,0,0-1.416,0l-.969-.971h0l-1.447-1.451a7.94,7.94,0,0,0,.7-1.493,11.35,11.35,0,0,0-1.8-10.784A10.918,10.918,0,0,0,35.054,25.1a11.1,11.1,0,0,0-9.106,15.2,11.889,11.889,0,0,0,8.5,6.61,10.173,10.173,0,0,0,6.92-1.35l2.481,2.488a1.012,1.012,0,0,0,0,1.41l11.32,11.32a4,4,0,0,0,5.654-5.664ZM34.748,44.931A8.977,8.977,0,1,1,41.763,29.1,9.3,9.3,0,0,1,44.9,37.75a8.287,8.287,0,0,1-1.624,3.581C41.015,43.747,38.2,45.445,34.748,44.931Zm9.719-1.937,2.217,2.225c-.475.468-.952.935-1.416,1.413L43.05,44.41c.251-.24,1.2-1.175,1.417-1.416Zm14.4,16.76a2.062,2.062,0,0,1-2.351-.46L45.979,48.755l2.831-2.831,10.6,10.6a2.015,2.015,0,0,1-.541,3.23Z" transform="translate(767.999 2919)" fill="#fff"/>
    </g>
  </g>
</svg>
