<svg xmlns="http://www.w3.org/2000/svg" width="104.865" height="79.744" viewBox="0 0 104.865 79.744">
  <g id="digital_campaing" data-name="digital campaing" transform="translate(-2.22 -6.86)">
    <path id="Trazado_119737" data-name="Trazado 119737" d="M32.364,33.9a9.15,9.15,0,0,0-16.074,0A9.049,9.049,0,0,0,6.868,47.071,9.305,9.305,0,0,0,11.2,51.141l17.1,5.932L33.271,39.58a8.886,8.886,0,0,0-.907-5.676Z" transform="translate(4.773 29.531)" fill="#f98a8a"/>
    <path id="Trazado_119738" data-name="Trazado 119738" d="M24.43,24.17V50.178H43.249l5.42,8.165,5.443-8.165h7.56V24.17Z" transform="translate(29.456 22.958)" fill="#b1d8fa"/>
    <path id="Trazado_119739" data-name="Trazado 119739" d="M28.08,27.56H48.342v3.489H28.08Z" transform="translate(34.297 27.454)" fill="#99c3dd"/>
    <path id="Trazado_119740" data-name="Trazado 119740" d="M28.08,30.46H41.6v3.489H28.08Z" transform="translate(34.297 31.3)" fill="#99c3dd"/>
    <path id="Trazado_119741" data-name="Trazado 119741" d="M28.5,10.95H72.365V40.041H28.5Z" transform="translate(34.72 2.411)" fill="#f98a8a"/>
    <path id="Trazado_119742" data-name="Trazado 119742" d="M34.86,13.34V30.449l13.1-8.859Z" transform="translate(44.505 6.088)" fill="#f7f7f8"/>
    <path id="Trazado_119743" data-name="Trazado 119743" d="M2.22,7.9H49.4V35.955H2.22Z" transform="translate(0 1.379)" fill="#fae380"/>
    <path id="Trazado_119744" data-name="Trazado 119744" d="M49.4,7.9v2.605L25.808,25.347,2.22,10.505V7.9Z" transform="translate(0 1.379)" fill="#f4d967"/>
    <path id="Trazado_119745" data-name="Trazado 119745" d="M0,0H11.887V28.683H0Z" transform="matrix(0.873, -0.488, 0.488, 0.873, 31.388, 59.899)" fill="#afafaf"/>
    <path id="Trazado_119746" data-name="Trazado 119746" d="M42.464,18.976c-3.3-5.909-9.933-8.468-14.842-5.746l-1.512.837L38.067,35.446l1.512-.837C44.464,31.887,45.767,24.861,42.464,18.976Z" transform="translate(31.684 7.006)" fill="#e8e8e8"/>
    <path id="Trazado_119747" data-name="Trazado 119747" d="M14.412,21.49l-1.512.861C8.015,25,6.712,32.1,10.062,37.983a12.608,12.608,0,0,0,10.561,6.839,8.607,8.607,0,0,0,4.257-1.093l1.535-.861Z" transform="translate(7.93 19.403)" fill="#802db6"/>
    <path id="Trazado_119748" data-name="Trazado 119748" d="M0,0H29.055V24.5H0Z" transform="matrix(0.873, -0.488, 0.488, 0.873, 20.829, 41.742)" fill="#ab6ed6"/>
    <path id="Trazado_119749" data-name="Trazado 119749" d="M55.573,53.292,29.635,6.86,20.47,28.424l11.91,21.4Z" transform="translate(24.204)" fill="#802db6"/>
  </g>
</svg>
