<svg xmlns="http://www.w3.org/2000/svg" xmlns:xlink="http://www.w3.org/1999/xlink" width="101" height="101" viewBox="0 0 101 101">
  <defs>
    <radialGradient id="radial-gradient" cx="0.687" cy="0.292" r="0.5" gradientUnits="objectBoundingBox">
      <stop offset="0" stop-color="#d492ff"/>
      <stop offset="1" stop-color="#7714b7"/>
    </radialGradient>
  </defs>
  <g id="Grupo_59052" data-name="Grupo 59052" transform="translate(-750 -3873)">
    <circle id="Elipse_4103" data-name="Elipse 4103" cx="50.5" cy="50.5" r="50.5" transform="translate(750 3873)" fill="url(#radial-gradient)"/>
    <g id="cliente" transform="translate(745.472 3875.926)">
      <path id="Trazado_120291" data-name="Trazado 120291" d="M76.717,37.575V28.691a12.691,12.691,0,1,0-25.382,0v8.884a4.89,4.89,0,0,0-3.9,4.784v1.952a4.917,4.917,0,0,0,2.664,4.347L47.845,53.1H46.4L44.5,48.03a4.887,4.887,0,0,0-4.878-4.695H37.294l-.706-1.413a.976.976,0,0,0-.873-.54h-3.9a.976.976,0,0,0-.926,1.285l.629,1.886c-.077.068-.153.138-.226.211a4.85,4.85,0,0,0-1.429,3.452V53.1H26.929a.976.976,0,0,0-.971.879L24,73.5a.976.976,0,0,0,.971,1.074H51.335a.976.976,0,0,0,.971-1.074l-.935-9.355,2.893-3.47V73.6a.976.976,0,0,0,.976.976h23.43a.976.976,0,0,0,.976-.976V50.168a4.85,4.85,0,0,0-.574-2.294,4.912,4.912,0,0,0,1.55-3.563V42.359A4.89,4.89,0,0,0,76.717,37.575Zm1.952,4.784v1.952a2.9,2.9,0,0,1-.844,2.059,4.858,4.858,0,0,0-3.061-1.083H67.931V42.416a8.831,8.831,0,0,0,4.386-4.963,4.855,4.855,0,0,0,2.448-.955v1.955a.976.976,0,0,0,.976.976A2.932,2.932,0,0,1,78.669,42.359Zm-14.644-.976a6.841,6.841,0,0,1-6.834-6.834V29.395L67.667,25.9,70.86,29.1v5.453a6.841,6.841,0,0,1-6.834,6.834Zm-1.952,1.731a8.721,8.721,0,0,0,3.9,0v3.15A.977.977,0,0,1,65,47.24H63.05a.977.977,0,0,1-.976-.976Zm10.739-8.565V29.835a2.928,2.928,0,0,1-.04,5.535C72.8,35.1,72.812,34.826,72.812,34.549Zm-8.786-16.6A10.751,10.751,0,0,1,74.764,28.691v0a4.855,4.855,0,0,0-2.5-.959L68.621,24.1a.976.976,0,0,0-1-.236L56.045,27.719a4.854,4.854,0,0,0-2.758.975v0A10.751,10.751,0,0,1,64.026,17.952ZM55.279,35.37a2.928,2.928,0,0,1-.04-5.535v4.713C55.24,34.826,55.254,35.1,55.279,35.37Zm-5.9,6.988a2.932,2.932,0,0,1,2.929-2.929.976.976,0,0,0,.976-.976V36.5a4.855,4.855,0,0,0,2.448.955,8.831,8.831,0,0,0,4.386,4.963v2.871H54.8a4.9,4.9,0,0,0-3.691,1.691,2.948,2.948,0,0,1-1.725-2.668Zm-6.834,5.857a.976.976,0,0,0,.062.343l1.7,4.538h-2.74V48.216a4.848,4.848,0,0,0-.811-2.7,2.933,2.933,0,0,1,1.787,2.7Zm-7.437-4.881.706,1.413a.976.976,0,0,0,.873.54,2.928,2.928,0,0,1,2.929,2.929v2.426l-1.038-2.769a.976.976,0,0,0-.914-.633h-1.09a2.925,2.925,0,0,1-2.778-2l-.635-1.9Zm-3.3,4.881a2.909,2.909,0,0,1,.469-1.591,4.874,4.874,0,0,0,4.3,2.568h.414l1.464,3.9H31.81ZM26.055,72.622,27.812,55.05H43.617l1.757,17.572Zm21.282,0L45.58,55.05H48.5l1.757,17.572Zm8.879-18.549a.976.976,0,0,0-1.952,0v3.551l-3.165,3.8-.744-7.447a.974.974,0,0,0-.411-.7l2.187-4.317.014-.028A2.939,2.939,0,0,1,54.8,47.24h5.491a2.933,2.933,0,0,0,2.76,1.952H65a2.933,2.933,0,0,0,2.761-1.952h7a2.932,2.932,0,0,1,2.929,2.929V60.907h-3.9V54.073a.976.976,0,0,0-1.952,0V72.622H56.216ZM73.788,72.622V62.86h3.9v9.762Z" fill="#fff"/>
      <circle id="Elipse_4107" data-name="Elipse 4107" cx="1.301" cy="1.301" r="1.301" transform="translate(58.815 30.978)" fill="#fff"/>
      <circle id="Elipse_4108" data-name="Elipse 4108" cx="1.301" cy="1.301" r="1.301" transform="translate(66.62 30.978)" fill="#fff"/>
    </g>
  </g>
</svg>
