<svg id="diseno-de-logo_2_" data-name="diseno-de-logo (2)" xmlns="http://www.w3.org/2000/svg" width="76" height="76" viewBox="0 0 76 76">
  <path id="Trazado_122139" data-name="Trazado 122139" d="M74.887,59.721A1.113,1.113,0,0,0,76,58.608V10.336a1.9,1.9,0,0,0-1.894-1.9H67.56V1.9A1.9,1.9,0,0,0,65.666,0H24.124a1.116,1.116,0,0,0-.787.326l-9.921,9.921a1.127,1.127,0,0,0-.326.787V22.022a1.113,1.113,0,1,0,2.227,0V12.148h8.026a1.9,1.9,0,0,0,1.9-1.895V2.227h40.1V65.333H15.316v-4.9h16.01c2.312,0,9.144-2.334,14.469-4.292a2.236,2.236,0,0,0,0-4.2c-5.325-1.958-12.158-4.293-14.469-4.293H15.316V27.217a1.113,1.113,0,0,0-2.227,0V47.649H11.978a1.923,1.923,0,0,0-1.9-1.636H7.157a1.924,1.924,0,0,0-1.922,1.922v1.012H3.2a3.2,3.2,0,0,0-3.2,3.2v3.789a3.2,3.2,0,0,0,3.2,3.2H5.235v1.012a1.924,1.924,0,0,0,1.922,1.922H10.08a1.923,1.923,0,0,0,1.9-1.636h1.111v5.235a1.9,1.9,0,0,0,1.894,1.894h6.546v6.546A1.9,1.9,0,0,0,23.423,76H74.106A1.9,1.9,0,0,0,76,74.106V63.8a1.113,1.113,0,1,0-2.227,0v9.971H23.756V67.56h41.91a1.9,1.9,0,0,0,1.894-1.894v-55h6.214V58.608a1.113,1.113,0,0,0,1.113,1.113Zm-58-49.8L23.01,3.8v6.12ZM28.2,49.875a7.474,7.474,0,0,0-1.182,3.051H12V49.875Zm9.092,1.478v5.373c-5.2,1.654-6,1.463-6.087,1.478a5.261,5.261,0,0,1,0-8.329c.125.021.783-.207,6.087,1.478ZM12,55.153H27.021A7.475,7.475,0,0,0,28.2,58.2H12Zm33.031-1.119c0,.006,0,.012.007.01l-.013.006c-2,.737-3.852,1.39-5.506,1.947V52.083C41.174,52.641,45.031,54.033,45.033,54.033ZM3.2,56.907a.974.974,0,0,1-.973-.973V52.145a.974.974,0,0,1,.973-.973H5.235v5.734ZM9.775,59.84H7.462v-11.6H9.775v11.6Z" transform="translate(0)" fill="#ab6ed6"/>
  <path id="Trazado_122140" data-name="Trazado 122140" d="M192.983,131.457h-15.44a2,2,0,0,0-2,2v15.44a2,2,0,0,0,2,2h6.17a10.214,10.214,0,1,0,11.266-11.266v-6.17A2,2,0,0,0,192.983,131.457Zm-15.21,2.227h14.979v5.939a10.233,10.233,0,0,0-9.04,9.04h-5.939Zm14.979,8.183v6.8h-6.8A8,8,0,0,1,192.752,141.867Zm9.1,7.909a7.988,7.988,0,0,1-15.9,1.113h7.027a2,2,0,0,0,2-2v-7.027A8,8,0,0,1,201.854,149.776Z" transform="translate(-149.489 -111.944)" fill="#ab6ed6"/>
</svg>
