<svg xmlns="http://www.w3.org/2000/svg" width="1030" height="455.67" viewBox="0 0 1030 455.67">
  <g id="Grupo_60196" data-name="Grupo 60196" transform="translate(-285 -2444.5)">
    <g id="Grupo_60184" data-name="Grupo 60184" transform="translate(590.496 2444.5)">
      <path id="Trazado_119583" data-name="Trazado 119583" d="M9.5,0V62.169H306.932l18.213-31.085L306.932,0Z" transform="translate(0)" fill="#f1e7f8"/>
      <path id="Trazado_119584" data-name="Trazado 119584" d="M184.066,0l12.219,31.085L184.066,62.169h7.325l13.034-31.085L191.391,0Z" transform="translate(134.687)" fill="#f1e7f8"/>
      <path id="Trazado_119585" data-name="Trazado 119585" d="M196.9,0l12.219,31.085L196.9,62.169h5.445l13.035-31.085L202.342,0Z" transform="translate(133.916)" fill="#f1e7f8"/>
    </g>
    <g id="Grupo_60185" data-name="Grupo 60185" transform="translate(590.496 2542.5)">
      <path id="Trazado_119583-2" data-name="Trazado 119583" d="M9.5,0V62.169H306.932l18.213-31.085L306.932,0Z" transform="translate(0)" fill="#f1e7f8"/>
      <path id="Trazado_119584-2" data-name="Trazado 119584" d="M184.066,0l12.219,31.085L184.066,62.169h7.325l13.034-31.085L191.391,0Z" transform="translate(134.687)" fill="#f1e7f8"/>
      <path id="Trazado_119585-2" data-name="Trazado 119585" d="M196.9,0l12.219,31.085L196.9,62.169h5.445l13.035-31.085L202.342,0Z" transform="translate(133.916)" fill="#f1e7f8"/>
    </g>
    <g id="Grupo_60186" data-name="Grupo 60186" transform="translate(590.496 2641)">
      <path id="Trazado_119583-3" data-name="Trazado 119583" d="M9.5,0V62.169H306.932l18.213-31.085L306.932,0Z" transform="translate(0)" fill="#f1e7f8"/>
      <path id="Trazado_119584-3" data-name="Trazado 119584" d="M184.066,0l12.219,31.085L184.066,62.169h7.325l13.034-31.085L191.391,0Z" transform="translate(134.687)" fill="#f1e7f8"/>
      <path id="Trazado_119585-3" data-name="Trazado 119585" d="M196.9,0l12.219,31.085L196.9,62.169h5.445l13.035-31.085L202.342,0Z" transform="translate(133.916)" fill="#f1e7f8"/>
    </g>
    <g id="Grupo_60187" data-name="Grupo 60187" transform="translate(590.496 2738)">
      <path id="Trazado_119583-4" data-name="Trazado 119583" d="M9.5,0V62.169H306.932l18.213-31.085L306.932,0Z" transform="translate(0)" fill="#f1e7f8"/>
      <path id="Trazado_119584-4" data-name="Trazado 119584" d="M184.066,0l12.219,31.085L184.066,62.169h7.325l13.034-31.085L191.391,0Z" transform="translate(134.687)" fill="#f1e7f8"/>
      <path id="Trazado_119585-4" data-name="Trazado 119585" d="M196.9,0l12.219,31.085L196.9,62.169h5.445l13.035-31.085L202.342,0Z" transform="translate(133.916)" fill="#f1e7f8"/>
    </g>
    <g id="Grupo_60188" data-name="Grupo 60188" transform="translate(590.496 2836.831)">
      <path id="Trazado_119583-5" data-name="Trazado 119583" d="M9.5,0V62.169H306.932l18.213-31.085L306.932,0Z" transform="translate(0)" fill="#f1e7f8"/>
      <path id="Trazado_119584-5" data-name="Trazado 119584" d="M184.066,0l12.219,31.085L184.066,62.169h7.325l13.034-31.085L191.391,0Z" transform="translate(134.687)" fill="#f1e7f8"/>
      <path id="Trazado_119585-5" data-name="Trazado 119585" d="M196.9,0l12.219,31.085L196.9,62.169h5.445l13.035-31.085L202.342,0Z" transform="translate(133.916)" fill="#f1e7f8"/>
    </g>
    <text id="Permite_Innovación_en_la_empresa" data-name="Permite Innovación en la empresa" transform="translate(614 2468)" fill="#12263f" font-size="16" font-family="Roboto-Regular, Roboto"><tspan x="-120.605" y="17">Permite Innovación en la empresa</tspan></text>
    <text id="Nuevas_tecnologías_" data-name="Nuevas tecnologías " transform="translate(614 2565.669)" fill="#12263f" font-size="16" font-family="Roboto-Regular, Roboto"><tspan x="-70.035" y="17">Nuevas tecnologías </tspan></text>
    <text id="Atención_a_las_necesidades_de_los_clientes" data-name="Atención a las necesidades de los clientes" transform="translate(650 2653.585)" fill="#12263f" font-size="16" font-family="Roboto-Regular, Roboto"><tspan x="-97.117" y="17">Atención a las necesidades </tspan><tspan x="-51.039" y="34">de los clientes</tspan></text>
    <text id="Estrategias_de_marketing" data-name="Estrategias de marketing" transform="translate(650 2761.5)" fill="#12263f" font-size="16" font-family="Roboto-Regular, Roboto"><tspan x="-88.477" y="17">Estrategias de marketing</tspan></text>
    <text id="Teléfonos_inteligentes" data-name="Teléfonos inteligentes" transform="translate(650 2860.331)" fill="#12263f" font-size="16" font-family="Roboto-Regular, Roboto"><tspan x="-78.82" y="17">Teléfonos inteligentes</tspan></text>
    <path id="Trazado_122155" data-name="Trazado 122155" d="M9.5,0V62.169H264.727L251.845,30.893,264.727,0Z" transform="translate(1324.504 2508.168) rotate(180)" fill="#fde6fc"/>
    <path id="Trazado_122158" data-name="Trazado 122158" d="M9.5,0V62.169H264.727L251.845,30.893,264.727,0Z" transform="translate(1324.504 2604.67) rotate(180)" fill="#fde6fc"/>
    <path id="Trazado_122161" data-name="Trazado 122161" d="M9.5,0V62.169H264.727L251.845,30.893,264.727,0Z" transform="translate(1324.504 2703.17) rotate(180)" fill="#fde6fc"/>
    <path id="Trazado_122164" data-name="Trazado 122164" d="M9.5,0V62.169H264.727L251.845,30.893,264.727,0Z" transform="translate(1324.504 2801.67) rotate(180)" fill="#fde6fc"/>
    <path id="Trazado_122167" data-name="Trazado 122167" d="M9.5,0V62.169H264.727L251.845,30.893,264.727,0Z" transform="translate(1324.504 2900.17) rotate(180)" fill="#fde6fc"/>
    <text id="Comercio_en_línea" data-name="Comercio en línea" transform="translate(1068 2467.669)" fill="#12263f" font-size="16" font-family="Roboto-Regular, Roboto"><tspan x="-63.879" y="17">Comercio en línea</tspan></text>
    <text id="Plataformas_digitales" data-name="Plataformas digitales" transform="translate(1068 2564.17)" fill="#12263f" font-size="16" font-family="Roboto-Regular, Roboto"><tspan x="-75.973" y="17">Plataformas digitales</tspan></text>
    <text id="Facilidad_en_compras_y_transacciones_online" data-name="Facilidad en compras y transacciones online" transform="translate(1068 2654.086)" fill="#12263f" font-size="16" font-family="Roboto-Regular, Roboto"><tspan x="-81.684" y="17">Facilidad en compras y </tspan><tspan x="-73.555" y="34">transacciones online</tspan></text>
    <text id="Canales_digitales_de_atención_a_los_clientes" data-name="Canales digitales de atención a los clientes" transform="translate(1105 2752.586)" fill="#12263f" font-size="16" font-family="Roboto-Regular, Roboto"><tspan x="-71.492" y="17">Canales digitales de </tspan><tspan x="-79.344" y="34">atención a los clientes</tspan></text>
    <text id="Aplicaciones_de_escaneo_código_QR" data-name="Aplicaciones de escaneo código QR" transform="translate(1105 2851.831)" fill="#12263f" font-size="16" font-family="Roboto-Regular, Roboto"><tspan x="-88.426" y="17">Aplicaciones de escaneo </tspan><tspan x="-36.66" y="34">código QR</tspan></text>
    <path id="Trazado_122156" data-name="Trazado 122156" d="M196.9,0l12.219,31.085L196.9,62.169h5.445l13.035-31.085L202.342,0Z" transform="translate(849.412 2445.999)" fill="#fde6fc"/>
    <path id="Trazado_122159" data-name="Trazado 122159" d="M196.9,0l12.219,31.085L196.9,62.169h5.445l13.035-31.085L202.342,0Z" transform="translate(849.412 2542.5)" fill="#fde6fc"/>
    <path id="Trazado_122162" data-name="Trazado 122162" d="M196.9,0l12.219,31.085L196.9,62.169h5.445l13.035-31.085L202.342,0Z" transform="translate(849.412 2641)" fill="#fde6fc"/>
    <path id="Trazado_122165" data-name="Trazado 122165" d="M196.9,0l12.219,31.085L196.9,62.169h5.445l13.035-31.085L202.342,0Z" transform="translate(849.412 2739.5)" fill="#fde6fc"/>
    <path id="Trazado_122168" data-name="Trazado 122168" d="M196.9,0l12.219,31.085L196.9,62.169h5.445l13.035-31.085L202.342,0Z" transform="translate(849.412 2838)" fill="#fde6fc"/>
    <path id="Trazado_122157" data-name="Trazado 122157" d="M12162.728-9124.416h98.741" transform="translate(-11217 11600)" fill="none" stroke="#ab6ed6" stroke-width="2" stroke-dasharray="4"/>
    <path id="Trazado_122160" data-name="Trazado 122160" d="M12162.728-9124.416h98.741" transform="translate(-11217 11696.501)" fill="none" stroke="#ab6ed6" stroke-width="2" stroke-dasharray="4"/>
    <path id="Trazado_122163" data-name="Trazado 122163" d="M12162.728-9124.416h98.741" transform="translate(-11217 11795.001)" fill="none" stroke="#ab6ed6" stroke-width="2" stroke-dasharray="4"/>
    <path id="Trazado_122166" data-name="Trazado 122166" d="M12162.728-9124.416h98.741" transform="translate(-11217 11893.501)" fill="none" stroke="#ab6ed6" stroke-width="2" stroke-dasharray="4"/>
    <path id="Trazado_122169" data-name="Trazado 122169" d="M12162.728-9124.416h98.741" transform="translate(-11217 11992.001)" fill="none" stroke="#ab6ed6" stroke-width="2" stroke-dasharray="4"/>
    <g id="Grupo_60195" data-name="Grupo 60195" transform="translate(0 20.729)">
      <g id="Layer_51" transform="translate(285 2508.167)">
        <path id="Trazado_122172" data-name="Trazado 122172" d="M178.741,370.627V359.8s-8.241-8.183-8.241-20.309l13.952-106.315a11.41,11.41,0,0,1,3.826-7.3l.177-.118a12.913,12.913,0,0,1,18.484,1.472L245.32,269.14a10.367,10.367,0,0,1,2.119,6.24v95.248" transform="translate(-70.131 -91.536)" fill="#efcdb1"/>
        <path id="Trazado_122173" data-name="Trazado 122173" d="M139.91,34.7V240.5L10.461,246.682A9.783,9.783,0,0,1,.1,237.734V34.7Z" transform="translate(-0.041 -14.273)" fill="#ab6ed6"/>
        <path id="Trazado_122174" data-name="Trazado 122174" d="M119.725,166.7,23.3,165.742V67.7h96.425Z" transform="translate(-1.666 -39.414)" fill="#fff"/>
        <g id="Grupo_60194" data-name="Grupo 60194" transform="translate(27.904 34.152)">
          <path id="Trazado_122175" data-name="Trazado 122175" d="M81.314,106.6H62.1v19.214H81.314Zm-4.348,14.866H66.448V111H76.966Z" transform="translate(-48.751 -92.796)" fill="#565656"/>
          <path id="Trazado_122176" data-name="Trazado 122176" d="M139.8,203.514h19.214V184.3H139.8Zm4.348-14.866h10.517v10.517H144.148Z" transform="translate(-87.163 -131.209)" fill="#565656"/>
          <path id="Trazado_122177" data-name="Trazado 122177" d="M159.014,106.6H139.8v19.214h19.214Zm-4.348,14.866H144.148V111h10.517Z" transform="translate(-87.163 -92.796)" fill="#565656"/>
          <path id="Trazado_122178" data-name="Trazado 122178" d="M62.1,203.514H81.314V184.3H62.1Zm4.348-14.866H76.966v10.517H66.448Z" transform="translate(-48.751 -131.209)" fill="#565656"/>
          <path id="Trazado_122179" data-name="Trazado 122179" d="M94.39,116.8v10.416H90.041v4.348H85.693v2.68h4.348v4.146H77v-4.348H72.648v4.348h-4.4v4.348H63.9v4.4H85.744v-4.4h4.348v-4.146h4.3v-7.028h4.348V116.8Z" transform="translate(-49.641 -97.839)" fill="#565656"/>
          <path id="Trazado_122180" data-name="Trazado 122180" d="M124.494,159.9h-8.748v8.545H107.1v8.7h4.3v8.646h4.348v4.4h4.348v-13.1h-4.3V173h4.3l.051-8.7h4.348Z" transform="translate(-70.998 -119.146)" fill="#565656"/>
          <path id="Trazado_122181" data-name="Trazado 122181" d="M158.848,168.647V164.3H163.2v-4.4H150.1v3.995h4.4v4.753Z" transform="translate(-92.255 -119.146)" fill="#565656"/>
          <path id="Trazado_122182" data-name="Trazado 122182" d="M106.9,211.1h4.348v4.348H106.9Z" transform="translate(-70.899 -144.458)" fill="#565656"/>
          <path id="Trazado_122183" data-name="Trazado 122183" d="M51.9,151.3h4.348v4.348H51.9Z" transform="translate(-43.709 -114.895)" fill="#565656"/>
          <path id="Trazado_122184" data-name="Trazado 122184" d="M176,151.3h4.349v4.348H176Z" transform="translate(-105.059 -114.895)" fill="#565656"/>
          <path id="Trazado_122185" data-name="Trazado 122185" d="M107,104.8h4.348v4.348H107Z" transform="translate(-70.948 -91.906)" fill="#565656"/>
          <path id="Trazado_122186" data-name="Trazado 122186" d="M141.5,151.3h4.348v4.348H141.5Z" transform="translate(-88.004 -114.895)" fill="#565656"/>
          <path id="Trazado_122187" data-name="Trazado 122187" d="M115.6,229.7h4.348v4.348H115.6Z" transform="translate(-75.2 -153.653)" fill="#565656"/>
          <path id="Trazado_122188" data-name="Trazado 122188" d="M35.7,113.426h4.45V84.15H69.78V79.7H35.7Z" transform="translate(-35.7 -79.498)" fill="#565656"/>
          <path id="Trazado_122189" data-name="Trazado 122189" d="M137.2,79.3v4.45h29.276V113.43h4.45V79.3Z" transform="translate(-85.878 -79.3)" fill="#565656"/>
          <path id="Trazado_122190" data-name="Trazado 122190" d="M170.531,182.3h-4.45v29.276H136.4v4.45h34.131Z" transform="translate(-85.482 -130.22)" fill="#565656"/>
          <path id="Trazado_122191" data-name="Trazado 122191" d="M69.426,216.08v-4.45H40.15V182H35.7v34.08Z" transform="translate(-35.7 -130.072)" fill="#565656"/>
        </g>
        <path id="Trazado_122192" data-name="Trazado 122192" d="M0,122.3H139.869v5.887H0Z" transform="translate(0 -71.792)" fill="#f04930"/>
        <path id="Trazado_122193" data-name="Trazado 122193" d="M139.869,365.7v16.542A19.973,19.973,0,0,1,119.913,402.2h-99.9A20.061,20.061,0,0,1,0,382.242V365.7Z" transform="translate(0 -150.422)" fill="#565656"/>
        <path id="Trazado_122194" data-name="Trazado 122194" d="M100.3,392.8h24.96v5.887H100.3Z" transform="translate(-41.256 -161.569)" fill="#fff"/>
        <path id="Trazado_122195" data-name="Trazado 122195" d="M139.869,20.015v.412H0v-.412A20,20,0,0,1,20.015,0h99.9A20.061,20.061,0,0,1,139.869,20.015Z" transform="translate(0 0)" fill="#565656"/>
        <path id="Trazado_122196" data-name="Trazado 122196" d="M209.839,379.61s-15.07-12.362-17.955-27.727c-2.414-12.657,2.119-25.2,2.119-25.2L173.812,304.73a11.615,11.615,0,0,1,16.365-16.483l39.029,38.44" transform="translate(-70.146 -117.238)" fill="#efcdb1"/>
        <path id="Trazado_122197" data-name="Trazado 122197" d="M256.9,345.617a2.761,2.761,0,0,1-2.06-.883L238.772,328.9a2.881,2.881,0,0,1-.118-4.062l.059-.059a2.967,2.967,0,0,1,4.18-.059l16.071,15.835a2.914,2.914,0,0,1,0,4.18A2.761,2.761,0,0,1,256.9,345.617Z" transform="translate(-97.844 -133.223)" fill="#e5b591"/>
        <path id="Trazado_122198" data-name="Trazado 122198" d="M222.184,409.67a3,3,0,0,1-1.825-.648c-.648-.53-16.012-13.245-19.073-29.493-2.472-13.3,2.06-26.137,2.3-26.726a2.944,2.944,0,0,1,5.534,2c-.059.118-4.238,11.95-2,23.665,2.649,14.128,16.777,25.843,16.954,25.961a3.036,3.036,0,0,1,.412,4.18,2.93,2.93,0,0,1-2.3,1.06Z" transform="translate(-82.491 -144.354)" fill="#e5b591"/>
        <path id="Trazado_122199" data-name="Trazado 122199" d="M184.5,474.1h68.757v28.845H184.5Z" transform="translate(-75.89 -195.01)" fill="#00d3d6"/>
      </g>
      <g id="Grupo_60183" data-name="Grupo 60183" transform="translate(286.645 2645.252)">
        <text id="Código_QR" data-name="Código QR" transform="translate(0 0)" fill="#fff" font-size="18" font-family="Roboto-Bold, Roboto" font-weight="700"><tspan x="-42.86" y="19">Código QR</tspan></text>
      </g>
    </g>
    <path id="Trazado_122200" data-name="Trazado 122200" d="M11817-9222.5h-105l-57.527,102.791" transform="translate(-11217 11700)" fill="none" stroke="#7714b7" stroke-width="1" stroke-dasharray="4"/>
    <path id="Trazado_122201" data-name="Trazado 122201" d="M11817-9127.915h-105l-56.9,17.583" transform="translate(-11217 11700)" fill="none" stroke="#7714b7" stroke-width="1" stroke-dasharray="4"/>
    <path id="Trazado_122202" data-name="Trazado 122202" d="M11817-9027.5h-105l-58.245-73.494" transform="translate(-11217 11700)" fill="none" stroke="#7714b7" stroke-width="1" stroke-dasharray="4"/>
    <path id="Trazado_122203" data-name="Trazado 122203" d="M11817-8929h-105l-57.6-162.466" transform="translate(-11217 11700)" fill="none" stroke="#7714b7" stroke-width="1" stroke-dasharray="4"/>
    <rect id="Rectángulo_5985" data-name="Rectángulo 5985" width="190" height="6" transform="translate(285 2832)" fill="#afafaf"/>
    <path id="Trazado_122204" data-name="Trazado 122204" d="M11813.281-8830.169H11712l-58.882-243.386" transform="translate(-11217 11700)" fill="none" stroke="#7714b7" stroke-width="1" stroke-dasharray="4"/>
  </g>
</svg>
