<svg xmlns="http://www.w3.org/2000/svg" xmlns:xlink="http://www.w3.org/1999/xlink" width="62" height="62" viewBox="0 0 62 62">
  <defs>
    <clipPath id="clip-path">
      <path id="Trazado_119440" data-name="Trazado 119440" d="M31,0A31,31,0,1,1,0,31,31,31,0,0,1,31,0Z" transform="translate(-5872 -10365)" fill="#e4d0f1"/>
    </clipPath>
  </defs>
  <g id="Enmascarar_grupo_51" data-name="Enmascarar grupo 51" transform="translate(5872 10365)" clip-path="url(#clip-path)">
    <g id="rompecabezas" transform="translate(-5872 -10365)">
      <g id="Grupo_58444" data-name="Grupo 58444">
        <g id="Grupo_58443" data-name="Grupo 58443">
          <g id="Grupo_58442" data-name="Grupo 58442">
            <g id="Grupo_58441" data-name="Grupo 58441">
              <g id="Grupo_58440" data-name="Grupo 58440">
                <g id="Grupo_58439" data-name="Grupo 58439">
                  <circle id="Elipse_4069" data-name="Elipse 4069" cx="31" cy="31" r="31" fill="#e4d0f1"/>
                </g>
              </g>
            </g>
          </g>
        </g>
      </g>
      <path id="Trazado_119471" data-name="Trazado 119471" d="M31.336,62A31,31,0,0,0,61.989,31.816L42.277,12.1,22.861,53.387l2.731,2.731-.067.069Z" fill="#c69ee0"/>
      <g id="Grupo_58445" data-name="Grupo 58445">
        <path id="Trazado_119472" data-name="Trazado 119472" d="M28.412,48.943a4.2,4.2,0,0,0,0,8.395h2.751V48.943Z" fill="#cdd2e1"/>
      </g>
      <g id="Grupo_58446" data-name="Grupo 58446">
        <path id="Trazado_119473" data-name="Trazado 119473" d="M33.588,48.943H31v8.395h2.586a4.2,4.2,0,0,0,0-8.395Z" fill="#afb4c8"/>
      </g>
      <g id="Grupo_58447" data-name="Grupo 58447">
        <path id="Trazado_119474" data-name="Trazado 119474" d="M30.89,7.108A15.228,15.228,0,0,0,20.106,32.976a11.725,11.725,0,0,1,3.389,8.183v4.124h7.668V7.11c-.091,0-.182,0-.273,0Z" fill="#ffce00"/>
      </g>
      <g id="Grupo_58448" data-name="Grupo 58448">
        <path id="Trazado_119475" data-name="Trazado 119475" d="M31,7.109V45.283h7.5V41.159A11.714,11.714,0,0,1,41.89,32.98,15.227,15.227,0,0,0,31,7.109Z" fill="#fdba12"/>
      </g>
      <g id="Grupo_58449" data-name="Grupo 58449">
        <path id="Trazado_119476" data-name="Trazado 119476" d="M22.861,43.393h8.3v9.994h-8.3Z" fill="#e9edf5"/>
      </g>
      <g id="Grupo_58450" data-name="Grupo 58450">
        <path id="Trazado_119477" data-name="Trazado 119477" d="M31,43.393h8.138v9.994H31Z" fill="#cdd2e1"/>
      </g>
      <g id="Grupo_58451" data-name="Grupo 58451">
        <path id="Trazado_119478" data-name="Trazado 119478" d="M31,11.064a3.334,3.334,0,0,0-2.115,5.911h-5.1V32.662h7.378V11.068q-.081,0-.163,0Z" fill="#fff"/>
      </g>
      <g id="Grupo_58452" data-name="Grupo 58452">
        <path id="Trazado_119479" data-name="Trazado 119479" d="M35.56,21.484A3.329,3.329,0,0,1,38.215,22.8V16.975h-5.1A3.334,3.334,0,0,0,31,11.064v21.6h7.214V26.834a3.334,3.334,0,1,1-2.656-5.35Z" fill="#e9edf5"/>
      </g>
    </g>
  </g>
</svg>
