<svg xmlns="http://www.w3.org/2000/svg" xmlns:xlink="http://www.w3.org/1999/xlink" width="62" height="62" viewBox="0 0 62 62">
  <defs>
    <clipPath id="clip-path">
      <path id="Trazado_119438" data-name="Trazado 119438" d="M31,0A31,31,0,1,1,0,31,31,31,0,0,1,31,0Z" transform="translate(-5872 -10788)" fill="#ccf6f7"/>
    </clipPath>
  </defs>
  <g id="Enmascarar_grupo_50" data-name="Enmascarar grupo 50" transform="translate(5872 10788)" clip-path="url(#clip-path)">
    <g id="equipo" transform="translate(-5872 -10788)">
      <g id="Grupo_58418" data-name="Grupo 58418">
        <g id="Grupo_58417" data-name="Grupo 58417">
          <g id="Grupo_58416" data-name="Grupo 58416">
            <g id="Grupo_58415" data-name="Grupo 58415">
              <g id="Grupo_58414" data-name="Grupo 58414">
                <g id="Grupo_58413" data-name="Grupo 58413">
                  <g id="Grupo_58412" data-name="Grupo 58412">
                    <circle id="Elipse_4066" data-name="Elipse 4066" cx="31" cy="31" r="31" fill="#e4d0f1"/>
                  </g>
                </g>
              </g>
            </g>
          </g>
        </g>
      </g>
      <path id="Trazado_119456" data-name="Trazado 119456" d="M61.682,35.459,37.944,11.722,26.175,17.18,10.81,44.905,27.777,61.834A31.359,31.359,0,0,0,31,62,31.007,31.007,0,0,0,61.682,35.459Z" fill="#c69ee0"/>
      <g id="Grupo_58419" data-name="Grupo 58419">
        <path id="Trazado_119457" data-name="Trazado 119457" d="M19.442,39.043H31v3.512H19.442Z" fill="#fff"/>
      </g>
      <g id="Grupo_58420" data-name="Grupo 58420">
        <path id="Trazado_119458" data-name="Trazado 119458" d="M30.957,39.043h11.6v3.512h-11.6Z" fill="#e9edf5"/>
      </g>
      <g id="Grupo_58421" data-name="Grupo 58421">
        <path id="Trazado_119459" data-name="Trazado 119459" d="M10.642,24.495h18.75v3.513H10.642Z" transform="translate(-12.969 25.006) rotate(-50.517)" fill="#fff"/>
      </g>
      <g id="Grupo_58422" data-name="Grupo 58422">
        <path id="Trazado_119460" data-name="Trazado 119460" d="M40.242,16.876h3.513v18.75H40.242Z" transform="translate(-7.107 32.683) rotate(-39.483)" fill="#e9edf5"/>
      </g>
      <g id="Grupo_58429" data-name="Grupo 58429">
        <g id="Grupo_58423" data-name="Grupo 58423">
          <path id="Trazado_119461" data-name="Trazado 119461" d="M21.84,17.7A9.136,9.136,0,0,0,24.8,24.435H31V8.535A9.16,9.16,0,0,0,21.84,17.7Z" fill="#b180ff"/>
        </g>
        <g id="Grupo_58424" data-name="Grupo 58424">
          <path id="Trazado_119462" data-name="Trazado 119462" d="M31,8.535h-.043v15.9H37.2A9.16,9.16,0,0,0,31,8.535Z" fill="#9a4dff"/>
        </g>
        <g id="Grupo_58425" data-name="Grupo 58425">
          <path id="Trazado_119463" data-name="Trazado 119463" d="M27.554,13.734A3.446,3.446,0,0,0,31,17.18V10.288a3.446,3.446,0,0,0-3.442,3.446Z" fill="#ffbeaa"/>
        </g>
        <g id="Grupo_58426" data-name="Grupo 58426">
          <path id="Trazado_119464" data-name="Trazado 119464" d="M31,10.288h-.043v6.89H31a3.446,3.446,0,1,0,0-6.892Z" fill="#faa68e"/>
        </g>
        <g id="Grupo_58427" data-name="Grupo 58427">
          <path id="Trazado_119465" data-name="Trazado 119465" d="M28.289,18.632a3.04,3.04,0,0,0-3.005,2.584L24.8,24.435A9.127,9.127,0,0,0,31,26.855V18.632Z" fill="#fff"/>
        </g>
        <g id="Grupo_58428" data-name="Grupo 58428">
          <path id="Trazado_119466" data-name="Trazado 119466" d="M37.2,24.434l-.488-3.219a3.039,3.039,0,0,0-3.005-2.584H30.957v8.223H31a9.127,9.127,0,0,0,6.2-2.421Z" fill="#e9edf5"/>
        </g>
      </g>
      <g id="Grupo_58438" data-name="Grupo 58438">
        <g id="Grupo_58433" data-name="Grupo 58433">
          <g id="Grupo_58430" data-name="Grupo 58430">
            <path id="Trazado_119467" data-name="Trazado 119467" d="M38.781,44.905a9.16,9.16,0,1,1,12.409,0Z" fill="#1cadb5"/>
          </g>
          <g id="Grupo_58431" data-name="Grupo 58431">
            <circle id="Elipse_4067" data-name="Elipse 4067" cx="3.446" cy="3.446" r="3.446" transform="translate(41.539 30.758)" fill="#faa68e"/>
          </g>
          <g id="Grupo_58432" data-name="Grupo 58432">
            <path id="Trazado_119468" data-name="Trazado 119468" d="M44.985,47.326a9.128,9.128,0,0,0,6.2-2.421L50.7,41.686A3.039,3.039,0,0,0,47.7,39.1H42.274a3.04,3.04,0,0,0-3.005,2.584l-.488,3.219A9.128,9.128,0,0,0,44.985,47.326Z" fill="#9a4dff"/>
          </g>
        </g>
        <g id="Grupo_58437" data-name="Grupo 58437">
          <g id="Grupo_58434" data-name="Grupo 58434">
            <path id="Trazado_119469" data-name="Trazado 119469" d="M10.81,44.905a9.16,9.16,0,1,1,12.409,0Z" fill="#00c8c8"/>
          </g>
          <g id="Grupo_58435" data-name="Grupo 58435">
            <circle id="Elipse_4068" data-name="Elipse 4068" cx="3.446" cy="3.446" r="3.446" transform="translate(13.569 30.758)" fill="#ffbeaa"/>
          </g>
          <g id="Grupo_58436" data-name="Grupo 58436">
            <path id="Trazado_119470" data-name="Trazado 119470" d="M17.015,47.326a9.128,9.128,0,0,0,6.2-2.421l-.488-3.219A3.039,3.039,0,0,0,19.726,39.1H14.3A3.04,3.04,0,0,0,11.3,41.686l-.488,3.219a9.128,9.128,0,0,0,6.2,2.421Z" fill="#636978"/>
          </g>
        </g>
      </g>
    </g>
  </g>
</svg>
