<svg xmlns="http://www.w3.org/2000/svg" width="58.265" height="80" viewBox="0 0 58.265 80">
  <g id="medalla_1_" data-name="medalla (1)" transform="translate(-69.551)">
    <path id="Trazado_122111" data-name="Trazado 122111" d="M215.437,102.685a1.174,1.174,0,0,0,1.174-1.174V90.481a3.948,3.948,0,0,0-3.943-3.943h-2.157a3.96,3.96,0,0,0-3.393,1.934L203.7,94.234a3.942,3.942,0,0,0,5.021,5.6v13.983a3.943,3.943,0,1,0,7.886,0v-7.609a1.174,1.174,0,0,0-2.349,0v7.609a1.595,1.595,0,1,1-3.189,0V96.946a1.174,1.174,0,0,0-2.185-.6l-.42.709a1.595,1.595,0,0,1-2.744-1.626l3.414-5.762a1.6,1.6,0,0,1,1.372-.782h2.157a1.6,1.6,0,0,1,1.595,1.595v11.03a1.174,1.174,0,0,0,1.174,1.174Z" transform="translate(-112.729 -73.016)" fill="#ab6ed6"/>
    <path id="Trazado_122112" data-name="Trazado 122112" d="M153.922,61.172a23.2,23.2,0,1,0-46.4,0,1.174,1.174,0,1,0,2.349,0,20.794,20.794,0,1,1,.471,4.43,1.174,1.174,0,0,0-2.3.5,23.2,23.2,0,0,0,45.875-4.926Z" transform="translate(-32.039 -32.039)" fill="#ab6ed6"/>
    <path id="Trazado_122113" data-name="Trazado 122113" d="M120.8,62.312a1.174,1.174,0,1,0-2.218.772l2.949,8.472-8.051-.843a1.174,1.174,0,0,0-.943.328l-5.788,5.66L100.32,58.218a28.954,28.954,0,0,0,14.814-5.055l1.908,5.481a1.174,1.174,0,0,0,2.218-.772L117.1,51.684a29.133,29.133,0,1,0-36.843,0L73.006,72.531a1.2,1.2,0,0,0,1.231,1.554l9.342-.978,6.715,6.567a1.194,1.194,0,0,0,1.93-.453l6.459-18.557,6.459,18.557a1.188,1.188,0,0,0,1.93.453l6.715-6.567,9.342.978a1.192,1.192,0,0,0,1.231-1.554ZM71.9,29.133A26.784,26.784,0,1,1,98.684,55.917,26.814,26.814,0,0,1,71.9,29.133ZM90.614,76.7l-5.788-5.66a1.176,1.176,0,0,0-.943-.328l-8.051.843,6.4-18.393a28.954,28.954,0,0,0,14.814,5.055Z" fill="#ab6ed6"/>
  </g>
</svg>
