<svg xmlns="http://www.w3.org/2000/svg" width="95.517" height="62.105" viewBox="0 0 95.517 62.105">
  <g id="apreton-de-manos_1_" data-name="apreton-de-manos (1)" transform="translate(0 0)">
    <path id="Trazado_122081" data-name="Trazado 122081" d="M47.776,146.892a4.678,4.678,0,0,0-3.842-.953,5.159,5.159,0,0,0-1.866-3.256,4.666,4.666,0,0,0-3.614-.995,4.722,4.722,0,0,0-.93.234,5.131,5.131,0,0,0-1.735-2.655,4.677,4.677,0,0,0-4.809-.651,5.107,5.107,0,0,0-1.682-2.468,4.668,4.668,0,0,0-3.614-.995,4.752,4.752,0,0,0-2.739,1.411l-5.121-.359,3.139-26.873,5.625.4c.032,0,.064,0,.1,0a1.392,1.392,0,0,0,1.245-.8l2.108-4.335a2.444,2.444,0,0,1,2.867-1.326l3.13.912a1.393,1.393,0,0,0,1.722-1.028,1.486,1.486,0,0,0-.976-1.814l-3.13-.912a5.2,5.2,0,0,0-6.1,2.823l-1.688,3.471-4.552-.326.108-.923a5.347,5.347,0,0,0-4.453-6.01L6.18,98.069a1.416,1.416,0,0,0-1.56,1.283A1.461,1.461,0,0,0,5.838,101l10.781,1.4a2.277,2.277,0,0,1,1.544.921,2.522,2.522,0,0,1,.473,1.8l-3.7,31.693a2.35,2.35,0,0,1-2.584,2.126l-10.781-1.4a1.416,1.416,0,0,0-1.56,1.283,1.461,1.461,0,0,0,1.218,1.644l10.781,1.4a4.9,4.9,0,0,0,.629.041,5.1,5.1,0,0,0,4.478-2.793l3.831.268a5.347,5.347,0,0,0-.494,3.055,5.17,5.17,0,0,0,1.888,3.4,4.658,4.658,0,0,0,3.614.995l.043-.007c0,.015,0,.03,0,.046a5.17,5.17,0,0,0,1.888,3.4,4.643,4.643,0,0,0,3.659.983,5.192,5.192,0,0,0,1.891,3.446,4.644,4.644,0,0,0,3.657.984c0,.016,0,.033.005.049a5.169,5.169,0,0,0,1.888,3.4,4.658,4.658,0,0,0,3.614.995,4.806,4.806,0,0,0,3.223-1.99L48.72,154.1A5.334,5.334,0,0,0,47.776,146.892ZM25.571,143.9a1.99,1.99,0,0,1-1.542-.424,2.206,2.206,0,0,1-.805-1.449,2.267,2.267,0,0,1,.4-1.625l1.066-1.483a2.05,2.05,0,0,1,1.375-.849,1.993,1.993,0,0,1,1.542.424,2.206,2.206,0,0,1,.805,1.449,2.268,2.268,0,0,1-.4,1.625l-1.066,1.483A2.051,2.051,0,0,1,25.571,143.9Zm4.008,4.005a2.205,2.205,0,0,1-.805-1.449,2.267,2.267,0,0,1,.4-1.625l1.066-1.483h0l.941-1.31a2.044,2.044,0,0,1,1.662-.868,2,2,0,0,1,1.254.444,2.276,2.276,0,0,1,.4,3.074L32.5,147.485A2.014,2.014,0,0,1,29.579,147.909Zm5.55,4.43a2.206,2.206,0,0,1-.805-1.449,2.267,2.267,0,0,1,.4-1.624h0l2.007-2.793h0l.728-1.014a2.05,2.05,0,0,1,1.375-.849,1.992,1.992,0,0,1,1.542.424,2.276,2.276,0,0,1,.4,3.072l-2.736,3.808h0A2.014,2.014,0,0,1,35.129,152.339Zm11.36-.022L43.6,156.344a2.05,2.05,0,0,1-1.375.849,1.991,1.991,0,0,1-1.542-.424,2.206,2.206,0,0,1-.805-1.449,2.267,2.267,0,0,1,.4-1.625l2.736-3.807v0l.157-.219a2.05,2.05,0,0,1,1.375-.849,1.993,1.993,0,0,1,1.542.424A2.276,2.276,0,0,1,46.49,152.316Z" transform="translate(0.001 -98.057)" fill="#ab6ed6"/>
    <path id="Trazado_122082" data-name="Trazado 122082" d="M224.582,138.821a1.417,1.417,0,0,0-1.56-1.283l-10.78,1.4a2.348,2.348,0,0,1-2.584-2.126l-.11-.946h0l-.026-.219-3.566-30.528a2.522,2.522,0,0,1,.473-1.8,2.277,2.277,0,0,1,1.544-.921l10.781-1.4a1.461,1.461,0,0,0,1.218-1.644,1.417,1.417,0,0,0-1.56-1.283l-10.781,1.4a5.318,5.318,0,0,0-4.489,5.491l-2.719.353-8.418-4.993a6.4,6.4,0,0,0-3.908-.88h-.008l-2.534.247a1.455,1.455,0,0,0-1.264,1.6,1.422,1.422,0,0,0,1.522,1.332l2.541-.248a3.731,3.731,0,0,1,2.279.512l8.728,5.177a1.343,1.343,0,0,0,.942.233l3.158-.41,2.316,19.826.8,6.856-5.036,0a1.357,1.357,0,0,0-.914.359l-.39.32-12.644-11.485c2.89-.876,5.644-2.993,8.219-6.326a1.53,1.53,0,0,0-.2-2.075,1.351,1.351,0,0,0-1.969.212c-2.879,3.726-5.905,5.643-9,5.7-4.5.089-7.811-3.846-7.842-3.882a1.355,1.355,0,0,0-2.169.065l-3.759,5.155a7.059,7.059,0,0,1-8.395,2.518l-.4-.16a.954.954,0,0,1-.55-.591,1.02,1.02,0,0,1,.072-.825l9.81-17.794a3.907,3.907,0,0,1,3.022-2.034l5.808-.566a1.455,1.455,0,0,0,1.264-1.6,1.422,1.422,0,0,0-1.522-1.332l-5.808.566a6.7,6.7,0,0,0-5.184,3.489l-9.81,17.794a4.115,4.115,0,0,0-.289,3.294,3.838,3.838,0,0,0,2.2,2.362l.4.16a9.732,9.732,0,0,0,3.606.7,9.893,9.893,0,0,0,8-4.178l2.8-3.846a13.507,13.507,0,0,0,7.885,3.635l18.272,16.6a1.733,1.733,0,0,1,.559,1.169,1.76,1.76,0,0,1-.389,1.243l-.712.87a2.4,2.4,0,0,1-3.5.271,1.406,1.406,0,0,0-.183-.139l-4.743-4.31a1.35,1.35,0,0,0-1.973.154,1.53,1.53,0,0,0,.146,2.08l3.855,3.5-1.758,2.15a2.391,2.391,0,0,1-3.5.273l-.021-.017-4.407-4a1.35,1.35,0,0,0-1.973.154,1.53,1.53,0,0,0,.146,2.08l3.368,3.061-1.769,2.165a2.424,2.424,0,0,1-2.176.892,1.417,1.417,0,0,0-1.553,1.292,1.459,1.459,0,0,0,1.226,1.637,5.065,5.065,0,0,0,.62.038,5.174,5.174,0,0,0,4-1.935l1.891-2.314a5.049,5.049,0,0,0,1.648.5,5.142,5.142,0,0,0,4.62-1.9l1.894-2.317a5.111,5.111,0,0,0,6.267-1.391l.713-.872a4.793,4.793,0,0,0,1.06-3.387,4.718,4.718,0,0,0-1.523-3.184l-1.148-1.043,4.2,0a5.2,5.2,0,0,0,5.021,4.384,4.9,4.9,0,0,0,.629-.041l10.781-1.4A1.461,1.461,0,0,0,224.582,138.821Z" transform="translate(-129.076 -98.058)" fill="#ab6ed6"/>
    <path id="Trazado_122083" data-name="Trazado 122083" d="M446.108,251.249a4.331,4.331,0,1,0,4.1,4.325A4.224,4.224,0,0,0,446.108,251.249Zm0,5.7a1.378,1.378,0,1,1,1.306-1.376A1.344,1.344,0,0,1,446.108,256.95Z" transform="translate(-359.546 -221.13)" fill="#ab6ed6"/>
    <path id="Trazado_122084" data-name="Trazado 122084" d="M33.4,255.574a4.109,4.109,0,1,0-4.1,4.325A4.223,4.223,0,0,0,33.4,255.574Zm-5.409,0A1.307,1.307,0,1,1,29.3,256.95,1.344,1.344,0,0,1,27.991,255.574Z" transform="translate(-20.493 -221.13)" fill="#ab6ed6"/>
  </g>
</svg>
