<svg xmlns="http://www.w3.org/2000/svg" width="94" height="72.427" viewBox="0 0 94 72.427">
  <path id="diseno-de-logo_1_" data-name="diseno-de-logo (1)" d="M94,76.493a8.8,8.8,0,0,0-14.773-6.458A4.927,4.927,0,0,0,72.5,76.746L58.728,90.522V69.917h8.819a1.377,1.377,0,0,0,0-2.754H58.728V60.128a1.377,1.377,0,0,0-2.754,0v7.035H23.319a1.377,1.377,0,0,0,0,2.754h6.009L13,79.337l-.048.03v-9.45h4.862a1.377,1.377,0,0,0,0-2.754H12.949V60.129a1.377,1.377,0,0,0-2.754,0v7.035H1.377a1.377,1.377,0,0,0,0,2.754H10.2v50.1H1.377a1.377,1.377,0,0,0,0,2.754H10.2V129.8a1.377,1.377,0,0,0,2.754,0v-7.035H47.156a1.377,1.377,0,0,0,0-2.754H39.6l5.807-3.351a3.222,3.222,0,0,0,2.1.782,3.289,3.289,0,0,0,1.105-.193l7.367-2.625v5.386h-3.31a1.377,1.377,0,0,0,0,2.754h3.31V129.8a1.377,1.377,0,0,0,2.754,0v-7.035h8.819a1.377,1.377,0,0,0,0-2.754H58.728v-6.368l2.45-.873h0a1.387,1.387,0,0,0,.131-.055l.03-.016q.047-.024.091-.051l.039-.025c.028-.018.055-.038.081-.058l.032-.024c.035-.029.07-.059.1-.092l0,0L84.948,89.19a4.927,4.927,0,0,0,6.711-6.723A8.73,8.73,0,0,0,94,76.493Zm-4.525-4.275a6.042,6.042,0,0,1,.351,8.165l-8.515-8.515a6.055,6.055,0,0,1,8.164.351Zm-36.6,40.587-3.99-3.99,2.349-6.592a3.155,3.155,0,0,1,2.515.47c.526.526.65,1.664.359,3.291,0,.008,0,.015,0,.023-.006.04-.011.081-.014.122,0,.016,0,.033,0,.049,0,.036,0,.072,0,.107a1.377,1.377,0,0,0,1.616,1.3c1.628-.291,2.765-.166,3.291.36a3.155,3.155,0,0,1,.47,2.515Zm8.069-6.811a4.364,4.364,0,0,0-2.154-1.147L71.074,92.567a1.377,1.377,0,0,0-1.947-1.947L56.846,102.9a4.175,4.175,0,0,0-3.3-3.3l20.78-20.781,3.3,3.3-4,4a1.377,1.377,0,0,0,1.947,1.947l4-4,3.3,3.3L62.092,108.15a4.362,4.362,0,0,0-1.145-2.156ZM55.974,69.917v9.46l-.038-.024L39.607,69.917ZM12.954,84.175a2.849,2.849,0,0,1,1.421-2.453L33.056,70.946a2.838,2.838,0,0,1,2.831,0L54.558,81.737a2.844,2.844,0,0,1,1.416,2.454v9.085L49.9,99.348V89.281a5.6,5.6,0,0,0-2.789-4.839l-9.853-5.693a5.6,5.6,0,0,0-5.586,0l-9.857,5.686a5.6,5.6,0,0,0-2.8,4.837v11.379a5.6,5.6,0,0,0,2.789,4.839l9.853,5.693a5.6,5.6,0,0,0,5.586,0l9.857-5.686.054-.033-2.716,7.623a3.293,3.293,0,0,0-.191,1.059l-8.383,4.836a2.843,2.843,0,0,1-2.834,0L14.365,108.192a2.837,2.837,0,0,1-1.411-2.454ZM47.149,89.28v11.379a2.841,2.841,0,0,1-1.419,2.452L35.873,108.8a2.839,2.839,0,0,1-2.832,0L23.188,103.1a2.839,2.839,0,0,1-1.413-2.454V89.27a2.841,2.841,0,0,1,1.419-2.452l9.857-5.686a2.84,2.84,0,0,1,2.832,0l9.853,5.693A2.84,2.84,0,0,1,47.149,89.28Zm-34.2,30.732v-9.459l.038.023,16.329,9.436H12.949Zm34.733-5.356a.505.505,0,0,1-.646-.645l.828-2.324,2.141,2.141ZM88.912,86.438a2.177,2.177,0,0,1-3.075,0l-.042-.042L75.3,75.9l-.042-.042a2.174,2.174,0,0,1,3.075-3.075L88.912,83.363a2.177,2.177,0,0,1,0,3.075Z" transform="translate(0 -58.751)" fill="#ab6ed6"/>
</svg>
