<svg xmlns="http://www.w3.org/2000/svg" width="62.456" height="62.456" viewBox="0 0 62.456 62.456">
  <g id="megafono_3_" data-name="megafono (3)" transform="translate(-0.456 -0.456)">
    <path id="Trazado_119423" data-name="Trazado 119423" d="M31,0A31,31,0,1,1,0,31,31,31,0,0,1,31,0Z" transform="translate(0.456 0.456)" fill="#e4d0f1"/>
    <path id="Trazado_119414" data-name="Trazado 119414" d="M143.479,118.818c0-.143,0-.286-.005-.429l-9.395-9.459-.045.07-6.429-6.394-2.373,3.973L118.254,99.6l-3.047,12.234-23.352,18.75,19.683,19.683c.162,0,.324.006.486.006A31.456,31.456,0,0,0,143.479,118.818Z" transform="translate(-80.568 -87.363)" fill="#c69ee0"/>
    <path id="Trazado_119415" data-name="Trazado 119415" d="M167,295.744l-7.729,2.608-5.438-15.544,7.729-2.608Z" transform="translate(-134.93 -245.771)" fill="#ae4e32"/>
    <path id="Trazado_119416" data-name="Trazado 119416" d="M150.306,129.226s-18.181-5.009-30.449-.718l-3.276-9.366c12.268-4.291,23.361-19.542,23.361-19.542Z" transform="translate(-102.256 -87.362)" fill="#fff"/>
    <path id="Trazado_119417" data-name="Trazado 119417" d="M132.753,229.407l1.289,3.686c12.268-4.292,30.449.718,30.449.718l-5.239-14.975Z" transform="translate(-116.441 -191.946)" fill="#e0e0e0"/>
    <path id="Trazado_119418" data-name="Trazado 119418" d="M280.125,99.6s-1.388,1.908-3.724,4.562l8.332,23.817c3.481.62,5.756,1.246,5.756,1.246Z" transform="translate(-242.439 -87.362)" fill="#ff6838"/>
    <path id="Trazado_119419" data-name="Trazado 119419" d="M310.425,220.7l4.151,11.867c3.481.62,5.756,1.246,5.756,1.246l-5.239-14.975Z" transform="translate(-272.282 -191.945)" fill="#ae4e32"/>
    <path id="Trazado_119420" data-name="Trazado 119420" d="M68.761,270.086l6.315-2.076L71.8,258.644l-6.273,2.195Z" transform="translate(-57.475 -226.864)" fill="#ff6838"/>
    <path id="Trazado_119421" data-name="Trazado 119421" d="M82.468,307.337l1.153,3.3,6.315-2.076-1.289-3.686Z" transform="translate(-72.335 -267.411)" fill="#ae4e32"/>
    <rect id="Rectángulo_5185" data-name="Rectángulo 5185" width="2.457" height="8.809" transform="matrix(-0.391, -0.921, 0.921, -0.391, 46.36, 27.27)" fill="#ffdc00"/>
    <path id="Trazado_119422" data-name="Trazado 119422" d="M381.4,184.866l-.539-1.271-8.134,3.383.564,1.329Z" transform="translate(-326.926 -161.036)" fill="#ffc000"/>
    <rect id="Rectángulo_5186" data-name="Rectángulo 5186" width="2.457" height="7.116" transform="translate(44.194 21.766) rotate(-156.447)" fill="#ffdc00"/>
    <rect id="Rectángulo_5187" data-name="Rectángulo 5187" width="7.115" height="2.457" transform="translate(53.701 34.996) rotate(-166.42)" fill="#ffc000"/>
  </g>
</svg>
