<svg xmlns="http://www.w3.org/2000/svg" width="76.771" height="66.534" viewBox="0 0 76.771 66.534">
  <g id="diamante_6_" data-name="diamante (6)" transform="translate(0.001 -34.137)">
    <g id="Grupo_60170" data-name="Grupo 60170" transform="translate(-0.001 34.138)">
      <g id="Grupo_60169" data-name="Grupo 60169" transform="translate(0 0)">
        <path id="Trazado_122120" data-name="Trazado 122120" d="M76.473,49.959,63.678,34.605a1.282,1.282,0,0,0-.983-.459H14.074a1.278,1.278,0,0,0-.983.459L.3,49.959a1.279,1.279,0,0,0,.983,2.1H75.49a1.279,1.279,0,0,0,.983-2.1ZM4.011,49.5,14.673,36.7H62.1L72.758,49.5Z" transform="translate(0.001 -34.146)" fill="#ab6ed6"/>
      </g>
    </g>
    <g id="Grupo_60172" data-name="Grupo 60172" transform="translate(12.796 34.137)">
      <g id="Grupo_60171" data-name="Grupo 60171" transform="translate(0 0)">
        <path id="Trazado_122121" data-name="Trazado 122121" d="M112.116,34.926a1.28,1.28,0,0,0-1.182-.789H86.623a1.28,1.28,0,0,0-1.105,1.924l8.956,15.354a1.281,1.281,0,0,0,.94.624,1.414,1.414,0,0,0,.164.01,1.28,1.28,0,0,0,.906-.375l15.354-15.354A1.279,1.279,0,0,0,112.116,34.926ZM95.847,48.693l-7-12h18.994Z" transform="translate(-85.343 -34.137)" fill="#ab6ed6"/>
      </g>
    </g>
    <g id="Grupo_60174" data-name="Grupo 60174" transform="translate(0 49.49)">
      <g id="Grupo_60173" data-name="Grupo 60173" transform="translate(0 0)">
        <path id="Trazado_122122" data-name="Trazado 122122" d="M76.639,137.241a1.279,1.279,0,0,0-1.146-.713H1.281a1.279,1.279,0,0,0-1.016,2.056l37.106,48.621a1.276,1.276,0,0,0,2.032,0l37.106-48.621A1.28,1.28,0,0,0,76.639,137.241ZM38.388,184.321,3.868,139.088H72.908Z" transform="translate(-0.002 -136.528)" fill="#ab6ed6"/>
      </g>
    </g>
    <g id="Grupo_60176" data-name="Grupo 60176" transform="translate(0.001 49.49)">
      <g id="Grupo_60175" data-name="Grupo 60175" transform="translate(0 0)">
        <path id="Trazado_122123" data-name="Trazado 122123" d="M39.615,186.044,24.261,137.422a1.28,1.28,0,0,0-1.221-.894H1.289a1.279,1.279,0,0,0-1.016,2.056l37.106,48.621a1.277,1.277,0,0,0,1.017.5,1.244,1.244,0,0,0,.589-.146A1.279,1.279,0,0,0,39.615,186.044ZM3.875,139.088H22.1l12.867,40.745Z" transform="translate(-0.01 -136.528)" fill="#ab6ed6"/>
      </g>
    </g>
    <g id="Grupo_60178" data-name="Grupo 60178" transform="translate(37.105 34.137)">
      <g id="Grupo_60177" data-name="Grupo 60177" transform="translate(0 0)">
        <path id="Trazado_122124" data-name="Trazado 122124" d="M274.169,34.779a1.277,1.277,0,0,0-1.109-.642H248.749a1.279,1.279,0,0,0-.9,2.184L263.2,51.675a1.275,1.275,0,0,0,.9.375,1.452,1.452,0,0,0,.165-.01,1.279,1.279,0,0,0,.94-.624l8.956-15.354A1.282,1.282,0,0,0,274.169,34.779ZM263.835,48.693l-12-12h18.994Z" transform="translate(-247.47 -34.137)" fill="#ab6ed6"/>
      </g>
    </g>
    <g id="Grupo_60180" data-name="Grupo 60180" transform="translate(37.106 49.492)">
      <g id="Grupo_60179" data-name="Grupo 60179">
        <path id="Trazado_122125" data-name="Trazado 122125" d="M287.008,137.259a1.279,1.279,0,0,0-1.146-.713H264.11a1.279,1.279,0,0,0-1.221.894l-15.354,48.621a1.28,1.28,0,0,0,2.237,1.162L286.878,138.6A1.28,1.28,0,0,0,287.008,137.259ZM252.18,179.848,265.047,139.1h18.228Z" transform="translate(-247.476 -136.546)" fill="#ab6ed6"/>
      </g>
    </g>
  </g>
</svg>
