<svg xmlns="http://www.w3.org/2000/svg" xmlns:xlink="http://www.w3.org/1999/xlink" width="101" height="101" viewBox="0 0 101 101">
  <defs>
    <radialGradient id="radial-gradient" cx="0.687" cy="0.292" r="0.5" gradientUnits="objectBoundingBox">
      <stop offset="0" stop-color="#d492ff"/>
      <stop offset="1" stop-color="#7714b7"/>
    </radialGradient>
  </defs>
  <g id="Grupo_59049" data-name="Grupo 59049" transform="translate(-750 -3223)">
    <circle id="Elipse_4099" data-name="Elipse 4099" cx="50.5" cy="50.5" r="50.5" transform="translate(750 3223)" fill="url(#radial-gradient)"/>
    <g id="_09_Social_media_sharing" data-name="09 Social media sharing" transform="translate(769 3242)">
      <path id="Trazado_120283" data-name="Trazado 120283" d="M59,7H5a3,3,0,0,0-3,3V46a3,3,0,0,0,3,3H26.12l-4.913,6.391A1,1,0,0,0,22,57H42a1,1,0,0,0,.793-1.609L37.88,49H59a3,3,0,0,0,3-3V10a3,3,0,0,0-3-3ZM39.97,55H24.03l4.612-6h6.715ZM60,46a1,1,0,0,1-1,1H5a1,1,0,0,1-1-1V10A1,1,0,0,1,5,9H59a1,1,0,0,1,1,1Z" fill="#fff"/>
      <path id="Trazado_120284" data-name="Trazado 120284" d="M55,12H9a3.108,3.108,0,0,0-3,3.2V40.8A3.108,3.108,0,0,0,9,44H55a3.108,3.108,0,0,0,3-3.2V15.2A3.108,3.108,0,0,0,55,12Zm1,28.923A1.042,1.042,0,0,1,55,42H9a1.042,1.042,0,0,1-1-1.077V15.077A1.042,1.042,0,0,1,9,14H55a1.042,1.042,0,0,1,1,1.077Z" fill="#fff"/>
      <path id="Trazado_120285" data-name="Trazado 120285" d="M36.493,30.735,35.1,30.5a4,4,0,1,0-6.191,0l-1.4.233A2.99,2.99,0,0,0,25,33.694V37a1,1,0,0,0,.758.97A35.684,35.684,0,0,0,32,39a35.684,35.684,0,0,0,6.242-1.03A1,1,0,0,0,39,37V33.694A2.99,2.99,0,0,0,36.493,30.735ZM32,26a2,2,0,1,1-2,2,2,2,0,0,1,2-2Zm5,10.209A28.889,28.889,0,0,1,32,37a28.889,28.889,0,0,1-5-.791V33.694a1,1,0,0,1,.835-.986L32,32.014l4.165.694a1,1,0,0,1,.835.986Z" fill="#fff"/>
      <path id="Trazado_120286" data-name="Trazado 120286" d="M22.242,30.97A1,1,0,0,0,23,30V26.694a2.99,2.99,0,0,0-2.507-2.959L19.1,23.5a4,4,0,1,0-6.191,0l-1.4.233A2.99,2.99,0,0,0,9,26.694V30a1,1,0,0,0,.758.97A35.684,35.684,0,0,0,16,32a35.684,35.684,0,0,0,6.242-1.03ZM16,19a2,2,0,1,1-2,2A2,2,0,0,1,16,19Zm-5,7.694a1,1,0,0,1,.835-.986L16,25.014l4.165.694a1,1,0,0,1,.835.986v2.515A28.889,28.889,0,0,1,16,30a28.889,28.889,0,0,1-5-.791Z" fill="#fff"/>
      <path id="Trazado_120287" data-name="Trazado 120287" d="M52.493,23.735,51.1,23.5a4,4,0,1,0-6.191,0l-1.4.233A2.99,2.99,0,0,0,41,26.694V30a1,1,0,0,0,.758.97A35.684,35.684,0,0,0,48,32a35.684,35.684,0,0,0,6.242-1.03A1,1,0,0,0,55,30V26.694a2.99,2.99,0,0,0-2.507-2.959ZM48,19a2,2,0,1,1-2,2A2,2,0,0,1,48,19Zm5,10.209A28.889,28.889,0,0,1,48,30a28.889,28.889,0,0,1-5-.791V26.694a1,1,0,0,1,.835-.986L48,25.014l4.165.694a1,1,0,0,1,.835.986Z" fill="#fff"/>
      <path id="Trazado_120288" data-name="Trazado 120288" d="M23.484,20.875c.085-.046,8.644-4.658,17.03,0a1,1,0,1,0,.971-1.748c-9.378-5.211-18.585-.215-18.971,0a1,1,0,1,0,.97,1.749Z" fill="#fff"/>
      <path id="Trazado_120289" data-name="Trazado 120289" d="M48,33a1,1,0,0,0-1,1,1.509,1.509,0,0,1-.524,1.224c-1.25,1.086-4.276.936-5.335.786a1,1,0,0,0-.282,1.98,14.557,14.557,0,0,0,1.961.128c1.553,0,3.652-.243,4.965-1.381A3.509,3.509,0,0,0,49,34,1,1,0,0,0,48,33Z" fill="#fff"/>
      <path id="Trazado_120290" data-name="Trazado 120290" d="M22.858,36.01c-.986.14-4.083.3-5.332-.785A1.508,1.508,0,0,1,17,34a1,1,0,0,0-2,0,3.509,3.509,0,0,0,1.216,2.736c1.313,1.139,3.412,1.381,4.965,1.381a14.573,14.573,0,0,0,1.961-.128,1,1,0,1,0-.283-1.98Z" fill="#fff"/>
    </g>
  </g>
</svg>
