<svg xmlns="http://www.w3.org/2000/svg" xmlns:xlink="http://www.w3.org/1999/xlink" width="101" height="101" viewBox="0 0 101 101">
  <defs>
    <radialGradient id="radial-gradient" cx="0.687" cy="0.292" r="0.5" gradientUnits="objectBoundingBox">
      <stop offset="0" stop-color="#d492ff"/>
      <stop offset="1" stop-color="#7714b7"/>
    </radialGradient>
  </defs>
  <g id="Grupo_59050" data-name="Grupo 59050" transform="translate(-750 -3546)">
    <circle id="Elipse_4101" data-name="Elipse 4101" cx="50.5" cy="50.5" r="50.5" transform="translate(750 3546)" fill="url(#radial-gradient)"/>
    <g id="_27_Customer_service" data-name="27 Customer service" transform="translate(767.985 3565.235)">
      <path id="Trazado_120282" data-name="Trazado 120282" d="M57.58,42.817a9.2,9.2,0,0,0-7.712-9.055l-5.276-.846-4.429-2.948a13.422,13.422,0,0,0,3.628-4.451.974.974,0,0,0,.464.129h0l1.913,0a4.039,4.039,0,0,0,3.99-4.011l-.007-2.6a4.04,4.04,0,0,0-4.01-3.99l-1.7,0a13.22,13.22,0,0,0-.7-1.6,9.307,9.307,0,0,0,3.8-4.994A18.265,18.265,0,0,0,48,3a1,1,0,0,0-1-1H28.42a9.515,9.515,0,0,0-8.368,5.091C18.94,9.237,18.993,11.649,19,14a.987.987,0,0,0,.517.858c-.034.09-.081.177-.113.268l-1.65,0a4.04,4.04,0,0,0-3.99,4.01l.007,2.6a4.04,4.04,0,0,0,4.01,3.99l1.913,0a.987.987,0,0,0,.514-.165c.164.317.315.638.505.946a13.631,13.631,0,0,0,3.093,3.481L19.34,32.962l-5.272.893A9.208,9.208,0,0,0,6.41,42.942l.03,13.55a1,1,0,0,0,.76.969c.538.133,13.259,3.257,21.882,3.937a37.583,37.583,0,0,0,5.839-.011c8.613-.709,21.4-3.921,21.943-4.057a1,1,0,0,0,.755-.973ZM30.222,59.441,30.94,48h2.121l.717,11.434C33.179,59.465,30.81,59.47,30.222,59.441ZM25.376,43.774l-4.337-9.542,4.219-2.814,5.42,7.595ZM33.781,46H30.243l-1.063-2.953,2.829-2.525,2.807,2.521Zm-.46-6.987,5.356-7.63,4.28,2.849-4.334,9.543s-4.188-3.763-5.3-4.762ZM46.149,17.046a2,2,0,0,1,2,2l.007,2.6a2.022,2.022,0,0,1-1.995,2l-.913,0-.017-6.6ZM21.828,8.011A7.5,7.5,0,0,1,28.42,4H46.005a10.841,10.841,0,0,1-.667,4.648A7.56,7.56,0,0,1,38.58,13H21a10.46,10.46,0,0,1,.832-4.989ZM17.776,23.728a2.021,2.021,0,0,1-2-2l-.007-2.6a2.022,2.022,0,0,1,1.995-2l.913,0,.017,6.6Zm4.639,1.725A11.2,11.2,0,0,1,21.6,15H37.569a12.017,12.017,0,0,0,4.4-.629,11.218,11.218,0,0,1,1.212,6.106c-4.61,2.587-7.637,2-7.709,1.98-.009,0-.018,0-.027,0A3.822,3.822,0,0,0,31.979,20.8c-1.539,0-3.742.788-3.738,2.647.009,3.3,5.825,3.328,7.163,1.02a13.711,13.711,0,0,0,7.258-1.487,11.506,11.506,0,0,1-10.7,7.877,11.091,11.091,0,0,1-9.55-5.408ZM33.7,23.435c0,.885-3.491.888-3.445-.023C30.3,22.579,33.645,22.545,33.7,23.435Zm1.859,8.9-3.565,5.074-3.607-5.054c1.166.488,5.107.959,7.171-.021ZM8.41,42.938a7.21,7.21,0,0,1,6-7.111l4.791-.811L24.12,45.844a1.014,1.014,0,0,0,1.578.33l1.875-1.684L28.6,47.339a1,1,0,0,0,.349.463l-.721,11.509A174.007,174.007,0,0,1,8.438,55.7ZM35.773,59.3l-.72-11.473a.994.994,0,0,0,.38-.493l.993-2.84L38.3,46.173a1.015,1.015,0,0,0,1.579-.331l4.935-10.864,4.728.758a7.206,7.206,0,0,1,6.038,7.087l.038,12.754A173.182,173.182,0,0,1,35.773,59.3Z" fill="#fff"/>
    </g>
  </g>
</svg>
