<svg xmlns="http://www.w3.org/2000/svg" xmlns:xlink="http://www.w3.org/1999/xlink" width="101" height="101" viewBox="0 0 101 101">
  <defs>
    <radialGradient id="radial-gradient" cx="0.687" cy="0.292" r="0.5" gradientUnits="objectBoundingBox">
      <stop offset="0" stop-color="#d492ff"/>
      <stop offset="1" stop-color="#7714b7"/>
    </radialGradient>
  </defs>
  <g id="Grupo_59046" data-name="Grupo 59046" transform="translate(-750 -3385)">
    <circle id="Elipse_4100" data-name="Elipse 4100" cx="50.5" cy="50.5" r="50.5" transform="translate(750 3385)" fill="url(#radial-gradient)"/>
    <g id="hombre-robot" transform="translate(771 3406)">
      <path id="Trazado_120270" data-name="Trazado 120270" d="M37,14a3,3,0,0,0,3-3V9a3,3,0,0,0-3-3H23a3,3,0,0,0-3,3v2a3,3,0,0,0,3,3ZM32.382,8l-2,4H27.618l2-4ZM38,9v2a1,1,0,0,1-1,1H32.618l2-4H37A1,1,0,0,1,38,9ZM22,11V9a1,1,0,0,1,1-1h4.382l-2,4H23A1,1,0,0,1,22,11Z" fill="#fff"/>
      <path id="Trazado_120271" data-name="Trazado 120271" d="M36.544,21.572a2.969,2.969,0,0,0,1.04-4.058,3.019,3.019,0,0,0-4.047-1.131A8.339,8.339,0,0,1,30,17a8.553,8.553,0,0,1-3.5-.6,3,3,0,1,0-3.048,5.168A13.074,13.074,0,0,0,30,23,13.074,13.074,0,0,0,36.544,21.572Zm-.694-3.061a.982.982,0,0,1-.335,1.346,6.706,6.706,0,0,1-1.1.473l-.74-1.855a5.475,5.475,0,0,0,.813-.331,1.017,1.017,0,0,1,1.367.367Zm-4.164.388.763,1.912a15.942,15.942,0,0,1-4.9,0l.768-1.911A13.909,13.909,0,0,0,30,19a13.983,13.983,0,0,0,1.686-.1Zm-7.656.344a.993.993,0,0,1,.113-.758A1.028,1.028,0,0,1,25,18a4.933,4.933,0,0,1,1.336.478l-.745,1.854a6.782,6.782,0,0,1-1.107-.474A.994.994,0,0,1,24.03,19.243Z" fill="#fff"/>
      <path id="Trazado_120272" data-name="Trazado 120272" d="M42,31H39.533c-1.091-1.4-3.366-2.327-4.55-2.735V27H36.5a4.018,4.018,0,0,0,3.2-1.6l4.5-6h0A4.028,4.028,0,0,0,45,17V16h1a3,3,0,0,0,3-3V1a1,1,0,0,0-2,0V4.184A2.966,2.966,0,0,0,46,4H44.816A3,3,0,0,0,42,2H18a3,3,0,0,0-2.816,2H14a2.966,2.966,0,0,0-1,.184V1a1,1,0,0,0-2,0V13a3,3,0,0,0,3,3h1v1a4.028,4.028,0,0,0,.8,2.4l4.5,6A4.02,4.02,0,0,0,23.5,27h1.483v1.277A10.558,10.558,0,0,0,20.467,31H18a8.009,8.009,0,0,0-8,8V57a3,3,0,0,0,3,3H47a3,3,0,0,0,3-3V39A8.009,8.009,0,0,0,42,31Zm-.331,11.314.863.88a20.326,20.326,0,0,1-8.51,8.368c3.614-4.272,5.6-10.1,5.927-17.394l2.7,2.378a1.023,1.023,0,0,1,.156,1.382L41.49,39.713A2,2,0,0,0,41.669,42.314Zm-23.155-2.6L17.2,37.928a1.029,1.029,0,0,1,.17-1.4l2.683-2.364c.324,7.3,2.313,13.121,5.927,17.393a20.26,20.26,0,0,1-8.5-8.374l.858-.875A2,2,0,0,0,18.514,39.714ZM29.983,34a4.422,4.422,0,0,1,2.59,1.314L31.462,37H28.536l-1.117-1.682A4.35,4.35,0,0,1,29.983,34Zm-1.125,5h2.284l1.674,10.882A18.771,18.771,0,0,1,30,52.73a18.771,18.771,0,0,1-2.816-2.848Zm5.608,8.457-1.419-9.229.589-.892a.942.942,0,0,0,.864.533,1.007,1.007,0,0,0,.261-.035,9.4,9.4,0,0,0,3.03-1.554,27.356,27.356,0,0,1-3.325,11.177ZM26.008,37.73a.988.988,0,0,0,.353-.389l.592.89-1.419,9.226A27.356,27.356,0,0,1,22.209,36.28a9.4,9.4,0,0,0,3.03,1.554A1,1,0,0,0,26.008,37.73Zm11.981-5.474c-.145,1.8-1.814,2.833-2.876,3.315a5.793,5.793,0,0,0-2.186-2.55,4.989,4.989,0,0,0,1.857-2.7,7.94,7.94,0,0,1,3.205,1.935ZM47,7v6a1,1,0,0,1-1,1H45V6h1A1,1,0,0,1,47,7ZM14,14a1,1,0,0,1-1-1V7a1,1,0,0,1,1-1h1v8Zm7.9,10.2-4.5-6A2.026,2.026,0,0,1,17,17V5a1,1,0,0,1,1-1H42a1,1,0,0,1,1,1V17a2.025,2.025,0,0,1-.4,1.2l-4.5,6a2.01,2.01,0,0,1-1.6.8h-13A2.012,2.012,0,0,1,21.9,24.2ZM32.983,27v2a3,3,0,0,1-6,0V27Zm-7.8,3.331a4.99,4.99,0,0,0,1.864,2.7,5.792,5.792,0,0,0-2.163,2.541c-1.063-.482-2.731-1.518-2.876-3.314a7.879,7.879,0,0,1,3.178-1.927ZM12,57V39a6.006,6.006,0,0,1,6-6h.353l-2.292,2.021a3.027,3.027,0,0,0-.474,4.092l1.316,1.8-.858.875a2,2,0,0,0-.343,2.347C16.784,46.166,20.879,52.76,29,54.78V58H13A1,1,0,0,1,12,57Zm36,0a1,1,0,0,1-1,1H31V54.78c8.121-2.02,12.216-8.614,13.3-10.646a2,2,0,0,0-.343-2.348L43.1,40.9l1.315-1.786a3.023,3.023,0,0,0-.459-4.08L41.647,33H42a6.006,6.006,0,0,1,6,6Z" fill="#fff"/>
    </g>
  </g>
</svg>
