<svg xmlns="http://www.w3.org/2000/svg" xmlns:xlink="http://www.w3.org/1999/xlink" width="101" height="101" viewBox="0 0 101 101">
  <defs>
    <radialGradient id="radial-gradient" cx="0.687" cy="0.292" r="0.5" gradientUnits="objectBoundingBox">
      <stop offset="0" stop-color="#d492ff"/>
      <stop offset="1" stop-color="#7714b7"/>
    </radialGradient>
  </defs>
  <g id="Grupo_59053" data-name="Grupo 59053" transform="translate(-750 -4040)">
    <circle id="Elipse_4104" data-name="Elipse 4104" cx="50.5" cy="50.5" r="50.5" transform="translate(750 4040)" fill="url(#radial-gradient)"/>
    <g id="configuraciones_1_" data-name="configuraciones (1)" transform="translate(772.539 4062.538)">
      <path id="Trazado_120273" data-name="Trazado 120273" d="M58.461,33.129V23.666L52.54,21.693a24.813,24.813,0,0,0-2.333-5.622L53,10.485,46.31,3.793,40.723,6.585A24.935,24.935,0,0,0,35.1,4.252l-1.973-5.92H23.665l-1.973,5.92A24.943,24.943,0,0,0,16.07,6.585L10.483,3.793l-6.69,6.691,2.793,5.587a24.812,24.812,0,0,0-2.333,5.622l-5.921,1.973v9.462L4.253,35.1a24.815,24.815,0,0,0,2.333,5.622L3.793,46.311,10.483,53l5.587-2.792a24.963,24.963,0,0,0,5.623,2.333l1.972,5.92h9.462l1.973-5.92a24.949,24.949,0,0,0,5.622-2.333L46.309,53,53,46.311l-2.792-5.587A24.83,24.83,0,0,0,52.54,35.1Zm-7.717.948a22.94,22.94,0,0,1-2.53,6.1l-.281.471,2.634,5.267-4.653,4.648-5.267-2.633-.471.28a22.941,22.941,0,0,1-6.1,2.535l-.531.136-1.862,5.577H25.111l-1.862-5.582-.531-.136a22.928,22.928,0,0,1-6.1-2.53l-.471-.28-5.267,2.633L6.231,45.915l2.635-5.267-.282-.471a22.92,22.92,0,0,1-2.53-6.1l-.135-.531L.336,31.683V25.111l5.583-1.862.135-.531a22.922,22.922,0,0,1,2.53-6.1l.282-.471L6.231,10.879l4.648-4.648,5.267,2.633.471-.28a22.918,22.918,0,0,1,6.1-2.53l.531-.136L25.111.337h6.572l1.862,5.582.531.136a22.918,22.918,0,0,1,6.1,2.53l.471.28,5.267-2.633,4.648,4.648-2.635,5.267.282.471a22.924,22.924,0,0,1,2.535,6.1l.134.531,5.578,1.862v6.572l-5.583,1.862Zm0,0" transform="translate(0 0)" fill="#fff"/>
      <path id="Trazado_120274" data-name="Trazado 120274" d="M173.269,154.241a19.068,19.068,0,1,0-1.335,6.982l2.975.562-2.643-7.544Zm-6.213,6.06,2.881.545a17.043,17.043,0,1,1,1.328-6.6h1Zm0,0" transform="translate(-125.832 -125.844)" fill="#fff"/>
      <path id="Trazado_120275" data-name="Trazado 120275" d="M256.478,248.332a9.935,9.935,0,0,0-7.36,3.233l-2.825-1.12,1.166,7.908h-1a10.022,10.022,0,1,0,10.022-10.022Zm0,18.039a8.026,8.026,0,0,1-8.017-8.017h-1l6.266-4.963-2.572-1.019a8.014,8.014,0,1,1,5.326,14Zm0,0" transform="translate(-228.081 -229.956)" fill="#fff"/>
    </g>
  </g>
</svg>
