<svg xmlns="http://www.w3.org/2000/svg" xmlns:xlink="http://www.w3.org/1999/xlink" width="101" height="101" viewBox="0 0 101 101">
  <defs>
    <radialGradient id="radial-gradient" cx="0.687" cy="0.292" r="0.5" gradientUnits="objectBoundingBox">
      <stop offset="0" stop-color="#d492ff"/>
      <stop offset="1" stop-color="#7714b7"/>
    </radialGradient>
  </defs>
  <g id="Grupo_59048" data-name="Grupo 59048" transform="translate(-750 -3062)">
    <circle id="Elipse_4098" data-name="Elipse 4098" cx="50.5" cy="50.5" r="50.5" transform="translate(750 3062)" fill="url(#radial-gradient)"/>
    <g id="_18_Homepage_optimization" data-name="18 Homepage optimization" transform="translate(765 3082)">
      <path id="Trazado_120276" data-name="Trazado 120276" d="M42.856,15H16.114a1.114,1.114,0,0,0,0,2.229H42.856a1.114,1.114,0,1,0,0-2.229Z" transform="translate(1.485 0.457)" fill="#fff"/>
      <circle id="Elipse_4105" data-name="Elipse 4105" cx="1.671" cy="1.671" r="1.671" transform="translate(61.055 14.9)" fill="#fff"/>
      <circle id="Elipse_4106" data-name="Elipse 4106" cx="1.671" cy="1.671" r="1.671" transform="translate(56.598 14.9)" fill="#fff"/>
      <path id="Trazado_120277" data-name="Trazado 120277" d="M49.142,44.828h5.571a1.114,1.114,0,0,0,1.114-1.114V33.686a1.116,1.116,0,0,0-.467-.907l-7.8-5.571a1.114,1.114,0,0,0-1.295,0l-7.8,5.571a1.116,1.116,0,0,0-.467.907V43.714a1.114,1.114,0,0,0,1.114,1.114h5.571A1.114,1.114,0,0,0,45.8,43.714V39.257h2.229v4.457A1.114,1.114,0,0,0,49.142,44.828Zm-4.457-7.8a1.114,1.114,0,0,0-1.114,1.114V42.6H40.229V34.259l6.685-4.775L53.6,34.259V42.6H50.257V38.143a1.114,1.114,0,0,0-1.114-1.114Z" transform="translate(4.113 1.828)" fill="#fff"/>
      <path id="Trazado_120278" data-name="Trazado 120278" d="M55.173,23H51.83a1.114,1.114,0,0,0-1.114,1.114v1.054l-2.688-1.955a1.114,1.114,0,0,0-1.31,0L34.461,32.127a1.114,1.114,0,1,0,1.31,1.8l11.6-8.437,11.6,8.437a1.114,1.114,0,1,0,1.31-1.8l-4-2.908V24.114A1.114,1.114,0,0,0,55.173,23Zm-2.228,2.229h1.114V27.6l-1.114-.81Z" transform="translate(3.654 1.371)" fill="#fff"/>
      <path id="Trazado_120279" data-name="Trazado 120279" d="M65.512,11H5.343A3.346,3.346,0,0,0,2,14.343V47.77a3.346,3.346,0,0,0,3.343,3.343H8.06A4.922,4.922,0,0,1,8.642,49.1c-.031-.073-.061-.145-.091-.217H5.343A1.116,1.116,0,0,1,4.228,47.77V22.142h62.4V47.77a1.115,1.115,0,0,1-1.114,1.114H35.562c-.03.072-.06.145-.091.217a4.922,4.922,0,0,1,.582,2.011H65.512a3.346,3.346,0,0,0,3.343-3.343V14.343A3.346,3.346,0,0,0,65.512,11ZM4.228,19.914V14.343a1.116,1.116,0,0,1,1.114-1.114H65.512a1.115,1.115,0,0,1,1.114,1.114v5.571Z" fill="#fff"/>
      <path id="Trazado_120280" data-name="Trazado 120280" d="M20.685,34a6.685,6.685,0,1,0,6.685,6.685A6.685,6.685,0,0,0,20.685,34Zm0,11.142a4.457,4.457,0,1,1,4.457-4.457,4.457,4.457,0,0,1-4.457,4.457Z" transform="translate(1.371 2.628)" fill="#fff"/>
      <path id="Trazado_120281" data-name="Trazado 120281" d="M34.722,38.261l-1.237-.149a12.516,12.516,0,0,0-1.029-2.476l.327-.474c2.178-2.626-2.118-6.9-4.732-4.732l-.474.328a12.532,12.532,0,0,0-2.476-1.03L24.96,28.55c-.231-3.441-6.472-3.512-6.7-.058l-.148,1.237a12.488,12.488,0,0,0-2.474,1.029c-1.692-1.17-3.1-1.2-4.588.291s-1.461,2.894-.292,4.588a12.521,12.521,0,0,0-1.029,2.476l-1.177.142c-3.441.227-3.515,6.475-.06,6.7l1.237.149a12.516,12.516,0,0,0,1.029,2.476l-.327.474c-2.173,2.619,2.111,6.9,4.732,4.732l.474-.328a12.532,12.532,0,0,0,2.476,1.03l.142,1.178c.231,3.441,6.472,3.512,6.7.058l.148-1.237a12.488,12.488,0,0,0,2.474-1.029l.474.328c2.62,2.169,6.907-2.111,4.732-4.732l-.327-.474A12.521,12.521,0,0,0,33.485,45.1l1.177-.142C38.321,44.959,38.321,38.261,34.722,38.261Zm.256,3.346c0,2.229-3.343,0-3.465,2.231a6.983,6.983,0,0,1-1.322,3.2,1.114,1.114,0,0,0,.027,1.226l.764,1.1c.516.75-.873,2.135-1.618,1.618l-1.1-.763a1.124,1.124,0,0,0-1.226-.028,10.329,10.329,0,0,1-3.2,1.322c-.985.225-.914,1.413-1.006,2.2-.114.954-.2,1.27-1.225,1.27-.96,0-1.106-.292-1.215-1.2-.095-.791-.017-2.033-1.015-2.262a10.329,10.329,0,0,1-3.2-1.322c-1.065-.666-2.423,1.524-3.106.846l-.9-.9c-.662-.66,1.5-2.061.845-3.106a10.328,10.328,0,0,1-1.322-3.2c-.431-1.889-3.576.034-3.534-2.231s3.1-.345,3.533-2.231a10.328,10.328,0,0,1,1.322-3.2c.7-1.109-.9-1.74-.9-2.725a1.355,1.355,0,0,1,1.844-1.144c.671.392,1.365,1.244,2.215.712a10.329,10.329,0,0,1,3.2-1.322c1.889-.432-.033-3.575,2.231-3.534s.345,3.1,2.23,3.534a10.329,10.329,0,0,1,3.2,1.322c.771.484,1.485-.216,2.091-.626.665-.45.915-.319,1.462.229.512.513.7.743.272,1.4-.412.63-1.174,1.35-.669,2.154a6.983,6.983,0,0,1,1.322,3.2C31.635,41.607,34.978,39.378,34.978,41.607Z" transform="translate(0.45 1.706)" fill="#fff"/>
    </g>
  </g>
</svg>
