<svg xmlns="http://www.w3.org/2000/svg" width="94" height="51.089" viewBox="0 0 94 51.089">
  <g id="Grupo_58773" data-name="Grupo 58773" transform="translate(-371.051 -5274.911)">
    <path id="Rectángulo_5337" data-name="Rectángulo 5337" d="M14,0H83A11,11,0,0,1,94,11V21a0,0,0,0,1,0,0H0a0,0,0,0,1,0,0V14A14,14,0,0,1,14,0Z" transform="translate(371.051 5305)" fill="#fff"/>
    <g id="Grupo_58759" data-name="Grupo 58759" transform="translate(7641.051 10697)">
      <g id="Grupo_58755" data-name="Grupo 58755" transform="translate(-431)">
        <g id="el-marketing-movil" transform="translate(-6849 -5438.089)">
          <g id="Grupo_58704" data-name="Grupo 58704" transform="translate(42.454 27.453)">
            <path id="Trazado_119681" data-name="Trazado 119681" d="M73.817,128l-8.859,8.859A3.272,3.272,0,0,0,64,139.173v21.551H77.089v-3.272A4.908,4.908,0,0,0,82,152.543V128Z" transform="translate(-64 -128)" fill="#f0915a"/>
          </g>
          <g id="Grupo_58705" data-name="Grupo 58705" transform="translate(46.545 16)">
            <path id="Trazado_119682" data-name="Trazado 119682" d="M125.27,52H105.636A1.636,1.636,0,0,1,104,50.36V17.636A1.636,1.636,0,0,1,105.636,16H125.27a1.636,1.636,0,0,1,1.636,1.636V50.36A1.636,1.636,0,0,1,125.27,52Z" transform="translate(-104 -16)" fill="#a5c3dc"/>
          </g>
          <g id="Grupo_58706" data-name="Grupo 58706" transform="translate(46.545 16)">
            <path id="Trazado_119683" data-name="Trazado 119683" d="M122,52H105.636A1.636,1.636,0,0,1,104,50.36V17.636A1.636,1.636,0,0,1,105.636,16H122a1.636,1.636,0,0,1,1.636,1.636V50.36A1.636,1.636,0,0,1,122,52Z" transform="translate(-104 -16)" fill="#d7e6f0"/>
          </g>
          <g id="Grupo_58707" data-name="Grupo 58707" transform="translate(48.999 20.09)">
            <path id="Trazado_119684" data-name="Trazado 119684" d="M141.089,85.451H129.636A1.636,1.636,0,0,1,128,83.815V57.636A1.636,1.636,0,0,1,129.636,56h11.453a1.636,1.636,0,0,1,1.636,1.636V83.815A1.636,1.636,0,0,1,141.089,85.451Z" transform="translate(-128 -56)" fill="#555a6e"/>
          </g>
          <g id="Grupo_58708" data-name="Grupo 58708" transform="translate(42.454 34.676)">
            <path id="Trazado_119685" data-name="Trazado 119685" d="M64.958,206.808l7.7-7.7a1.636,1.636,0,0,1,2.314,0l.281.281a4.909,4.909,0,0,1,0,6.942L72.181,209.4v6.545a4.908,4.908,0,0,1-4.909,4.909H64V209.122A3.272,3.272,0,0,1,64.958,206.808Z" transform="translate(-64 -198.627)" fill="#fab991"/>
          </g>
          <g id="Grupo_58709" data-name="Grupo 58709" transform="translate(40 60.177)">
            <path id="Trazado_119686" data-name="Trazado 119686" d="M58,452.909H40v-2.454A2.454,2.454,0,0,1,42.454,448H55.544A2.454,2.454,0,0,1,58,450.454Z" transform="translate(-40 -448)" fill="#555a6e"/>
          </g>
          <g id="Grupo_58710" data-name="Grupo 58710" transform="translate(53.908 17.636)">
            <path id="Trazado_119687" data-name="Trazado 119687" d="M180.5,32.818h-4.09a.409.409,0,1,1,0-.818h4.09a.409.409,0,0,1,0,.818Z" transform="translate(-176 -32)" fill="#555a6e"/>
          </g>
          <g id="Grupo_58711" data-name="Grupo 58711" transform="translate(53.908 32.362)">
            <path id="Trazado_119688" data-name="Trazado 119688" d="M178.454,180.909a2.454,2.454,0,1,1,2.454-2.454A2.457,2.457,0,0,1,178.454,180.909Z" transform="translate(-176 -176)" fill="#fde6fc"/>
          </g>
          <g id="Grupo_58721" data-name="Grupo 58721" transform="translate(48.726 35.361)">
            <path id="Trazado_119698" data-name="Trazado 119698" d="M127.516,205.333a2.507,2.507,0,0,1,0,3.545.579.579,0,0,1-.818,0l-1.363-1.363Z" transform="translate(-125.334 -205.333)" fill="#f0915a"/>
          </g>
        </g>
        <circle id="Elipse_4085" data-name="Elipse 4085" cx="15" cy="15" r="15" transform="translate(-6789 -5408)" fill="#fde6fc"/>
        <path id="Trazado_119718" data-name="Trazado 119718" d="M-6791.723-5402.874l5.5,4.16" fill="none" stroke="#fde6fc" stroke-width="2"/>
        <g id="Grupo_58757" data-name="Grupo 58757" transform="translate(-6822 -5417.177)">
          <g id="Grupo_58743" data-name="Grupo 58743" transform="translate(0 0)">
            <circle id="Elipse_4087" data-name="Elipse 4087" cx="8.079" cy="8.079" r="8.079" fill="#ab6ed6"/>
          </g>
          <g id="Grupo_58744" data-name="Grupo 58744" transform="translate(1.971 9.839)">
            <path id="Trazado_119727" data-name="Trazado 119727" d="M358.592,106.683A2.683,2.683,0,0,0,355.909,104h-6.56a2.683,2.683,0,0,0-2.683,2.683v.936a8.05,8.05,0,0,0,11.926,0Z" transform="translate(-346.666 -104)" fill="#5ad7ff"/>
          </g>
          <g id="Grupo_58745" data-name="Grupo 58745" transform="translate(5.251 9.839)">
            <path id="Trazado_119728" data-name="Trazado 119728" d="M378.683,107.578A2.683,2.683,0,0,1,376,104.894V104h5.367v.894A2.683,2.683,0,0,1,378.683,107.578Z" transform="translate(-376 -104)" fill="#d7e6f0"/>
          </g>
          <g id="Grupo_58746" data-name="Grupo 58746" transform="translate(4.367 1.747)">
            <circle id="Elipse_4088" data-name="Elipse 4088" cx="3.494" cy="3.494" r="3.494" transform="translate(0 0)" fill="#fab991"/>
          </g>
        </g>
      </g>
      <g id="Grupo_58756" data-name="Grupo 58756" transform="translate(-7213.328 -5399.371)">
        <path id="Trazado_119729" data-name="Trazado 119729" d="M171.83,152a4.534,4.534,0,0,0-3.217,1.333l-.422.423h0l-.423-.423a4.55,4.55,0,1,0-6.435,6.435l.423.423c1.609,1.609,6.435,6.552,6.435,6.552s4.826-4.943,6.435-6.552l.423-.423A4.55,4.55,0,0,0,171.83,152Z" transform="translate(-160 -152)" fill="#f682ee"/>
      </g>
    </g>
  </g>
</svg>
