<svg xmlns="http://www.w3.org/2000/svg" width="94" height="51.089" viewBox="0 0 94 51.089">
  <g id="Grupo_58775" data-name="Grupo 58775" transform="translate(-873 -5274.911)">
    <g id="Grupo_58766" data-name="Grupo 58766">
      <g id="Grupo_58728" data-name="Grupo 58728" transform="translate(6 -3)">
        <path id="Rectángulo_5333" data-name="Rectángulo 5333" d="M14,0H83A11,11,0,0,1,94,11V21a0,0,0,0,1,0,0H0a0,0,0,0,1,0,0V14A14,14,0,0,1,14,0Z" transform="translate(867 5308)" fill="#fff"/>
        <g id="negocios-en-linea" transform="translate(885 5277.911)">
          <g id="Grupo_58651" data-name="Grupo 58651" transform="translate(4.007 0)">
            <g id="Grupo_58643" data-name="Grupo 58643">
              <path id="Trazado_119637" data-name="Trazado 119637" d="M102.094,114.059H48V84.007A4.007,4.007,0,0,1,52.007,80h46.08a4.007,4.007,0,0,1,4.007,4.007Z" transform="translate(-48 -80)" fill="#463c4b"/>
            </g>
            <g id="Grupo_58644" data-name="Grupo 58644">
              <path id="Trazado_119638" data-name="Trazado 119638" d="M98.087,114.059H48V84.007A4.007,4.007,0,0,1,52.007,80H94.08a4.007,4.007,0,0,1,4.007,4.007Z" transform="translate(-48 -80)" fill="#555a6e"/>
            </g>
            <g id="Grupo_58645" data-name="Grupo 58645" transform="translate(0 34.059)">
              <path id="Trazado_119639" data-name="Trazado 119639" d="M52.007,360.014h46.08a4.007,4.007,0,0,0,4.007-4.007V352H48v4.007A4.007,4.007,0,0,0,52.007,360.014Z" transform="translate(-48 -352)" fill="#a5c3dc"/>
            </g>
            <g id="Grupo_58646" data-name="Grupo 58646" transform="translate(0 34.059)">
              <path id="Trazado_119640" data-name="Trazado 119640" d="M94.08,360.014H52.007A4.007,4.007,0,0,1,48,356.007V352H98.087v4.007A4.007,4.007,0,0,1,94.08,360.014Z" transform="translate(-48 -352)" fill="#d7e6f0"/>
            </g>
            <g id="Grupo_58647" data-name="Grupo 58647" transform="translate(21.037 42.073)">
              <path id="Trazado_119641" data-name="Trazado 119641" d="M216,416h9.016v4.007H216Z" transform="translate(-216 -416)" fill="#a5c3dc"/>
            </g>
            <g id="Grupo_58648" data-name="Grupo 58648" transform="translate(21.037 44.077)">
              <path id="Trazado_119642" data-name="Trazado 119642" d="M216,432h6.01v2H216Z" transform="translate(-216 -432)" fill="#d7e6f0"/>
            </g>
            <g id="Grupo_58649" data-name="Grupo 58649" transform="translate(15.026 46.08)">
              <path id="Trazado_119643" data-name="Trazado 119643" d="M188.035,451.005H168v-1a2,2,0,0,1,2-2h16.028a2,2,0,0,1,2,2Z" transform="translate(-168 -448)" fill="#d7e6f0"/>
            </g>
            <g id="Grupo_58650" data-name="Grupo 58650" transform="translate(29.05 46.08)">
              <path id="Trazado_119644" data-name="Trazado 119644" d="M286.01,451.005H280v-1a2,2,0,0,1,2-2h2a2,2,0,0,1,2,2Z" transform="translate(-280 -448)" fill="#a5c3dc"/>
            </g>
          </g>
        </g>
        <path id="Trazado_119717" data-name="Trazado 119717" d="M-6972.576-5398.781l14.1-10.729h6.744l11.469,11.469" transform="translate(7872 10700)" fill="none" stroke="#00d3d6" stroke-width="1"/>
        <g id="Grupo_58728-2" data-name="Grupo 58728" transform="translate(929.19 5292.859)">
          <g id="Grupo_58699" data-name="Grupo 58699" transform="translate(0 0)">
            <circle id="Elipse_4080" data-name="Elipse 4080" cx="8.863" cy="8.863" r="8.863" fill="#ab6ed6"/>
          </g>
          <g id="Grupo_58700" data-name="Grupo 58700" transform="translate(2.288 10.949)">
            <path id="Trazado_119679" data-name="Trazado 119679" d="M207.817,362.959A2.959,2.959,0,0,0,204.858,360h-7.233a2.959,2.959,0,0,0-2.959,2.959v1.032a8.876,8.876,0,0,0,13.151,0Z" transform="translate(-194.666 -360)" fill="#5ad7ff"/>
          </g>
          <g id="Grupo_58701" data-name="Grupo 58701" transform="translate(5.905 10.949)">
            <path id="Trazado_119680" data-name="Trazado 119680" d="M226.959,363.945A2.959,2.959,0,0,1,224,360.986V360h5.918v.986A2.959,2.959,0,0,1,226.959,363.945Z" transform="translate(-224 -360)" fill="#d7e6f0"/>
          </g>
          <g id="Grupo_58702" data-name="Grupo 58702" transform="translate(4.861 2.001)">
            <circle id="Elipse_4081" data-name="Elipse 4081" cx="4.003" cy="4.003" r="4.003" transform="translate(0 0)" fill="#fab991"/>
          </g>
        </g>
        <g id="Grupo_58729" data-name="Grupo 58729" transform="translate(885.19 5292.859)">
          <g id="Grupo_58699-2" data-name="Grupo 58699" transform="translate(0 0)">
            <circle id="Elipse_4080-2" data-name="Elipse 4080" cx="8.863" cy="8.863" r="8.863" fill="#ab6ed6"/>
          </g>
          <g id="Grupo_58700-2" data-name="Grupo 58700" transform="translate(2.288 10.949)">
            <path id="Trazado_119679-2" data-name="Trazado 119679" d="M207.817,362.959A2.959,2.959,0,0,0,204.858,360h-7.233a2.959,2.959,0,0,0-2.959,2.959v1.032a8.876,8.876,0,0,0,13.151,0Z" transform="translate(-194.666 -360)" fill="#5ad7ff"/>
          </g>
          <g id="Grupo_58701-2" data-name="Grupo 58701" transform="translate(5.905 10.949)">
            <path id="Trazado_119680-2" data-name="Trazado 119680" d="M226.959,363.945A2.959,2.959,0,0,1,224,360.986V360h5.918v.986A2.959,2.959,0,0,1,226.959,363.945Z" transform="translate(-224 -360)" fill="#d7e6f0"/>
          </g>
          <g id="Grupo_58702-2" data-name="Grupo 58702" transform="translate(4.861 2.001)">
            <circle id="Elipse_4081-2" data-name="Elipse 4081" cx="4.003" cy="4.003" r="4.003" transform="translate(0 0)" fill="#fab991"/>
          </g>
        </g>
        <g id="robot" transform="translate(905.04 5278.771)">
          <path id="Trazado_119701" data-name="Trazado 119701" d="M22.028,11v.016q0,.555-.054,1.1a11,11,0,0,1-9.239,9.783,11.116,11.116,0,0,1-1.678.133h-.043q-.151,0-.3,0A11.022,11.022,0,1,1,22.028,11Z" fill="#ab6ed6"/>
          <path id="Trazado_119702" data-name="Trazado 119702" d="M90.653,89.6v.016q0,.555-.054,1.1A11,11,0,0,1,81.36,100.5a11.113,11.113,0,0,1-1.678.133h-.043q-.151,0-.3,0a11.023,11.023,0,0,1-1.542-.15L71.71,94.395l.566-2.669,1.14-2.254h1.5l2.064-1.259-1.665-1.666,8.706-4.407,3.205,3.2.441.07,2.912,2.912a11.08,11.08,0,0,1,.075,1.278Z" transform="translate(-68.625 -78.606)" fill="#a163cc"/>
          <path id="Trazado_119703" data-name="Trazado 119703" d="M226.143,174.795v9.828h2.581V174.8Z" transform="translate(-216.414 -167.275)" fill="#06465e"/>
          <path id="Trazado_119704" data-name="Trazado 119704" d="M256,174.795v9.828h1.3V174.8Z" transform="translate(-244.986 -167.275)" fill="#022b3a"/>
          <path id="Trazado_119705" data-name="Trazado 119705" d="M364.789,202.476v1.885H363.07v1.091h2.811v-2.976Z" transform="translate(-347.45 -193.765)" fill="#06465e"/>
          <path id="Trazado_119706" data-name="Trazado 119706" d="M380.81,151.817l-.293.678-.113.26a.6.6,0,1,1-.792,0l-.113-.26-.293-.678a1.606,1.606,0,1,0,1.6,0Z" transform="translate(-362.122 -145.285)" fill="#eaeaea"/>
          <path id="Trazado_119707" data-name="Trazado 119707" d="M85.962,255.543v-1.885h1.72v-1.091H84.871v2.976Z" transform="translate(-81.22 -241.701)" fill="#06465e"/>
          <g id="Grupo_58727" data-name="Grupo 58727" transform="translate(2.59 3.136)">
            <circle id="Elipse_4082" data-name="Elipse 4082" cx="0.803" cy="0.803" r="0.803" transform="translate(0.803 7.466)" fill="#fff"/>
            <path id="Trazado_119708" data-name="Trazado 119708" d="M61.01,305.736l.293-.678.113-.26a.6.6,0,1,1,.792,0l.113.26.293.678a1.606,1.606,0,1,0-1.6,0Z" transform="translate(-60.206 -292.85)" fill="#fff"/>
            <path id="Trazado_119709" data-name="Trazado 119709" d="M154.317,78.044h-6.884a1.291,1.291,0,0,1-1.291-1.291V74.172a1.291,1.291,0,0,1,1.291-1.291h6.884a1.291,1.291,0,0,1,1.291,1.291v2.581A1.291,1.291,0,0,1,154.317,78.044Z" transform="translate(-142.446 -72.881)" fill="#fff"/>
          </g>
          <path id="Trazado_119710" data-name="Trazado 119710" d="M259.448,72.881H256v5.163h3.448a1.291,1.291,0,0,0,1.291-1.291V74.172A1.291,1.291,0,0,0,259.448,72.881Z" transform="translate(-244.986 -69.745)" fill="#eaeaea"/>
          <path id="Trazado_119711" data-name="Trazado 119711" d="M154.317,228.888h-6.884a1.291,1.291,0,0,1-1.291-1.291v-3.012a1.291,1.291,0,0,1,1.291-1.291h6.884a1.291,1.291,0,0,1,1.291,1.291V227.6A1.291,1.291,0,0,1,154.317,228.888Z" transform="translate(-139.855 -213.688)" fill="#fff"/>
          <path id="Trazado_119712" data-name="Trazado 119712" d="M259.448,223.295H256v5.593h3.448a1.291,1.291,0,0,0,1.291-1.291v-3.012A1.291,1.291,0,0,0,259.448,223.295Z" transform="translate(-244.986 -213.688)" fill="#eaeaea"/>
          <path id="Trazado_119713" data-name="Trazado 119713" d="M164.31,385.2h-6.63a.987.987,0,1,1,0-1.974h6.63a.987.987,0,1,1,0,1.974Z" transform="translate(-149.952 -366.741)" fill="#fff"/>
          <path id="Trazado_119714" data-name="Trazado 119714" d="M259.345,383.229H256V385.2h3.345a.987.987,0,1,0,0-1.974Z" transform="translate(-244.986 -366.741)" fill="#eaeaea"/>
          <circle id="Elipse_4083" data-name="Elipse 4083" cx="1.183" cy="1.183" r="1.183" transform="translate(11.988 4.534)" fill="#06465e"/>
          <path id="Trazado_119715" data-name="Trazado 119715" d="M267.865,96.323a1.721,1.721,0,1,1,1.721-1.721A1.723,1.723,0,0,1,267.865,96.323Zm0-2.366a.645.645,0,1,0,.645.645A.646.646,0,0,0,267.865,93.957Z" transform="translate(-254.694 -88.885)" fill="#2284ec"/>
          <circle id="Elipse_4084" data-name="Elipse 4084" cx="1.183" cy="1.183" r="1.183" transform="translate(7.686 4.534)" fill="#06465e"/>
          <path id="Trazado_119716" data-name="Trazado 119716" d="M167.865,96.323a1.721,1.721,0,1,1,1.721-1.721A1.723,1.723,0,0,1,167.865,96.323Zm0-2.366a.645.645,0,1,0,.645.645A.646.646,0,0,0,167.865,93.957Z" transform="translate(-158.996 -88.885)" fill="#27ade5"/>
        </g>
      </g>
    </g>
  </g>
</svg>
