<svg xmlns="http://www.w3.org/2000/svg" width="94" height="51.089" viewBox="0 0 94 51.089">
  <g id="Grupo_58776" data-name="Grupo 58776" transform="translate(-1136 -5274.911)">
    <g id="Grupo_58768" data-name="Grupo 58768">
      <path id="Rectángulo_5335" data-name="Rectángulo 5335" d="M14,0H83A11,11,0,0,1,94,11V21a0,0,0,0,1,0,0H0a0,0,0,0,1,0,0V14A14,14,0,0,1,14,0Z" transform="translate(1136 5305)" fill="#fff"/>
      <g id="Grupo_58734" data-name="Grupo 58734" transform="translate(7967 10697)">
        <g id="el-marketing-movil" transform="translate(-6849 -5438.089)">
          <g id="Grupo_58704" data-name="Grupo 58704" transform="translate(42.454 27.453)">
            <path id="Trazado_119681" data-name="Trazado 119681" d="M73.817,128l-8.859,8.859A3.272,3.272,0,0,0,64,139.173v21.551H77.089v-3.272A4.908,4.908,0,0,0,82,152.543V128Z" transform="translate(-64 -128)" fill="#f0915a"/>
          </g>
          <g id="Grupo_58705" data-name="Grupo 58705" transform="translate(46.545 16)">
            <path id="Trazado_119682" data-name="Trazado 119682" d="M125.27,52H105.636A1.636,1.636,0,0,1,104,50.36V17.636A1.636,1.636,0,0,1,105.636,16H125.27a1.636,1.636,0,0,1,1.636,1.636V50.36A1.636,1.636,0,0,1,125.27,52Z" transform="translate(-104 -16)" fill="#a5c3dc"/>
          </g>
          <g id="Grupo_58706" data-name="Grupo 58706" transform="translate(46.545 16)">
            <path id="Trazado_119683" data-name="Trazado 119683" d="M122,52H105.636A1.636,1.636,0,0,1,104,50.36V17.636A1.636,1.636,0,0,1,105.636,16H122a1.636,1.636,0,0,1,1.636,1.636V50.36A1.636,1.636,0,0,1,122,52Z" transform="translate(-104 -16)" fill="#d7e6f0"/>
          </g>
          <g id="Grupo_58707" data-name="Grupo 58707" transform="translate(48.999 20.09)">
            <path id="Trazado_119684" data-name="Trazado 119684" d="M141.089,85.451H129.636A1.636,1.636,0,0,1,128,83.815V57.636A1.636,1.636,0,0,1,129.636,56h11.453a1.636,1.636,0,0,1,1.636,1.636V83.815A1.636,1.636,0,0,1,141.089,85.451Z" transform="translate(-128 -56)" fill="#555a6e"/>
          </g>
          <g id="Grupo_58708" data-name="Grupo 58708" transform="translate(42.454 34.676)">
            <path id="Trazado_119685" data-name="Trazado 119685" d="M64.958,206.808l7.7-7.7a1.636,1.636,0,0,1,2.314,0l.281.281a4.909,4.909,0,0,1,0,6.942L72.181,209.4v6.545a4.908,4.908,0,0,1-4.909,4.909H64V209.122A3.272,3.272,0,0,1,64.958,206.808Z" transform="translate(-64 -198.627)" fill="#fab991"/>
          </g>
          <g id="Grupo_58709" data-name="Grupo 58709" transform="translate(40 60.177)">
            <path id="Trazado_119686" data-name="Trazado 119686" d="M58,452.909H40v-2.454A2.454,2.454,0,0,1,42.454,448H55.544A2.454,2.454,0,0,1,58,450.454Z" transform="translate(-40 -448)" fill="#555a6e"/>
          </g>
          <g id="Grupo_58710" data-name="Grupo 58710" transform="translate(53.908 17.636)">
            <path id="Trazado_119687" data-name="Trazado 119687" d="M180.5,32.818h-4.09a.409.409,0,1,1,0-.818h4.09a.409.409,0,0,1,0,.818Z" transform="translate(-176 -32)" fill="#555a6e"/>
          </g>
          <g id="Grupo_58711" data-name="Grupo 58711" transform="translate(53.908 32.362)">
            <path id="Trazado_119688" data-name="Trazado 119688" d="M178.454,180.909a2.454,2.454,0,1,1,2.454-2.454A2.457,2.457,0,0,1,178.454,180.909Z" transform="translate(-176 -176)" fill="#fde6fc"/>
          </g>
          <g id="Grupo_58721" data-name="Grupo 58721" transform="translate(48.726 35.361)">
            <path id="Trazado_119698" data-name="Trazado 119698" d="M127.516,205.333a2.507,2.507,0,0,1,0,3.545.579.579,0,0,1-.818,0l-1.363-1.363Z" transform="translate(-125.334 -205.333)" fill="#f0915a"/>
          </g>
        </g>
        <circle id="Elipse_4085" data-name="Elipse 4085" cx="15" cy="15" r="15" transform="translate(-6789 -5408)" fill="#fde6fc"/>
        <g id="Grupo_58732" data-name="Grupo 58732" transform="translate(3.999 -0.762)">
          <g id="Grupo_58730" data-name="Grupo 58730" transform="translate(-6788.548 -5400.819)">
            <g id="Grupo_58671" data-name="Grupo 58671" transform="translate(0 0)">
              <path id="Trazado_119661" data-name="Trazado 119661" d="M201.449,226.545V243.46a.9.9,0,0,1-.9.9h-3.817a.9.9,0,0,1-.636-.264l-2.281-2.281h-15.27A2.545,2.545,0,0,1,176,239.27V226.545A2.545,2.545,0,0,1,178.545,224H198.9A2.545,2.545,0,0,1,201.449,226.545Z" transform="translate(-176 -224)" fill="#7714b7"/>
            </g>
            <g id="Grupo_58672" data-name="Grupo 58672" transform="translate(0 0)">
              <path id="Trazado_119662" data-name="Trazado 119662" d="M197.632,226.545V243.46a.9.9,0,0,1-1.536.636l-2.281-2.281h-15.27A2.545,2.545,0,0,1,176,239.27V226.545A2.545,2.545,0,0,1,178.545,224h16.542A2.545,2.545,0,0,1,197.632,226.545Z" transform="translate(-176 -224)" fill="#ab6ed6"/>
            </g>
          </g>
          <g id="Grupo_58731" data-name="Grupo 58731" transform="translate(-6782.822 -5398.91)">
            <g id="Grupo_58674" data-name="Grupo 58674" transform="translate(0 3.817)">
              <path id="Trazado_119663" data-name="Trazado 119663" d="M251.181,304.907h-2.545a.636.636,0,0,1-.636-.636v-7.635a.636.636,0,0,1,.636-.636h2.545a.636.636,0,0,1,.636.636v7.635A.636.636,0,0,1,251.181,304.907Z" transform="translate(-248 -296)" fill="#5ad7ff"/>
            </g>
            <g id="Grupo_58675" data-name="Grupo 58675" transform="translate(3.817 0)">
              <path id="Trazado_119664" data-name="Trazado 119664" d="M302.362,252.454H301.09v-3.181a1.273,1.273,0,0,0-2.545,0,1.536,1.536,0,0,1-.45,1.086l-2.1,2.1v7.635h6.362a1.272,1.272,0,0,0,1.272-1.272v-5.09A1.272,1.272,0,0,0,302.362,252.454Z" transform="translate(-296 -248)" fill="#fab991"/>
            </g>
            <g id="Grupo_58676" data-name="Grupo 58676" transform="translate(1.06 9.968)">
              <ellipse id="Elipse_4074" data-name="Elipse 4074" cx="0.848" cy="0.848" rx="0.848" ry="0.848" fill="#2387c3"/>
            </g>
          </g>
        </g>
        <path id="Trazado_119718" data-name="Trazado 119718" d="M-6791.723-5402.874l5.5,4.16" fill="none" stroke="#fde6fc" stroke-width="2"/>
      </g>
    </g>
  </g>
</svg>
